<svg width="186" height="183" viewBox="0 0 186 183" fill="none" xmlns="http://www.w3.org/2000/svg">
<path d="M184 2H84.2959V66.0956H184V2Z" fill="#BFE7F3" stroke="#1A2D59" stroke-width="3.95652" stroke-linejoin="round"/>
<path d="M60.5567 75.5911C63.2172 75.5911 65.8181 74.8022 68.0303 73.324C70.2425 71.8459 71.9667 69.7449 72.9849 67.2869C74.003 64.8288 74.2694 62.124 73.7503 59.5146C73.2313 56.9051 71.9501 54.5081 70.0688 52.6268C68.1875 50.7455 65.7905 49.4643 63.1811 48.9453C60.5716 48.4262 57.8668 48.6926 55.4087 49.7108C52.9507 50.7289 50.8497 52.4531 49.3716 54.6653C47.8934 56.8775 47.1045 59.4784 47.1045 62.1389C47.1045 65.7067 48.5218 69.1283 51.0445 71.6511C53.5673 74.1738 56.9889 75.5911 60.5567 75.5911Z" fill="#BFE7F3" stroke="#1A2D59" stroke-width="3.95652" stroke-linecap="round" stroke-linejoin="round"/>
<path d="M36.8174 100.913C37.5816 94.7915 40.326 89.1021 44.6189 84.7393C48.9117 80.3766 54.5096 77.5881 60.5319 76.8124C68.7741 75.9392 76.6312 72.8193 83.2732 67.7824C83.2732 67.7824 91.4174 63.8741 91.4174 72.3853C91.4174 83.1518 79.6531 90.4716 79.6531 90.4716L84.7784 100.9L36.8174 100.913Z" fill="#BFE7F3" stroke="#1A2D59" stroke-width="3.95652" stroke-linecap="round" stroke-linejoin="round"/>
<path d="M90.6265 66.8867L114.366 32.0693" stroke="#1A2D59" stroke-width="3.95652" stroke-linecap="round" stroke-linejoin="round"/>
<path d="M114.909 89.8348H17.8985C17.2551 89.8348 16.6381 90.0953 16.1832 90.5589C15.7282 91.0226 15.4727 91.6514 15.4727 92.3071V158.093C15.4727 158.749 15.7282 159.377 16.1832 159.841C16.6381 160.305 17.2551 160.565 17.8985 160.565H114.932C115.576 160.565 116.193 160.305 116.648 159.841C117.103 159.377 117.358 158.749 117.358 158.093V92.3071C117.358 91.9804 117.295 91.657 117.171 91.3555C117.048 91.054 116.867 90.7804 116.639 90.5506C116.412 90.3207 116.142 90.1391 115.845 90.0162C115.548 89.8934 115.23 89.8317 114.909 89.8348Z" fill="#F1F1F1" stroke="#1B2E5B" stroke-width="3.95652" stroke-miterlimit="10"/>
<path d="M64.4029 160.565H114.926C116.469 160.644 117.938 161.237 119.091 162.247L130.295 173.198C131.221 174.107 130.92 174.879 129.587 174.879H4.09174C2.7589 174.879 2.43957 174.125 3.38829 173.198L14.5879 162.247C15.741 161.237 17.2103 160.644 18.753 160.565H64.4029Z" fill="#F1F1F1" stroke="#1B2E5B" stroke-width="3.95652" stroke-miterlimit="10"/>
<path d="M130.912 173.196H4.44437C3.79565 173.197 3.17393 173.467 2.71566 173.946C2.25739 174.425 2 175.074 2 175.751V176.539C2 177.216 2.25753 177.864 2.71594 178.343C3.17434 178.821 3.79608 179.09 4.44437 179.09H130.912C131.56 179.09 132.182 178.821 132.641 178.343C133.099 177.864 133.357 177.216 133.357 176.539V175.751C133.357 175.074 133.099 174.425 132.641 173.946C132.183 173.467 131.561 173.197 130.912 173.196Z" fill="white"/>
<path d="M129.359 172.922H4.41492C3.77402 172.923 3.15979 173.286 2.70704 173.929C2.25428 174.572 2 175.443 2 176.352V177.411C2 178.319 2.25443 179.19 2.70731 179.832C3.1602 180.474 3.77444 180.835 4.41492 180.835H129.359C129.999 180.835 130.614 180.474 131.067 179.832C131.52 179.19 131.774 178.319 131.774 177.411V176.352C131.774 175.443 131.52 174.572 131.067 173.929C130.614 173.286 130 172.923 129.359 172.922Z" fill="#F1F1F1" stroke="#1B2E5B" stroke-width="3.95652" stroke-linejoin="round"/>
<path d="M110.622 99.0969H23.0508V151.303H110.622V99.0969Z" fill="#7FCFE7" stroke="#1B2E5B" stroke-width="3.95652" stroke-linejoin="round"/>
<path d="M101.36 105.833H55.8901V136.146H101.36V105.833Z" fill="#BFE7F3" stroke="#1A2D59" stroke-width="3.95652" stroke-linejoin="round"/>
<path d="M44.472 140.204C45.721 140.204 46.942 139.834 47.9805 139.14C49.019 138.446 49.8285 137.46 50.3065 136.306C50.7844 135.152 50.9095 133.882 50.6658 132.657C50.4222 131.432 49.8207 130.307 48.9375 129.423C48.0543 128.54 46.929 127.939 45.704 127.695C44.479 127.451 43.2092 127.576 42.0552 128.054C40.9013 128.532 39.915 129.342 39.221 130.38C38.5271 131.419 38.1567 132.64 38.1567 133.889C38.1567 135.564 38.8221 137.17 40.0064 138.354C41.1907 139.539 42.7971 140.204 44.472 140.204Z" fill="#BFE7F3" stroke="#1A2D59" stroke-width="3.95652" stroke-linecap="round" stroke-linejoin="round"/>
<path d="M33.9468 151.303C34.3113 148.727 35.6225 146.332 37.6744 144.496C39.7262 142.659 42.4022 141.485 45.2814 141.158C49.2215 140.794 52.9784 139.484 56.154 137.365C56.154 137.365 60.0497 135.721 60.0497 139.3C60.0497 143.833 54.4252 146.914 54.4252 146.914L56.8779 151.303H33.9468Z" fill="#BFE7F3" stroke="#1A2D59" stroke-width="3.95652" stroke-linecap="round" stroke-linejoin="round"/>
<path d="M59.207 136.988L70.1534 120.148" stroke="#1A2D59" stroke-width="3.95652" stroke-linecap="round" stroke-linejoin="round"/>
</svg>
