<svg width="192" height="154" viewBox="0 0 192 154" fill="none" xmlns="http://www.w3.org/2000/svg">
<path d="M157.332 110.009C153.324 121.968 144.735 132.522 132.86 140.08C120.986 147.638 106.469 151.79 91.5002 151.91C76.5309 152.03 61.9204 148.112 49.8718 140.745C37.8232 133.379 28.9898 122.965 24.7036 111.072" stroke="#1A305E" stroke-width="4.13263" stroke-miterlimit="10" stroke-linecap="round"/>
<path d="M24.6245 44.0108C28.7114 32.2802 37.2301 21.9411 48.9325 14.5083C60.6349 7.07545 74.9059 2.93962 89.6546 2.7067C104.403 2.47378 118.855 6.15602 130.891 13.2139C142.928 20.2718 151.917 30.3344 156.541 41.9275" stroke="#1A305E" stroke-width="4.13263" stroke-miterlimit="10" stroke-linecap="round"/>
<path d="M18.6113 25.6047L44.4085 36.6308L23.4365 47.0225L18.6113 25.6047Z" fill="#D6EBF5" stroke="#1A305E" stroke-width="4.13263" stroke-linecap="round" stroke-linejoin="round"/>
<path d="M166.163 122.326L138.42 118.152L156.098 102.815L166.163 122.326Z" fill="#D6EBF5" stroke="#1A305E" stroke-width="4.13263" stroke-linecap="round" stroke-linejoin="round"/>
<rect x="134.178" y="52.7556" width="56.8471" height="33.5491" rx="16.7746" fill="#BFE7F3" stroke="#1A305E" stroke-width="1.69693"/>
<path d="M173.166 69.776L156.316 78.6199L156.316 60.9321L173.166 69.776Z" fill="white" stroke="#1A2D59" stroke-width="1.69693" stroke-linejoin="round"/>
<path d="M91.2715 131.082H90.8623C80.3892 131.082 71.8982 122.591 71.8982 112.117V54.2649H110.236V112.117C110.236 122.591 101.745 131.082 91.2715 131.082Z" fill="#BFE7F3" stroke="#012A5D" stroke-width="2.54539"/>
<path d="M82.4974 39.4226V39.8468H82.9216H85.7562H86.1804V39.4226V36.2336V35.8094H85.7562H82.9216H82.4974V36.2336V39.4226ZM87.4577 41.1241H81.2201V34.5321H87.4577V41.1241Z" fill="#1B2E5B" stroke="#1B2E5B" stroke-width="0.848464"/>
<path d="M96.3856 39.4226V39.8468H96.8098H99.6443H100.069V39.4226V36.2336V35.8094H99.6443H96.8098H96.3856V36.2336V39.4226ZM101.346 41.1241H95.1083V34.5321H101.346V41.1241Z" fill="#1B2E5B" stroke="#1B2E5B" stroke-width="0.848464"/>
<path d="M105.874 54.2134H76.2601C75.927 54.2134 75.6572 53.9863 75.6572 53.7063V28.3036C75.6572 28.0236 75.927 27.7964 76.2601 27.7964H105.874C106.207 27.7964 106.477 28.0236 106.477 28.3036V53.7068C106.477 53.9868 106.207 54.2134 105.874 54.2134ZM78.891 51.9997H103.243C103.576 51.9997 103.846 51.7725 103.846 51.4925V30.5173C103.846 30.2373 103.576 30.0101 103.243 30.0101H78.891C78.5579 30.0101 78.2882 30.2373 78.2882 30.5173V51.492C78.2889 51.7725 78.5579 51.9997 78.891 51.9997Z" fill="#012A5D"/>
<path d="M102.393 78.4367V79.2852V84.3802V84.3809V85.2293H101.545H100.763V87.9106C100.861 89.7046 100.155 91.1707 98.8526 92.2962M102.393 78.4367L98.505 92.6103C98.5052 92.6102 98.5054 92.61 98.5055 92.6099C98.5103 92.6059 98.5151 92.6019 98.5198 92.5979M102.393 78.4367H101.545H96.3853H95.5368V79.2852V84.3802V85.2286H96.3853H97.2239M102.393 78.4367L97.2239 85.2286M98.8526 92.2962C98.852 92.2967 98.8514 92.2972 98.8508 92.2978L98.8434 92.2892L98.5198 92.5979M98.8526 92.2962C98.8138 92.3301 98.7762 92.3652 98.7266 92.4115L98.7074 92.4294C98.6558 92.4776 98.591 92.5377 98.5198 92.5979M98.8526 92.2962C98.853 92.2959 98.8534 92.2955 98.8538 92.2951L98.8463 92.2865L98.8749 92.2592L98.2991 91.6532C98.2982 91.654 98.2972 91.6548 98.2962 91.6556L93.0651 92.9188M98.5198 92.5979L98.2622 92.8436L97.8664 93.2212L97.864 93.2234L93.4435 97.4081C93.4435 97.4082 93.4435 97.4082 93.4435 97.4082C93.2012 97.6376 93.0665 97.9524 93.0665 98.277V106.818C95.0491 107.517 96.4793 109.384 96.4793 111.596C96.4793 114.411 94.1642 116.67 91.3373 116.67C88.5103 116.67 86.1953 114.411 86.1953 111.596C86.1953 109.415 87.587 107.567 89.5274 106.847V104.177C89.5274 104.054 89.4765 103.933 89.3816 103.844L89.3811 103.843L84.1382 98.8996C84.1349 98.8966 84.1313 98.8933 84.1275 98.8898C83.7629 98.5567 83.4393 98.2132 83.161 97.8851C82.6405 97.2721 82.2695 96.71 82.0688 95.9318C81.8805 95.2015 81.8576 94.3345 81.8884 93.1506V90.9989C80.904 90.4098 80.2384 89.3409 80.2384 88.1088C80.2384 86.2302 81.7821 84.7304 83.6576 84.7304C85.5331 84.7304 87.0767 86.2302 87.0767 88.1088C87.0767 89.3402 86.4112 90.4096 85.4268 90.9988V94.2359C85.4423 94.6872 85.4848 94.9286 85.5433 95.0969C85.5969 95.2512 85.681 95.3943 85.8736 95.6212L85.8747 95.6225C86.0313 95.8077 86.2227 96.0181 86.4439 96.232L86.5778 96.3585L86.5848 96.3647L86.5963 96.3755L89.5274 99.1396V76.3798H88.1743H86.6962L87.4416 75.1034L89.0144 72.4106L89.0144 72.4105L90.5879 69.7177L91.3206 68.4637L92.0531 69.7178L93.6257 72.4105L93.6258 72.4106L95.1991 75.1032L95.945 76.3798H94.4666H93.0651V92.9188M93.0651 92.9188L93.7799 92.2503L95.5408 90.5685L95.541 90.5683L95.8086 90.3127L95.8089 90.3123L95.8247 90.2972L96.2336 89.9061L96.4679 89.6788C96.9711 89.1531 97.1766 88.7159 97.2239 88.0061V85.2286M93.0651 92.9188L97.2239 85.2286M99.9146 85.2293V84.3809H100.696H100.763L99.9146 85.2293ZM86.5981 96.3781L86.5959 96.3759L86.5981 96.3781Z" fill="white" stroke="#012A5D" stroke-width="1.69693"/>
<path d="M29.776 73.5444H1.85873C1.36753 73.5444 0.969238 73.1019 0.969238 72.556V66.3958C0.969238 64.942 2.03304 63.7595 3.34106 63.7595H28.2937C29.6017 63.7595 30.6655 64.942 30.6655 66.3958V72.556C30.6655 73.1019 30.2672 73.5444 29.776 73.5444ZM2.74822 71.5672H28.887V66.3958C28.887 66.0325 28.6212 65.7367 28.2942 65.7367H3.34106C3.01405 65.7367 2.74822 66.0325 2.74822 66.3958V71.5672Z" fill="#1A305E"/>
<path d="M15.8174 91.0021C13.8135 91.0021 11.8685 90.6461 10.0375 89.9438C8.26913 89.2659 6.68148 88.2954 5.31827 87.0592C3.95506 85.8234 2.88436 84.3838 2.13652 82.7805C1.36201 81.1202 0.969238 79.3573 0.969238 77.5406V72.3734C0.969238 71.9282 1.36753 71.5671 1.85873 71.5671H29.776C30.2672 71.5671 30.6655 71.9282 30.6655 72.3734V77.5406C30.6655 79.3573 30.2728 81.1206 29.4982 82.7805C28.7504 84.3838 27.6797 85.8234 26.3165 87.0592C24.9533 88.295 23.3652 89.2659 21.5972 89.9438C19.7663 90.6461 17.8213 91.0021 15.8174 91.0021ZM2.74822 73.1801V77.5411C2.74822 84.0743 8.61085 89.3896 15.8174 89.3896C23.0239 89.3896 28.8865 84.0743 28.8865 77.5411V73.1801H2.74822Z" fill="#1A305E"/>
<path d="M24.8894 65.3208H20.55C20.0492 65.3208 19.6431 64.9174 19.6431 64.4198V54.1148C19.6431 52.4296 21.0233 51.0586 22.7195 51.0586C24.4157 51.0586 25.7959 52.4296 25.7959 54.1148V64.4203C25.7964 64.9174 25.3903 65.3208 24.8894 65.3208ZM21.457 63.5193H23.9824V54.1148C23.9824 53.4231 23.4158 52.8601 22.7195 52.8601C22.0232 52.8601 21.4565 53.4231 21.4565 54.1148V63.5193H21.457Z" fill="#1A305E"/>
<path d="M11.1213 65.3208H6.78197C6.28111 65.3208 5.875 64.9174 5.875 64.4198V54.1148C5.875 52.4296 7.25523 51.0586 8.95142 51.0586C10.6476 51.0586 12.0278 52.4296 12.0278 54.1148V64.4203C12.0283 64.9174 11.6222 65.3208 11.1213 65.3208ZM7.68894 63.5193H10.2144V54.1148C10.2144 53.4231 9.64775 52.8601 8.95142 52.8601C8.2551 52.8601 7.68847 53.4231 7.68847 54.1148V63.5193H7.68894Z" fill="#1A305E"/>
<rect x="2.78271" y="65.5642" width="26.2912" height="6.34615" fill="#BFE7F3"/>
<rect x="13.6616" y="103.641" width="12.6923" height="4.53297" transform="rotate(-90 13.6616 103.641)" fill="#D6EBF5"/>
<path d="M19.0825 104.548H13.0138C12.4421 104.548 11.9785 104.23 11.9785 103.839V90.7752C11.9785 90.3838 12.4421 90.0669 13.0138 90.0669C13.5855 90.0669 14.0491 90.3842 14.0491 90.7752V103.131H18.0467V90.7752C18.0467 90.3838 18.5103 90.0669 19.082 90.0669C19.6537 90.0669 20.1173 90.3842 20.1173 90.7752V103.839C20.1182 104.231 19.6546 104.548 19.0825 104.548Z" fill="#1A305E"/>
</svg>
