<svg width="171" height="179" viewBox="0 0 171 179" fill="none" xmlns="http://www.w3.org/2000/svg">
<path d="M146.561 23.7227H22.7578V97.1149H146.561V23.7227Z" fill="#BFE7F3" stroke="#1A2D59" stroke-width="3.8731" stroke-linejoin="round"/>
<path d="M29.4298 140.854C31.9224 140.854 34.359 140.115 36.4315 138.73C38.504 137.345 40.1194 135.377 41.0732 133.074C42.0271 130.771 42.2767 128.237 41.7904 125.792C41.3041 123.348 40.1038 121.102 38.3413 119.34C36.5788 117.577 34.3332 116.377 31.8885 115.891C29.4438 115.404 26.9098 115.654 24.607 116.608C22.3042 117.562 20.3359 119.177 18.9511 121.249C17.5663 123.322 16.8271 125.759 16.8271 128.251C16.8271 131.594 18.1549 134.799 20.5184 137.163C22.8819 139.526 26.0874 140.854 29.4298 140.854Z" fill="#7FCFE7" stroke="#1A2D59" stroke-width="3.8731" stroke-linecap="round" stroke-linejoin="round"/>
<path d="M7.1897 176.438C7.90568 170.703 10.4768 153.512 14.4985 149.424C18.5203 145.337 23.7647 142.725 29.4067 141.998C37.1284 141.18 44.4894 138.257 50.712 133.538C50.712 133.538 58.3418 129.877 58.3418 137.851C58.3418 147.937 47.3205 154.795 47.3205 154.795L52.1221 176.426L7.1897 176.438Z" fill="#7FCFE7" stroke="#1A2D59" stroke-width="3.8731" stroke-linecap="round" stroke-linejoin="round"/>
<path d="M58.3416 131.958L92.443 82.2883" stroke="#1A2D59" stroke-width="3.8731" stroke-linecap="round" stroke-linejoin="round"/>
<line x1="146.273" y1="105.141" x2="146.273" y2="118.16" stroke="#012A5D" stroke-width="3.8731" stroke-linecap="round"/>
<line x1="153.844" y1="105.19" x2="160.884" y2="116.141" stroke="#012A5D" stroke-width="3.8731" stroke-linecap="round"/>
<line x1="157.017" y1="97.8891" x2="168.291" y2="104.398" stroke="#012A5D" stroke-width="3.8731" stroke-linecap="round"/>
<line x1="24.7265" y1="14.9551" x2="24.7265" y2="1.93633" stroke="#012A5D" stroke-width="3.8731" stroke-linecap="round"/>
<line x1="17.1561" y1="14.9067" x2="10.1161" y2="3.95568" stroke="#012A5D" stroke-width="3.8731" stroke-linecap="round"/>
<line x1="13.9833" y1="22.2074" x2="2.70875" y2="15.698" stroke="#012A5D" stroke-width="3.8731" stroke-linecap="round"/>
</svg>
