<svg width="154" height="169" viewBox="0 0 154 169" fill="none" xmlns="http://www.w3.org/2000/svg">
<path d="M107.92 2.79541H9.92711C5.93202 2.79541 2.69336 6.03407 2.69336 10.0292V131.233C2.69336 135.228 5.93202 138.467 9.92711 138.467H107.92C111.915 138.467 115.153 135.228 115.153 131.233V10.0292C115.153 6.03407 111.915 2.79541 107.92 2.79541Z" fill="white" stroke="#012A5D" stroke-width="4.45444" stroke-linecap="round" stroke-linejoin="round"/>
<path d="M134.512 68.0778C134.318 67.8738 134.052 67.7545 133.771 67.7461C133.49 67.7377 133.217 67.8407 133.012 68.0328L53.5117 142.907C53.0477 143.394 52.7627 144.024 52.7033 144.694L52.1312 161.405C52.1257 161.542 52.1482 161.679 52.1974 161.807C52.2465 161.936 52.3213 162.053 52.4171 162.151C52.5129 162.25 52.6278 162.328 52.7547 162.381C52.8816 162.434 53.018 162.46 53.1554 162.459L69.3185 162.369C69.9926 162.33 70.6357 162.073 71.1512 161.636L150.652 86.7623C150.856 86.569 150.975 86.3028 150.983 86.0219C150.992 85.741 150.889 85.4682 150.697 85.2631L134.512 68.0778Z" fill="#BFE7F3"/>
<path d="M134.512 68.0778C134.318 67.8738 134.052 67.7545 133.771 67.7461C133.49 67.7377 133.217 67.8407 133.012 68.0328L53.5117 142.907C53.0477 143.394 52.7627 144.024 52.7033 144.694L52.1312 161.405C52.1257 161.542 52.1482 161.679 52.1974 161.807C52.2465 161.936 52.3213 162.053 52.4171 162.151C52.5129 162.25 52.6278 162.328 52.7547 162.381C52.8816 162.434 53.018 162.46 53.1554 162.459L69.3185 162.369C69.9926 162.33 70.6357 162.073 71.1512 161.636L150.652 86.7623C150.856 86.569 150.975 86.3028 150.983 86.0219C150.992 85.741 150.889 85.4682 150.697 85.2631L134.512 68.0778Z" stroke="#012A5D" stroke-width="4.45444" stroke-linecap="round" stroke-linejoin="round"/>
<path d="M52.7394 143.633L70.379 162.363L47.9604 165.806L52.7394 143.633Z" fill="white" stroke="#012A5D" stroke-width="4.45444" stroke-linecap="round" stroke-linejoin="round"/>
<path d="M56.4838 163.534L51.2891 158.019L50.3027 164.153L56.4838 163.534Z" fill="#012A5D" stroke="#012A5D" stroke-width="4.45444" stroke-linecap="round" stroke-linejoin="round"/>
<path d="M135.775 83.1013L61.3755 153.171" stroke="#012A5D" stroke-width="4.45444" stroke-linejoin="round"/>
<path d="M133.784 67.3062L126.956 73.7375L144.595 92.467L151.424 86.0356L133.784 67.3062Z" fill="white" stroke="#012A5D" stroke-width="4.45444" stroke-linecap="round" stroke-linejoin="round"/>
<path d="M93.258 30.696C93.258 30.696 101.368 59.1556 92.648 76.0155C85.9839 89.444 72.8448 96.0193 63.3015 90.7009C53.7583 85.3825 51.4251 70.1898 58.0892 56.7743C66.8181 39.9111 92.9866 30.5474 92.9866 30.5474" fill="#BFE7F3"/>
<path d="M93.258 30.696C93.258 30.696 101.368 59.1556 92.648 76.0155C85.9839 89.444 72.8448 96.0193 63.3015 90.7009C53.7583 85.3825 51.4251 70.1898 58.0892 56.7743C66.8181 39.9111 92.9866 30.5474 92.9866 30.5474" stroke="#012A5D" stroke-width="4.70741" stroke-linecap="round" stroke-linejoin="round"/>
<path d="M21.9741 61.5461C21.9741 61.5461 42.1394 65.0366 49.761 76.4899C55.9215 85.412 55.7743 96.6331 49.4379 101.547C43.1015 106.461 32.974 103.214 26.8207 94.2922C19.2026 82.8351 21.7946 61.687 21.7946 61.687" fill="#BFE7F3"/>
<path d="M21.9741 61.5461C21.9741 61.5461 42.1394 65.0366 49.761 76.4899C55.9215 85.412 55.7743 96.6331 49.4379 101.547C43.1015 106.461 32.974 103.214 26.8207 94.2922C19.2026 82.8351 21.7946 61.687 21.7946 61.687" stroke="#012A5D" stroke-width="4.70741" stroke-linecap="round" stroke-linejoin="round"/>
</svg>
