<svg width="196" height="151" viewBox="0 0 196 151" fill="none" xmlns="http://www.w3.org/2000/svg">
<mask id="path-1-inside-1_854_1132" fill="white">
<path d="M47.5346 85.7445C47.9077 85.3178 48.3527 84.9785 48.8438 84.7465C49.335 84.5145 49.8624 84.3943 50.3953 84.3931H66.4667C66.9996 84.3943 67.527 84.5145 68.0181 84.7465C68.5093 84.9785 68.9543 85.3178 69.3274 85.7445C70.7336 87.3392 72.4613 100.133 74.1729 101.475C76.1102 102.982 78.1283 104.354 80.2157 105.583L80.2961 105.637H80.3202C81.1335 106.089 81.7863 106.837 82.1724 107.758C82.5585 108.679 82.655 109.719 82.4463 110.71C82.2375 111.7 81.7359 112.582 81.0229 113.212C80.31 113.842 79.4279 114.183 78.5202 114.179H38.3418C37.437 114.178 36.5588 113.836 35.8492 113.207C35.1397 112.577 34.6404 111.698 34.4321 110.711C34.2239 109.724 34.3189 108.686 34.7017 107.767C35.0846 106.848 35.733 106.101 36.5418 105.647L36.5579 105.637L36.6382 105.583C37.222 105.257 37.7956 104.909 38.3579 104.538C39.8397 103.587 41.2847 102.565 42.6891 101.475C44.4087 100.124 46.1284 87.3392 47.5346 85.7445Z"/>
</mask>
<path d="M47.5346 85.7445C47.9077 85.3178 48.3527 84.9785 48.8438 84.7465C49.335 84.5145 49.8624 84.3943 50.3953 84.3931H66.4667C66.9996 84.3943 67.527 84.5145 68.0181 84.7465C68.5093 84.9785 68.9543 85.3178 69.3274 85.7445C70.7336 87.3392 72.4613 100.133 74.1729 101.475C76.1102 102.982 78.1283 104.354 80.2157 105.583L80.2961 105.637H80.3202C81.1335 106.089 81.7863 106.837 82.1724 107.758C82.5585 108.679 82.655 109.719 82.4463 110.71C82.2375 111.7 81.7359 112.582 81.0229 113.212C80.31 113.842 79.4279 114.183 78.5202 114.179H38.3418C37.437 114.178 36.5588 113.836 35.8492 113.207C35.1397 112.577 34.6404 111.698 34.4321 110.711C34.2239 109.724 34.3189 108.686 34.7017 107.767C35.0846 106.848 35.733 106.101 36.5418 105.647L36.5579 105.637L36.6382 105.583C37.222 105.257 37.7956 104.909 38.3579 104.538C39.8397 103.587 41.2847 102.565 42.6891 101.475C44.4087 100.124 46.1284 87.3392 47.5346 85.7445Z" fill="#C6E6F1"/>
<path d="M47.5346 85.7445L49.408 87.3965L49.4151 87.3885L47.5346 85.7445ZM50.3953 84.3931V81.8953L50.3893 81.8953L50.3953 84.3931ZM66.4667 84.3931L66.4727 81.8953H66.4667V84.3931ZM69.3274 85.7445L67.4469 87.3885L67.454 87.3965L69.3274 85.7445ZM74.1729 101.475L72.6314 103.44L72.6394 103.447L74.1729 101.475ZM80.2157 105.583L81.61 103.511L81.5479 103.469L81.4833 103.431L80.2157 105.583ZM80.2961 105.637L78.9017 107.71L79.534 108.135H80.2961V105.637ZM80.3202 105.637L81.5333 103.454L80.9675 103.14H80.3202V105.637ZM78.5202 114.179L78.5313 111.681H78.5202V114.179ZM38.3418 114.179L38.3416 116.676H38.3418V114.179ZM36.5418 105.647L35.32 103.468L35.3182 103.469L36.5418 105.647ZM36.5579 105.637L37.7797 107.816L37.8681 107.766L37.9521 107.71L36.5579 105.637ZM36.6382 105.583L35.4204 103.403L35.33 103.453L35.244 103.511L36.6382 105.583ZM38.3579 104.538L37.008 102.437L36.9957 102.445L36.9835 102.453L38.3579 104.538ZM42.6891 101.475L44.22 103.449L44.2263 103.444L44.2325 103.439L42.6891 101.475ZM49.4151 87.3885C49.5721 87.2088 49.7437 87.0839 49.9108 87.0049L47.7769 82.4881C46.9618 82.8732 46.2432 83.4267 45.6542 84.1005L49.4151 87.3885ZM49.9108 87.0049C50.0767 86.9265 50.2425 86.8912 50.4013 86.8908L50.3893 81.8953C49.4823 81.8975 48.5933 82.1024 47.7769 82.4881L49.9108 87.0049ZM50.3953 86.8908H66.4667V81.8953H50.3953V86.8908ZM66.4607 86.8908C66.6195 86.8912 66.7853 86.9265 66.9512 87.0049L69.085 82.4881C68.2687 82.1024 67.3797 81.8975 66.4727 81.8953L66.4607 86.8908ZM66.9512 87.0049C67.1183 87.0839 67.2899 87.2088 67.4469 87.3885L71.2078 84.1005C70.6188 83.4267 69.9002 82.8732 69.085 82.4881L66.9512 87.0049ZM67.454 87.3965C67.2895 87.21 67.3397 87.1804 67.524 87.683C67.6714 88.0849 67.8385 88.6378 68.0241 89.3319C68.396 90.722 68.7838 92.4521 69.2017 94.2653C69.6102 96.0382 70.0476 97.8907 70.4994 99.3939C70.7244 100.143 70.9727 100.873 71.2482 101.493C71.4718 101.997 71.8905 102.859 72.6314 103.44L75.7143 99.5097C76.0274 99.7552 76.0176 99.9246 75.8137 99.4654C75.6615 99.1227 75.4831 98.6204 75.2835 97.9563C74.886 96.6334 74.4827 94.9361 74.0696 93.1435C73.6658 91.3912 73.251 89.54 72.85 88.0409C72.6492 87.2904 72.4372 86.5716 72.2142 85.9634C72.0282 85.4559 71.7168 84.6776 71.2008 84.0925L67.454 87.3965ZM72.6394 103.447C74.6603 105.019 76.7671 106.451 78.9481 107.736L81.4833 103.431C79.4895 102.257 77.5602 100.945 75.7064 99.5035L72.6394 103.447ZM78.8214 107.656L78.9017 107.71L81.6904 103.565L81.61 103.511L78.8214 107.656ZM80.2961 108.135H80.3202V103.14H80.2961V108.135ZM79.107 107.821C79.3935 107.98 79.6824 108.278 79.8688 108.723L84.476 106.792C83.8903 105.395 82.8735 104.199 81.5333 103.454L79.107 107.821ZM79.8688 108.723C80.056 109.17 80.1078 109.693 80.0022 110.195L84.8903 111.225C85.2022 109.745 85.061 108.188 84.476 106.792L79.8688 108.723ZM80.0022 110.195C79.8967 110.695 79.6531 111.089 79.3691 111.34L82.6768 115.084C83.8186 114.075 84.5784 112.705 84.8903 111.225L80.0022 110.195ZM79.3691 111.34C79.0914 111.586 78.7945 111.682 78.5313 111.681L78.5091 116.676C80.0612 116.683 81.5286 116.098 82.6768 115.084L79.3691 111.34ZM78.5202 111.681H38.3418V116.676H78.5202V111.681ZM38.342 111.681C38.0795 111.681 37.7834 111.584 37.5067 111.338L34.1918 115.075C35.3342 116.088 36.7946 116.676 38.3416 116.676L38.342 111.681ZM37.5067 111.338C37.2238 111.087 36.9814 110.694 36.8761 110.195L31.9882 111.226C32.2994 112.702 33.0556 114.067 34.1918 115.075L37.5067 111.338ZM36.8761 110.195C36.7707 109.696 36.8217 109.174 37.0074 108.728L32.396 106.807C31.816 108.199 31.677 109.751 31.9882 111.226L36.8761 110.195ZM37.0074 108.728C37.1924 108.284 37.4798 107.985 37.7654 107.824L35.3182 103.469C33.9861 104.218 32.9768 105.413 32.396 106.807L37.0074 108.728ZM37.7636 107.825L37.7797 107.816L35.336 103.459L35.32 103.468L37.7636 107.825ZM37.9521 107.71L38.0325 107.656L35.244 103.511L35.1636 103.565L37.9521 107.71ZM37.8561 107.764C38.4935 107.408 39.1193 107.028 39.7322 106.624L36.9835 102.453C36.4719 102.79 35.9505 103.107 35.4204 103.403L37.8561 107.764ZM39.7078 106.64C41.2524 105.648 42.7578 104.583 44.22 103.449L41.1581 99.5015C39.8116 100.546 38.427 101.525 37.008 102.437L39.7078 106.64ZM44.2325 103.439C44.9717 102.858 45.3906 101.997 45.6156 101.491C45.8918 100.87 46.1405 100.14 46.3659 99.3905C46.8181 97.8864 47.2554 96.0339 47.6634 94.2614C48.0809 92.4485 48.4678 90.7195 48.8391 89.3299C49.0245 88.6362 49.1914 88.0837 49.3385 87.6821C49.5225 87.1799 49.5726 87.2099 49.408 87.3965L45.6612 84.0925C45.1451 84.6778 44.8338 85.4561 44.6479 85.9636C44.4251 86.5716 44.2134 87.2901 44.013 88.0403C43.6126 89.5386 43.1985 91.3892 42.7953 93.1406C42.3827 94.9325 41.9797 96.6292 41.582 97.9521C41.3823 98.6161 41.2036 99.1187 41.0511 99.4617C40.8474 99.9197 40.8364 99.7543 41.1457 99.5112L44.2325 103.439Z" fill="#012A5D" mask="url(#path-1-inside-1_854_1132)"/>
<rect x="2.18164" y="2.18091" width="111.997" height="85.5904" fill="#F1F1F1" stroke="#012A5D" stroke-width="2.49776" stroke-linejoin="round"/>
<rect x="10.7197" y="11.1907" width="94.9214" height="67.0082" fill="white" stroke="#012A5D" stroke-width="2.49776" stroke-linejoin="round"/>
<path d="M47.7728 50.7045L47.7722 50.7028C47.2166 49.0596 46.9383 47.4029 46.9383 45.7333C46.9383 43.9454 47.2756 42.4313 47.9628 41.2014C48.6437 39.9711 49.5208 39.0369 50.5966 38.4082C51.6765 37.7723 52.7986 37.4512 53.96 37.4512C54.5785 37.4512 55.1635 37.5543 55.7135 37.7618C56.2417 37.9496 56.7355 38.1436 57.1948 38.3438C57.6439 38.5345 58.0349 38.6241 58.3713 38.6241C58.6937 38.6241 59.0839 38.53 59.5465 38.3269C60.0315 38.114 60.5739 37.9077 61.1734 37.7078C61.7923 37.4896 62.4518 37.3812 63.1503 37.3812C63.4225 37.3812 63.8726 37.4239 64.491 37.5056C65.1403 37.5913 65.8407 37.8347 66.5905 38.2272C67.3761 38.6205 68.0776 39.2723 68.6988 40.1683L68.7997 40.3139L68.6745 40.4391C68.6443 40.4693 68.5792 40.5202 68.4995 40.5807C68.4134 40.646 68.294 40.7344 68.142 40.8455L68.1376 40.8487L68.1375 40.8487C67.8532 41.0455 67.5275 41.3471 67.16 41.7605L67.158 41.7627C66.8039 42.1501 66.4887 42.654 66.2156 43.2799L66.215 43.2812C65.9498 43.878 65.8132 44.5999 65.8132 45.4532C65.8132 46.4323 65.9839 47.2495 66.3153 47.9129C66.6677 48.5947 67.0672 49.1383 67.5111 49.5495C67.9821 49.9628 68.388 50.2603 68.7302 50.4482C68.9163 50.547 69.0588 50.6226 69.1576 50.6749L69.2731 50.736L69.3058 50.7531L69.3155 50.7582L69.3184 50.7597L69.3193 50.7601L69.3195 50.7602L69.4717 50.8363L69.4305 51.0014C69.4244 51.0255 69.4082 51.0722 69.3896 51.1247C69.3688 51.1834 69.3393 51.2648 69.3013 51.3686C69.2253 51.5761 69.1144 51.8752 68.9688 52.2656C68.9686 52.2661 68.9684 52.2665 68.9683 52.267L68.7695 52.1928C68.4895 52.9747 68.0226 53.8442 67.3691 54.8011L47.7728 50.7045ZM47.7728 50.7045C48.3379 52.3291 49.0169 53.7128 49.8123 54.8525L49.8123 54.8525L49.8138 54.8546C50.495 55.806 51.1605 56.6249 51.8105 57.3103C52.4882 58.025 53.2891 58.3918 54.2051 58.3918C54.7879 58.3918 55.3033 58.2947 55.7452 58.093L47.7728 50.7045ZM62.3508 35.5056L62.3517 35.5045C62.7859 34.9737 63.1407 34.3719 63.4165 33.7002L63.417 33.699C63.6954 33.0092 63.8351 32.2996 63.8351 31.5715C63.8351 31.3505 63.8167 31.1528 63.7771 30.9811L63.7378 30.8108L63.5631 30.8168C62.8483 30.8415 62.1058 31.0569 61.3376 31.453C60.5693 31.8491 59.9285 32.3496 59.4188 32.9556C59.0174 33.4063 58.6631 33.973 58.3537 34.6513C58.0379 35.3318 57.8791 36.0388 57.8791 36.7706C57.8791 36.8834 57.8854 36.9915 57.8983 37.0945C57.9098 37.1869 57.9234 37.2704 57.9425 37.3278L57.9815 37.4446L58.1022 37.4687C58.2336 37.495 58.3701 37.5079 58.5114 37.5079C59.172 37.5079 59.8593 37.3146 60.5706 36.9408L60.5707 36.9409L60.5731 36.9395C61.2831 36.5545 61.8767 36.0769 62.3508 35.5056Z" fill="#C7E4EF" stroke="#1B2E5B" stroke-width="0.424232"/>
<mask id="path-6-inside-2_854_1132" fill="white">
<path d="M127.888 122.36C128.261 121.934 128.706 121.594 129.197 121.362C129.688 121.13 130.215 121.01 130.748 121.009H146.82C147.353 121.01 147.88 121.13 148.371 121.362C148.862 121.594 149.307 121.934 149.68 122.36C151.087 123.955 152.814 136.749 154.526 138.091C156.463 139.598 158.481 140.97 160.569 142.199L160.649 142.253H160.673C161.486 142.705 162.139 143.453 162.525 144.374C162.911 145.295 163.008 146.335 162.799 147.326C162.591 148.316 162.089 149.198 161.376 149.828C160.663 150.458 159.781 150.799 158.873 150.794H118.695C117.79 150.794 116.912 150.452 116.202 149.823C115.493 149.193 114.993 148.314 114.785 147.327C114.577 146.339 114.672 145.302 115.055 144.383C115.438 143.464 116.086 142.717 116.895 142.262L116.911 142.253L116.991 142.199C117.575 141.873 118.149 141.525 118.711 141.154C120.193 140.202 121.638 139.18 123.042 138.091C124.762 136.74 126.481 123.955 127.888 122.36Z"/>
</mask>
<path d="M127.888 122.36C128.261 121.934 128.706 121.594 129.197 121.362C129.688 121.13 130.215 121.01 130.748 121.009H146.82C147.353 121.01 147.88 121.13 148.371 121.362C148.862 121.594 149.307 121.934 149.68 122.36C151.087 123.955 152.814 136.749 154.526 138.091C156.463 139.598 158.481 140.97 160.569 142.199L160.649 142.253H160.673C161.486 142.705 162.139 143.453 162.525 144.374C162.911 145.295 163.008 146.335 162.799 147.326C162.591 148.316 162.089 149.198 161.376 149.828C160.663 150.458 159.781 150.799 158.873 150.794H118.695C117.79 150.794 116.912 150.452 116.202 149.823C115.493 149.193 114.993 148.314 114.785 147.327C114.577 146.339 114.672 145.302 115.055 144.383C115.438 143.464 116.086 142.717 116.895 142.262L116.911 142.253L116.991 142.199C117.575 141.873 118.149 141.525 118.711 141.154C120.193 140.202 121.638 139.18 123.042 138.091C124.762 136.74 126.481 123.955 127.888 122.36Z" fill="#C6E6F1"/>
<path d="M127.888 122.36L129.761 124.012L129.768 124.004L127.888 122.36ZM130.748 121.009V118.511L130.742 118.511L130.748 121.009ZM146.82 121.009L146.826 118.511H146.82V121.009ZM149.68 122.36L147.8 124.004L147.807 124.012L149.68 122.36ZM154.526 138.091L152.984 140.056L152.992 140.063L154.526 138.091ZM160.569 142.199L161.963 140.127L161.901 140.085L161.836 140.047L160.569 142.199ZM160.649 142.253L159.255 144.326L159.887 144.751H160.649V142.253ZM160.673 142.253L161.886 140.07L161.321 139.756H160.673V142.253ZM158.873 150.794L158.884 148.297H158.873V150.794ZM118.695 150.794L118.695 153.292H118.695V150.794ZM116.895 142.262L115.673 140.084L115.671 140.085L116.895 142.262ZM116.911 142.253L118.133 144.432L118.221 144.382L118.305 144.326L116.911 142.253ZM116.991 142.199L115.773 140.019L115.683 140.069L115.597 140.127L116.991 142.199ZM118.711 141.154L117.361 139.053L117.349 139.061L117.337 139.069L118.711 141.154ZM123.042 138.091L124.573 140.065L124.579 140.06L124.585 140.055L123.042 138.091ZM129.768 124.004C129.925 123.825 130.097 123.7 130.264 123.621L128.13 119.104C127.315 119.489 126.596 120.043 126.007 120.716L129.768 124.004ZM130.264 123.621C130.43 123.543 130.596 123.507 130.754 123.507L130.742 118.511C129.835 118.513 128.946 118.718 128.13 119.104L130.264 123.621ZM130.748 123.507H146.82V118.511H130.748V123.507ZM146.814 123.507C146.973 123.507 147.138 123.543 147.304 123.621L149.438 119.104C148.622 118.718 147.733 118.513 146.826 118.511L146.814 123.507ZM147.304 123.621C147.471 123.7 147.643 123.825 147.8 124.004L151.561 120.716C150.972 120.043 150.253 119.489 149.438 119.104L147.304 123.621ZM147.807 124.012C147.643 123.826 147.693 123.796 147.877 124.299C148.024 124.701 148.191 125.254 148.377 125.948C148.749 127.338 149.137 129.068 149.555 130.881C149.963 132.654 150.401 134.507 150.852 136.01C151.077 136.759 151.326 137.489 151.601 138.109C151.825 138.613 152.244 139.475 152.984 140.056L156.067 136.126C156.38 136.371 156.371 136.541 156.167 136.081C156.015 135.739 155.836 135.236 155.637 134.572C155.239 133.249 154.836 131.552 154.423 129.759C154.019 128.007 153.604 126.156 153.203 124.657C153.002 123.906 152.79 123.188 152.567 122.579C152.381 122.072 152.07 121.294 151.554 120.708L147.807 124.012ZM152.992 140.063C155.013 141.635 157.12 143.067 159.301 144.352L161.836 140.047C159.843 138.873 157.913 137.561 156.059 136.119L152.992 140.063ZM159.174 144.272L159.255 144.326L162.043 140.181L161.963 140.127L159.174 144.272ZM160.649 144.751H160.673V139.756H160.649V144.751ZM159.46 144.437C159.746 144.596 160.035 144.894 160.222 145.339L164.829 143.408C164.243 142.011 163.227 140.815 161.886 140.07L159.46 144.437ZM160.222 145.339C160.409 145.786 160.461 146.309 160.355 146.811L165.243 147.841C165.555 146.361 165.414 144.804 164.829 143.408L160.222 145.339ZM160.355 146.811C160.25 147.311 160.006 147.705 159.722 147.956L163.03 151.7C164.172 150.691 164.931 149.321 165.243 147.841L160.355 146.811ZM159.722 147.956C159.444 148.202 159.148 148.298 158.884 148.297L158.862 153.292C160.414 153.299 161.882 152.714 163.03 151.7L159.722 147.956ZM158.873 148.297H118.695V153.292H158.873V148.297ZM118.695 148.297C118.433 148.297 118.136 148.199 117.86 147.954L114.545 151.691C115.687 152.704 117.148 153.292 118.695 153.292L118.695 148.297ZM117.86 147.954C117.577 147.703 117.334 147.31 117.229 146.811L112.341 147.842C112.652 149.318 113.409 150.683 114.545 151.691L117.86 147.954ZM117.229 146.811C117.124 146.312 117.175 145.79 117.36 145.344L112.749 143.423C112.169 144.815 112.03 146.367 112.341 147.842L117.229 146.811ZM117.36 145.344C117.545 144.9 117.833 144.6 118.118 144.44L115.671 140.085C114.339 140.833 113.33 142.029 112.749 143.423L117.36 145.344ZM118.117 144.441L118.133 144.432L115.689 140.075L115.673 140.084L118.117 144.441ZM118.305 144.326L118.385 144.272L115.597 140.127L115.517 140.181L118.305 144.326ZM118.209 144.38C118.847 144.024 119.472 143.644 120.085 143.24L117.337 139.069C116.825 139.406 116.304 139.723 115.773 140.019L118.209 144.38ZM120.061 143.256C121.605 142.264 123.111 141.199 124.573 140.065L121.511 136.117C120.165 137.162 118.78 138.141 117.361 139.053L120.061 143.256ZM124.585 140.055C125.325 139.474 125.744 138.613 125.969 138.107C126.245 137.486 126.494 136.756 126.719 136.006C127.171 134.502 127.608 132.65 128.016 130.877C128.434 129.064 128.821 127.335 129.192 125.946C129.378 125.252 129.544 124.7 129.692 124.298C129.876 123.796 129.926 123.826 129.761 124.012L126.014 120.708C125.498 121.294 125.187 122.072 125.001 122.58C124.778 123.188 124.566 123.906 124.366 124.656C123.966 126.155 123.552 128.005 123.148 129.757C122.736 131.548 122.333 133.245 121.935 134.568C121.735 135.232 121.557 135.735 121.404 136.078C121.2 136.536 121.189 136.37 121.499 136.127L124.585 140.055Z" fill="#012A5D" mask="url(#path-6-inside-2_854_1132)"/>
<rect x="82.5347" y="38.7974" width="111.997" height="85.5904" fill="#F1F1F1" stroke="#012A5D" stroke-width="2.49776" stroke-linejoin="round"/>
<rect x="91.0728" y="47.8069" width="94.9214" height="67.0082" fill="white" stroke="#012A5D" stroke-width="2.49776" stroke-linejoin="round"/>
<path d="M127.967 71.1186H137.575V80.7275H127.967V71.1186Z" fill="#C7E4EF" stroke="#1B2E5B" stroke-width="0.424232"/>
<path d="M139.145 71.1189H148.754V80.7277H139.145V71.1189Z" fill="#C7E4EF" stroke="#1B2E5B" stroke-width="0.424232"/>
<path d="M139.145 82.2971H148.754V91.9059H139.145V82.2971Z" fill="#C7E4EF" stroke="#1B2E5B" stroke-width="0.424232"/>
<path d="M127.967 82.2971H137.575V91.9059H127.967V82.2971Z" fill="#C7E4EF" stroke="#1B2E5B" stroke-width="0.424232"/>
</svg>
