<svg width="74" height="99" viewBox="0 0 74 99" fill="none" xmlns="http://www.w3.org/2000/svg">
<path d="M21.3518 30.6357C17.6271 33.5542 14.6159 37.2826 12.5465 41.538C10.4771 45.7934 9.40391 50.4641 9.40822 55.196" stroke="#1B2E5B" stroke-width="4" stroke-linecap="round" stroke-linejoin="round"/>
<path d="M9.40829 55.7252L2 63.1335L10.4666 63.2768V84.3001H19.9916V97H56.074V82.3246L56.0784 82.3324C60.5549 79.7824 64.331 76.1644 67.0701 71.801C69.8092 67.4377 71.4263 62.4644 71.7771 57.3244C72.1279 52.1845 71.2017 47.0376 69.0809 42.3425C66.9601 37.6474 63.7106 33.5499 59.6221 30.4153" stroke="#1B2E5B" stroke-width="4" stroke-linecap="round" stroke-linejoin="round"/>
<path d="M40.4217 45.1216L44.4727 53.3296L53.5307 54.6459L46.9762 61.0352L48.5236 70.0567L40.4217 65.7972L32.3196 70.0567L33.867 61.0352L27.3125 54.6459L36.3706 53.3296L40.4217 45.1216Z" stroke="#1B2E5B" stroke-width="4" stroke-linecap="round" stroke-linejoin="round"/>
<path d="M40.361 26.3302L10.7148 14.1651L40.361 2L70.0073 14.1651L40.361 26.3302Z" stroke="#1B2E5B" stroke-width="4" stroke-linecap="round" stroke-linejoin="round"/>
<path d="M61.2339 17.7651V27.2755H61.1463C61.1463 32.2028 51.8404 34.7065 40.3611 34.7065C28.8818 34.7065 19.5759 32.2028 19.5759 27.2755H19.4883V17.7651" stroke="#1B2E5B" stroke-width="4" stroke-linecap="round" stroke-linejoin="round"/>
</svg>
