<svg width="111" height="99" viewBox="0 0 111 99" fill="none" xmlns="http://www.w3.org/2000/svg">
<path d="M16.3307 63.9655L11.023 83.7696L34.3273 63.9655H76.7674C84.7211 63.9655 91.1688 57.1223 91.1688 48.6808V17.2847C91.1688 8.8432 84.7211 2 76.7674 2H16.4014C8.44771 2 2 8.8432 2 17.2847V48.6808C2 57.1223 8.44772 63.9655 16.4014 63.9655" fill="white"/>
<path d="M16.3307 63.9655L11.023 83.7696L34.3273 63.9655H76.7674C84.7211 63.9655 91.1688 57.1223 91.1688 48.6808V17.2847C91.1688 8.8432 84.7211 2 76.7674 2H16.4014C8.44771 2 2 8.8432 2 17.2847V48.6808C2 57.1223 8.44772 63.9655 16.4014 63.9655" stroke="#1B2E5B" stroke-width="3.9992" stroke-linecap="round" stroke-linejoin="round"/>
<path d="M97.3713 80.908L101.463 96.9999L83.4989 80.908H50.7847C44.6537 80.908 39.6836 74.8999 39.6836 67.4885V39.9239C39.6836 32.5125 44.6537 26.5044 50.7847 26.5044H97.3168C103.448 26.5044 108.418 32.5125 108.418 39.9239V67.4885C108.418 74.8999 103.448 80.908 97.3168 80.908" fill="white"/>
<path d="M97.3713 80.908L101.463 96.9999L83.4989 80.908H50.7847C44.6537 80.908 39.6836 74.8999 39.6836 67.4885V39.9239C39.6836 32.5125 44.6537 26.5044 50.7847 26.5044H97.3168C103.448 26.5044 108.418 32.5125 108.418 39.9239V67.4885C108.418 74.8999 103.448 80.908 97.3168 80.908" stroke="#1B2E5B" stroke-width="3.9992" stroke-linecap="round" stroke-linejoin="round"/>
</svg>
