<svg width="136" height="99" viewBox="0 0 136 99" fill="none" xmlns="http://www.w3.org/2000/svg">
<path d="M92.9934 89.6197C84.408 95.0563 74.3058 97.5974 64.1698 96.87C54.0339 96.1426 44.3981 92.1849 36.6769 85.578C28.9558 78.9712 23.5561 70.0631 21.2704 60.1614C18.9847 50.2598 19.9334 39.8862 23.9774 30.5635" stroke="#1B2E5B" stroke-width="4" stroke-linecap="round" stroke-linejoin="round"/>
<path d="M42.1113 9.38097C50.6967 3.94397 60.799 1.4025 70.9351 2.12966C81.0712 2.85681 90.7072 6.81429 98.4286 13.4211C106.15 20.028 111.55 28.9361 113.836 38.8379C116.122 48.7396 115.173 59.1134 111.129 68.4362" stroke="#1B2E5B" stroke-width="4" stroke-linecap="round" stroke-linejoin="round"/>
<path d="M67.5527 49.5H83.2791C83.2804 51.6272 84.1263 53.6668 85.6309 55.1705C87.1355 56.6743 89.1756 57.519 91.3028 57.519C93.43 57.519 95.4701 56.6743 96.9747 55.1705C98.4793 53.6668 99.3252 51.6272 99.3265 49.5H115.053" stroke="#1B2E5B" stroke-width="4" stroke-linecap="round" stroke-linejoin="round"/>
<path d="M20.0527 49.5002H35.7791C35.7791 47.3722 36.6245 45.3314 38.1292 43.8266C39.6339 42.3219 41.6748 41.4766 43.8028 41.4766C45.9308 41.4766 47.9716 42.3219 49.4764 43.8266C50.9811 45.3314 51.8265 47.3722 51.8265 49.5002H67.5528" stroke="#1B2E5B" stroke-width="4" stroke-linecap="round" stroke-linejoin="round"/>
<path d="M67.5541 49.5V65.2264C65.4269 65.2276 63.3873 66.0735 61.8836 67.5781C60.3799 69.0827 59.5352 71.1228 59.5352 73.25C59.5352 75.3772 60.3799 77.4174 61.8836 78.922C63.3873 80.4266 65.4269 81.2725 67.5541 81.2737V97.0001" stroke="#1B2E5B" stroke-width="4" stroke-linecap="round" stroke-linejoin="round"/>
<path d="M67.5527 2V17.7264C69.6799 17.7276 71.7196 18.5735 73.2233 20.0781C74.727 21.5827 75.5717 23.6229 75.5717 25.7501C75.5717 27.8772 74.727 29.9174 73.2233 31.422C71.7196 32.9266 69.6799 33.7725 67.5527 33.7737V49.5001" stroke="#1B2E5B" stroke-width="4" stroke-linecap="round" stroke-linejoin="round"/>
<path d="M23.98 30.5643L26.2568 26.017C30.2927 26.017 32.4911 18.3683 32.4911 18.3683H44.3661C44.9562 18.3683 45.5405 18.2521 46.0856 18.0263C46.6308 17.8005 47.1261 17.4695 47.5433 17.0523C47.9606 16.6351 48.2915 16.1397 48.5174 15.5946C48.7432 15.0494 48.8594 14.4651 48.8594 13.8751V13.8751C48.8594 13.285 48.7432 12.7007 48.5174 12.1556C48.2915 11.6104 47.9606 11.1151 47.5433 10.6979C47.1261 10.2806 46.6308 9.94967 46.0856 9.72386C45.5405 9.49806 44.9562 9.38184 44.3661 9.38184H12.2715V30.5643L23.98 30.5643Z" stroke="#1B2E5B" stroke-width="4" stroke-linecap="round" stroke-linejoin="round"/>
<path d="M12.2703 6.33252H2V33.9339H12.2703V6.33252Z" stroke="#1B2E5B" stroke-width="4" stroke-linecap="round" stroke-linejoin="round"/>
<path d="M111.127 68.436L108.851 72.9834C104.815 72.9834 102.616 80.632 102.616 80.632H90.7413C89.5496 80.632 88.4067 81.1054 87.5641 81.9481C86.7214 82.7907 86.248 83.9336 86.248 85.1253C86.248 86.3169 86.7214 87.4598 87.5641 88.3025C88.4067 89.1451 89.5496 89.6185 90.7413 89.6185H122.836V68.436L111.127 68.436Z" stroke="#1B2E5B" stroke-width="4" stroke-linecap="round" stroke-linejoin="round"/>
<path d="M122.837 92.6675H133.107V65.0661H122.837V92.6675Z" stroke="#1B2E5B" stroke-width="4" stroke-linecap="round" stroke-linejoin="round"/>
</svg>
