<svg width="201" height="209" viewBox="0 0 201 209" fill="none" xmlns="http://www.w3.org/2000/svg">
<path d="M3 56.0256V24.1164H24.7164L53.5143 3V77.1419L24.7164 56.0256H3Z" fill="#BFE7F3" stroke="#012A5D" stroke-width="4.56412" stroke-linejoin="round"/>
<path d="M67.9941 56.3215C67.9941 56.3215 79.4789 49.2131 79.4791 38.7144L79.5463 37.236C79.5463 26.7371 68.0613 19.6289 68.0613 19.6289" stroke="#1A305E" stroke-width="4.56412" stroke-linecap="round" stroke-linejoin="round"/>
<path d="M60.6917 46.3174C60.6917 46.3174 66.0487 43.0018 66.0488 38.1047L66.0802 37.4152C66.0802 32.5181 60.7231 29.2025 60.7231 29.2025" stroke="#1A305E" stroke-width="4.56412" stroke-linecap="round" stroke-linejoin="round"/>
<path d="M72.0279 70.8966C72.0279 70.8966 92.6537 58.1307 92.6537 39.2761L92.7743 36.6211C92.7743 17.7665 72.1485 5.00063 72.1485 5.00063" stroke="#1A305E" stroke-width="4.56412" stroke-linecap="round" stroke-linejoin="round"/>
<rect x="3" y="24.1831" width="20.3687" height="31.7751" fill="#7FCFE7" stroke="#012A5D" stroke-width="4.56412" stroke-linejoin="round"/>
<path d="M100.672 120.836V88.9267H122.388L151.186 67.8103V141.952L122.388 120.836H100.672Z" fill="#BFE7F3" stroke="#012A5D" stroke-width="4.56412" stroke-linejoin="round"/>
<path d="M161.469 118.347C161.469 118.347 172.954 111.239 172.954 100.74L173.021 99.2617C173.021 88.7628 161.536 81.6545 161.536 81.6545" stroke="#1A305E" stroke-width="4.56412" stroke-linecap="round" stroke-linejoin="round"/>
<path d="M154.167 108.344C154.167 108.344 159.524 105.028 159.524 100.131L159.555 99.4413C159.555 94.5442 154.198 91.2286 154.198 91.2286" stroke="#1A305E" stroke-width="4.56412" stroke-linecap="round" stroke-linejoin="round"/>
<path d="M165.503 132.922C165.503 132.922 186.129 120.156 186.129 101.302L186.249 98.6468C186.249 79.7922 165.624 67.0263 165.624 67.0263" stroke="#1A305E" stroke-width="4.56412" stroke-linecap="round" stroke-linejoin="round"/>
<rect x="100.672" y="88.9939" width="20.3687" height="31.7751" fill="#7FCFE7" stroke="#012A5D" stroke-width="4.56412" stroke-linejoin="round"/>
<path d="M3 184.733V152.824H24.7164L53.5143 131.708V205.85L24.7164 184.733H3Z" fill="#BFE7F3" stroke="#012A5D" stroke-width="4.56412" stroke-linejoin="round"/>
<path d="M67.9941 179.499C67.9941 179.499 79.4789 172.391 79.4791 161.892L79.5463 160.414C79.5463 149.915 68.0613 142.806 68.0613 142.806" stroke="#1A305E" stroke-width="4.56412" stroke-linecap="round" stroke-linejoin="round"/>
<path d="M60.6917 169.495C60.6917 169.495 66.0487 166.18 66.0488 161.283L66.0802 160.593C66.0802 155.696 60.7231 152.38 60.7231 152.38" stroke="#1A305E" stroke-width="4.56412" stroke-linecap="round" stroke-linejoin="round"/>
<path d="M72.0279 194.074C72.0279 194.074 92.6537 181.308 92.6537 162.454L92.7743 159.799C92.7743 140.944 72.1485 128.178 72.1485 128.178" stroke="#1A305E" stroke-width="4.56412" stroke-linecap="round" stroke-linejoin="round"/>
<rect x="3" y="152.891" width="20.3687" height="31.7751" fill="#7FCFE7" stroke="#012A5D" stroke-width="4.56412" stroke-linejoin="round"/>
</svg>
