<svg width="104" height="104" viewBox="0 0 104 104" fill="none" xmlns="http://www.w3.org/2000/svg">
<path d="M52.102 27.7905C57.0739 27.7905 61.1045 23.76 61.1045 18.7881C61.1045 13.8162 57.0739 9.78564 52.102 9.78564C47.1301 9.78564 43.0996 13.8162 43.0996 18.7881C43.0996 23.76 47.1301 27.7905 52.102 27.7905Z" stroke="#1B2E5B" stroke-width="4" stroke-linecap="round" stroke-linejoin="round"/>
<path d="M77.7718 91.416H26.4336V101.635H77.7718V91.416Z" stroke="#1B2E5B" stroke-width="4" stroke-linecap="round" stroke-linejoin="round"/>
<path d="M47.9043 26.7534V91.2943" stroke="#1B2E5B" stroke-width="4" stroke-linecap="round" stroke-linejoin="round"/>
<path d="M56.2985 10.8234V6.19708C56.2985 5.08395 55.8563 4.0164 55.0692 3.2293C54.2821 2.44219 53.2145 2 52.1014 2C50.9882 2 49.9207 2.44219 49.1336 3.2293C48.3465 4.0164 47.9043 5.08395 47.9043 6.19708V10.824" stroke="#1B2E5B" stroke-width="4" stroke-linecap="round" stroke-linejoin="round"/>
<path d="M56.2988 91.2944V26.7534" stroke="#1B2E5B" stroke-width="4" stroke-linecap="round" stroke-linejoin="round"/>
<path d="M43.0815 18.7383L16.2573 28.1291C15.9168 28.2483 15.6031 28.4334 15.3342 28.6738C15.0653 28.9143 14.8463 29.2053 14.6898 29.5304C14.5334 29.8554 14.4424 30.2081 14.4223 30.5682C14.4021 30.9284 14.4531 31.2891 14.5723 31.6295L14.6864 31.9555C14.8056 32.296 14.9907 32.6097 15.2311 32.8786C15.4715 33.1476 15.7626 33.3665 16.0876 33.523C16.4126 33.6795 16.7653 33.7704 17.1255 33.7906C17.4857 33.8107 17.8463 33.7598 18.1868 33.6406L44.96 24.2676" stroke="#1B2E5B" stroke-width="4" stroke-linecap="round" stroke-linejoin="round"/>
<path d="M61.0499 18.6346L87.9861 9.20455C88.3266 9.08535 88.6403 8.90026 88.9092 8.65983C89.1782 8.41941 89.3971 8.12837 89.5536 7.80333C89.7101 7.47829 89.801 7.12561 89.8212 6.76544C89.8413 6.40526 89.7904 6.04463 89.6712 5.70415L89.557 5.37815C89.4378 5.03767 89.2527 4.724 89.0123 4.45505C88.7719 4.18611 88.4809 3.96715 88.1558 3.81068C87.8308 3.6542 87.4781 3.56329 87.1179 3.54312C86.7577 3.52294 86.3971 3.57391 86.0566 3.69311L59.1016 13.1298" stroke="#1B2E5B" stroke-width="4" stroke-linecap="round" stroke-linejoin="round"/>
<path d="M89.4699 54.6765C96.3902 54.6765 102 49.0665 102 42.1461C102 35.2258 96.3902 29.6157 89.4699 29.6157C82.5495 29.6157 76.9395 35.2258 76.9395 42.1461C76.9395 49.0665 82.5495 54.6765 89.4699 54.6765Z" stroke="#1B2E5B" stroke-width="4" stroke-linecap="round" stroke-linejoin="round"/>
<path d="M89.4688 5.40625L96.6575 31.8818" stroke="#1B2E5B" stroke-width="2.43309" stroke-linecap="round" stroke-linejoin="round"/>
<path d="M89.4688 29.6155V5.40625" stroke="#1B2E5B" stroke-width="2.43309" stroke-linecap="round" stroke-linejoin="round"/>
<path d="M89.47 5.40625L82.2812 31.882" stroke="#1B2E5B" stroke-width="2.43309" stroke-linecap="round" stroke-linejoin="round"/>
<path d="M14.5304 81.1973C21.4508 81.1973 27.0608 75.5872 27.0608 68.6669C27.0608 61.7465 21.4508 56.1365 14.5304 56.1365C7.61006 56.1365 2 61.7465 2 68.6669C2 75.5872 7.61006 81.1973 14.5304 81.1973Z" stroke="#1B2E5B" stroke-width="4" stroke-linecap="round" stroke-linejoin="round"/>
<path d="M14.5312 31.9272L21.72 58.4028" stroke="#1B2E5B" stroke-width="2.43309" stroke-linecap="round" stroke-linejoin="round"/>
<path d="M14.5312 56.1365V31.9272" stroke="#1B2E5B" stroke-width="2.43309" stroke-linecap="round" stroke-linejoin="round"/>
<path d="M14.5306 31.9272L7.3418 58.403" stroke="#1B2E5B" stroke-width="2.43309" stroke-linecap="round" stroke-linejoin="round"/>
</svg>
