<svg width="180" height="180" viewBox="0 0 180 180" fill="none" xmlns="http://www.w3.org/2000/svg">
<line x1="2.00893" y1="2.00893" x2="2.00893" y2="38.1697" stroke="#012A5D" stroke-width="4.01786" stroke-linecap="round"/>
<line x1="2.00893" y1="2.00914" x2="38.1697" y2="2.00914" stroke="#012A5D" stroke-width="4.01786" stroke-linecap="round"/>
<line x1="177.991" y1="2.00917" x2="141.83" y2="2.00917" stroke="#012A5D" stroke-width="4.01786" stroke-linecap="round"/>
<line x1="177.991" y1="2.00942" x2="177.991" y2="38.1701" stroke="#012A5D" stroke-width="4.01786" stroke-linecap="round"/>
<line x1="2.00893" y1="177.991" x2="38.1697" y2="177.991" stroke="#012A5D" stroke-width="4.01786" stroke-linecap="round"/>
<line x1="2.00914" y1="177.992" x2="2.00914" y2="141.831" stroke="#012A5D" stroke-width="4.01786" stroke-linecap="round"/>
<line x1="177.991" y1="177.991" x2="177.991" y2="141.83" stroke="#012A5D" stroke-width="4.01786" stroke-linecap="round"/>
<line x1="177.991" y1="177.991" x2="141.83" y2="177.991" stroke="#012A5D" stroke-width="4.01786" stroke-linecap="round"/>
<path d="M73.2429 159.019H30.9864C30.9864 159.019 30.1963 131.102 43.9477 122.878C46.3167 124.55 49.166 125.405 52.0641 125.312C54.9621 125.219 57.7511 124.185 60.0085 122.365C74.585 129.864 73.2429 159.019 73.2429 159.019Z" fill="#BFE7F3" stroke="#1B2D59" stroke-width="4.01786" stroke-linecap="round" stroke-linejoin="round"/>
<path d="M64.9741 111.987C64.9743 114.624 64.1925 117.202 62.7276 119.394C61.2626 121.587 59.1804 123.296 56.7441 124.306C54.3079 125.315 51.627 125.579 49.0406 125.065C46.4542 124.551 44.0783 123.281 42.2135 121.416C40.3487 119.552 39.0786 117.176 38.564 114.59C38.0494 112.003 38.3132 109.322 39.3222 106.886C40.3312 104.45 42.04 102.367 44.2325 100.902C46.4251 99.4367 49.0029 98.6545 51.6399 98.6543C53.3922 98.6496 55.1281 98.9912 56.7479 99.6595C58.3677 100.328 59.8395 101.31 61.0786 102.549C62.3177 103.787 63.2997 105.259 63.9683 106.879C64.6368 108.499 64.9786 110.234 64.9741 111.987Z" fill="#BFE7F3" stroke="#1B2D59" stroke-width="4.01786" stroke-linecap="round" stroke-linejoin="round"/>
<path d="M140.919 159.019H98.6624C98.6624 159.019 97.8723 131.102 111.624 122.878C113.993 124.55 116.842 125.405 119.74 125.312C122.638 125.219 125.427 124.185 127.685 122.365C142.261 129.864 140.919 159.019 140.919 159.019Z" fill="#BFE7F3" stroke="#1B2D59" stroke-width="4.01786" stroke-linecap="round" stroke-linejoin="round"/>
<path d="M132.65 111.987C132.651 114.624 131.869 117.202 130.404 119.394C128.939 121.587 126.857 123.296 124.42 124.306C121.984 125.315 119.303 125.579 116.717 125.065C114.13 124.551 111.755 123.281 109.89 121.416C108.025 119.552 106.755 117.176 106.24 114.59C105.726 112.003 105.989 109.322 106.998 106.886C108.007 104.45 109.716 102.367 111.909 100.902C114.101 99.4367 116.679 98.6545 119.316 98.6543C121.068 98.6496 122.804 98.9912 124.424 99.6595C126.044 100.328 127.516 101.31 128.755 102.549C129.994 103.787 130.976 105.259 131.645 106.879C132.313 108.499 132.655 110.234 132.65 111.987Z" fill="#BFE7F3" stroke="#1B2D59" stroke-width="4.01786" stroke-linecap="round" stroke-linejoin="round"/>
<path d="M107.081 159.019H64.8243C64.8243 159.019 64.0342 131.102 77.7856 122.878C80.1545 124.55 83.0039 125.405 85.9019 125.312C88.8 125.219 91.589 124.185 93.8464 122.365C108.423 129.864 107.081 159.019 107.081 159.019Z" fill="#BFE7F3" stroke="#1B2D59" stroke-width="4.01786" stroke-linecap="round" stroke-linejoin="round"/>
<path d="M98.8125 111.987C98.8127 114.624 98.0309 117.202 96.5659 119.394C95.101 121.587 93.0188 123.296 90.5825 124.306C88.1462 125.315 85.4654 125.579 82.879 125.065C80.2925 124.551 77.9167 123.281 76.0519 121.416C74.1871 119.552 72.917 117.176 72.4024 114.59C71.8877 112.003 72.1516 109.322 73.1606 106.886C74.1696 104.45 75.8784 102.367 78.0709 100.902C80.2635 99.4367 82.8412 98.6545 85.4783 98.6543C87.2306 98.6496 88.9665 98.9912 90.5863 99.6595C92.2061 100.328 93.6778 101.31 94.917 102.549C96.1561 103.787 97.1381 105.259 97.8066 106.879C98.4752 108.499 98.817 110.234 98.8125 111.987Z" fill="#BFE7F3" stroke="#1B2D59" stroke-width="4.01786" stroke-linecap="round" stroke-linejoin="round"/>
<path d="M54.6745 62.5482L50.4553 78.2909L68.9805 62.5482H102.717C109.04 62.5482 114.165 57.1083 114.165 50.398V25.4405C114.165 18.7301 109.04 13.2903 102.717 13.2903H54.7307C48.4082 13.2903 43.2827 18.7301 43.2827 25.4405V50.398C43.2827 57.1083 48.4082 62.5482 54.7307 62.5482" fill="#7FCFE7"/>
<path d="M54.6745 62.5482L50.4553 78.2909L68.9805 62.5482H102.717C109.04 62.5482 114.165 57.1083 114.165 50.398V25.4405C114.165 18.7301 109.04 13.2903 102.717 13.2903H54.7307C48.4082 13.2903 43.2827 18.7301 43.2827 25.4405V50.398C43.2827 57.1083 48.4082 62.5482 54.7307 62.5482" stroke="#012A5D" stroke-width="4.01786" stroke-linecap="round" stroke-linejoin="round"/>
<path d="M119.096 76.016L122.348 88.8079L108.069 76.016H82.0633C77.1896 76.016 73.2388 71.2401 73.2388 65.3486V43.4368C73.2388 37.5453 77.1896 32.7693 82.0633 32.7693H119.053C123.926 32.7693 127.877 37.5453 127.877 43.4368V65.3486C127.877 71.2401 123.926 76.016 119.053 76.016" fill="#7FCFE7"/>
<path d="M119.096 76.016L122.348 88.8079L108.069 76.016H82.0633C77.1896 76.016 73.2388 71.2401 73.2388 65.3486V43.4367C73.2388 37.5453 77.1896 32.7693 82.0633 32.7693H119.053C123.926 32.7693 127.877 37.5453 127.877 43.4367V65.3486C127.877 71.2401 123.926 76.016 119.053 76.016" stroke="#012A5D" stroke-width="4.01786" stroke-linecap="round" stroke-linejoin="round"/>
</svg>
