<svg width="212" height="165" viewBox="0 0 212 165" fill="none" xmlns="http://www.w3.org/2000/svg">
<path d="M146.242 55.4872H23.5466C22.7329 55.4872 21.9525 55.8104 21.3771 56.3858C20.8018 56.9612 20.4785 57.7416 20.4785 58.5553V140.196C20.4785 141.01 20.8018 141.791 21.3771 142.366C21.9525 142.941 22.7329 143.265 23.5466 143.265H146.271C147.085 143.265 147.865 142.941 148.441 142.366C149.016 141.791 149.339 141.01 149.339 140.196V58.5553C149.339 58.1499 149.259 57.7486 149.103 57.3744C148.947 57.0002 148.718 56.6607 148.43 56.3754C148.142 56.0901 147.801 55.8648 147.425 55.7123C147.05 55.5598 146.647 55.4833 146.242 55.4872V55.4872Z" stroke="#28406B" stroke-width="6.31448" stroke-linejoin="round"/>
<path d="M81.8286 143.265H145.628C147.576 143.367 149.431 144.129 150.888 145.427L165.036 159.506C166.205 160.674 165.825 161.668 164.142 161.668H5.66922C3.98614 161.668 3.5829 160.698 4.78092 159.506L18.9235 145.427C20.3796 144.129 22.235 143.367 24.1831 143.265H81.8286Z" stroke="#28406B" stroke-width="6.31448" stroke-linejoin="round"/>
<path d="M140.286 65.7556H29.5068V132.997H140.286V65.7556Z" fill="#BFE7F3" stroke="#1B2E5B" stroke-width="3.78285" stroke-linejoin="round"/>
<path d="M127.511 75.5388H69.8184V112.526H127.511V75.5388Z" fill="white" stroke="#28406B" stroke-width="3.78285" stroke-linejoin="round"/>
<path d="M55.9273 114.595C57.4299 114.595 58.8988 114.149 60.1481 113.314C61.3975 112.479 62.3712 111.293 62.9463 109.905C63.5213 108.517 63.6717 106.989 63.3786 105.515C63.0854 104.042 62.3619 102.688 61.2994 101.625C60.2369 100.563 58.8832 99.8393 57.4095 99.5461C55.9357 99.253 54.4082 99.4034 53.02 99.9785C51.6318 100.553 50.4452 101.527 49.6104 102.777C48.7756 104.026 48.3301 105.495 48.3301 106.997C48.3301 109.012 49.1305 110.945 50.5552 112.369C51.98 113.794 53.9124 114.595 55.9273 114.595Z" fill="white" stroke="#1A2D59" stroke-width="3.78285" stroke-linecap="round" stroke-linejoin="round"/>
<path d="M42.2471 133.003C42.6943 129.47 44.3034 126.185 46.8212 123.666C49.3391 121.147 52.6228 119.537 56.1559 119.088C60.9909 118.589 65.601 116.792 69.4978 113.887C69.4978 113.887 74.2782 111.631 74.2782 116.54C74.2782 122.758 67.3764 126.983 67.3764 126.983L70.3861 133.003H42.2471Z" fill="white" stroke="#1A2D59" stroke-width="3.78285" stroke-linecap="round" stroke-linejoin="round"/>
<path d="M73.7061 113.448L87.3051 93.719" stroke="#1A2D59" stroke-width="3.78285" stroke-linecap="round" stroke-linejoin="round"/>
<path d="M148.775 40.9129L146.792 43.4991H150.051H162.914V66.638V68.2459H164.521H191.855H193.463V66.638V53.6149V43.4991H205.177H208.442L206.452 40.911L178.846 5.01878L177.569 3.35917L176.295 5.02068L148.775 40.9129Z" fill="#BFE7F3" stroke="#012A5D" stroke-width="3.21571"/>
<rect x="163.143" y="73.2994" width="30.3195" height="8.26896" fill="#BFE7F3" stroke="#012A5D" stroke-width="3.21571"/>
<rect x="163.143" y="87.5401" width="30.3195" height="6.8908" fill="#BFE7F3" stroke="#012A5D" stroke-width="3.21571"/>
</svg>
