<svg width="150" height="168" viewBox="0 0 150 168" fill="none" xmlns="http://www.w3.org/2000/svg">
<path d="M21.8752 159.472C21.8752 159.472 145.392 183.896 147.136 117.951C147.136 117.951 147.834 107.832 135.971 107.832C124.108 107.832 126.55 115.857 120.619 122.138C117.214 125.743 99.8163 127.8 99.8163 127.8C99.8163 120.822 90.0467 121.869 90.0467 121.869L72.252 121.171C49.9213 115.239 22.7059 130.243 22.7059 130.243L21.8752 159.472Z" fill="white"/>
<path d="M99.8163 127.8C99.8163 127.8 117.214 125.743 120.619 122.138C126.55 115.857 124.108 107.832 135.971 107.832C147.834 107.832 147.136 117.951 147.136 117.951C145.392 183.896 21.8752 159.472 21.8752 159.472L22.7059 130.243C22.7059 130.243 49.9213 115.239 72.252 121.171L90.0467 121.869C90.0467 121.869 99.8163 120.822 99.8163 127.8ZM99.8163 127.8C99.8163 134.779 97.7228 137.221 90.0467 137.221H60.0399" stroke="#012A5D" stroke-width="4.56412" stroke-linecap="round" stroke-linejoin="round"/>
<path d="M23.2366 124.58H2.99951V165.403H23.2366V124.58Z" fill="#7FCFE7" stroke="#012A5D" stroke-width="4.56412" stroke-linecap="round" stroke-linejoin="round"/>
<path d="M124.783 16.8991H106.376L87.5937 2.99976H62.5505L43.7681 16.8991H25.3613C21.6674 16.8991 18.7249 19.8468 18.7249 23.5471V86.7672C18.7249 90.4675 21.6674 93.8542 25.3613 93.8542H124.783C128.477 93.8542 131.419 90.4675 131.419 86.7672V23.5471C131.419 19.8468 128.477 16.8991 124.783 16.8991Z" fill="#BFE7F3" stroke="#012A5D" stroke-width="4.56412" stroke-linejoin="round"/>
<circle cx="72.0731" cy="56.2218" r="24.6462" fill="#7FCFE7" stroke="#012A5D" stroke-width="4.56412"/>
<circle cx="109.042" cy="36.5962" r="7.759" fill="#7FCFE7" stroke="#012A5D" stroke-width="4.56412"/>
</svg>
