<svg width="114" height="100" viewBox="0 0 114 100" fill="none" xmlns="http://www.w3.org/2000/svg">
<path d="M17.2699 66.4001H2V97.2032H17.2699V66.4001Z" stroke="#1B2E5B" stroke-width="4" stroke-linecap="round" stroke-linejoin="round"/>
<path d="M18.0918 71.9288C18.0918 71.9288 38.6271 60.6081 55.4766 65.0837L68.9036 65.6102C68.9036 65.6102 76.2753 64.8204 76.2753 70.0859C76.2753 75.3514 74.6956 77.1943 68.9036 77.1943H46.2621" stroke="#1B2E5B" stroke-width="4" stroke-linecap="round" stroke-linejoin="round"/>
<path d="M17.3027 92.7274C17.3027 92.7274 110.502 111.157 111.818 61.3979C111.818 61.3979 112.344 53.7629 103.393 53.7629C94.4419 53.7629 96.2848 59.8182 91.8092 64.5572C89.2399 67.2775 76.1129 68.8297 76.1129 68.8297" stroke="#1B2E5B" stroke-width="4" stroke-linecap="round" stroke-linejoin="round"/>
<path d="M84.2764 27.9913L88.6175 23.6502C89.6786 22.5891 90.2747 21.15 90.2747 19.6495C90.2747 18.149 89.6786 16.7099 88.6175 15.6488V15.6488C87.5565 14.5878 86.1174 13.9917 84.6169 13.9917C83.1163 13.9917 81.6772 14.5878 80.6162 15.6488L76.275 19.99L71.9339 15.6488C70.8728 14.5878 69.4337 13.9917 67.9332 13.9917C66.4326 13.9917 64.9936 14.5878 63.9325 15.6488C62.8715 16.7099 62.2754 18.149 62.2754 19.6495C62.2754 21.15 62.8715 22.5891 63.9325 23.6502L76.275 35.9927L84.2764 27.9913Z" stroke="#1B2E5B" stroke-width="2.40758" stroke-linecap="round" stroke-linejoin="round"/>
<path d="M76.2733 44.1326C87.9079 44.1326 97.3397 34.7009 97.3397 23.0663C97.3397 11.4317 87.9079 2 76.2733 2C64.6387 2 55.207 11.4317 55.207 23.0663C55.207 34.7009 64.6387 44.1326 76.2733 44.1326Z" stroke="#1B2E5B" stroke-width="4" stroke-linecap="round" stroke-linejoin="round"/>
<path d="M35.165 55.9295C42.7108 55.9295 48.828 49.8124 48.828 42.2665C48.828 34.7207 42.7108 28.6035 35.165 28.6035C27.6191 28.6035 21.502 34.7207 21.502 42.2665C21.502 49.8124 27.6191 55.9295 35.165 55.9295Z" stroke="#1B2E5B" stroke-width="4" stroke-linecap="round" stroke-linejoin="round"/>
<path d="M35.2254 35.4653L37.3989 39.8693L42.2591 40.5757L38.7421 44.0038L39.5725 48.8442L35.2254 46.559L30.8783 48.8442L31.7084 44.0038L28.1914 40.5757L33.0518 39.8693L35.2254 35.4653Z" stroke="#1B2E5B" stroke-width="2.40758" stroke-linecap="round" stroke-linejoin="round"/>
</svg>
