<svg width="184" height="175" viewBox="0 0 184 175" fill="none" xmlns="http://www.w3.org/2000/svg">
<path d="M99.6892 64.8294V56.311L91.1272 56.7008C90.4615 52.5293 88.7993 48.58 86.2815 45.1882L94.7647 38.1205L88.9931 31.8549L80.1703 39.2314C76.9266 36.9953 73.2261 35.5088 69.3369 34.8796V25.6646H60.8491V34.8796C57.5396 35.4235 54.365 36.5969 51.4973 38.3364L44.3616 30.8787L38.0651 36.6812L44.9848 43.8919C41.9461 47.5223 39.9417 51.9043 39.1824 56.5772L29.8779 56.716V65.2347L39.1824 65.0958C39.8531 69.1688 41.4706 73.0275 43.9046 76.3614L35.4035 83.4169L41.1752 89.6823L49.985 82.3492C53.2287 84.6449 56.9561 86.1654 60.88 86.7936L60.8337 95.4758H69.3523L69.3987 86.7936C73.3343 86.1548 77.0717 84.6239 80.3246 82.3183L87.3715 90.2399L93.606 84.4682L86.405 76.2997C88.8052 73.0223 90.4016 69.2268 91.0656 65.2192L99.6892 64.8294ZM64.7976 77.0817C61.612 77.0845 58.4972 76.1426 55.847 74.3751C53.1968 72.6076 51.1302 70.0939 49.9086 67.1519C48.687 64.2099 48.3652 60.9718 48.9839 57.8469C49.6027 54.722 51.1342 51.8508 53.3847 49.5964C55.6353 47.3419 58.5038 45.8054 61.6276 45.1812C64.7514 44.557 67.9901 44.8732 70.9342 46.0897C73.8783 47.3061 76.3956 49.3683 78.1677 52.0155C79.9398 54.6626 80.8871 57.7758 80.8899 60.9613C80.892 63.0765 80.4773 65.1714 79.6697 67.1263C78.862 69.0812 77.6772 70.8579 76.1829 72.3548C74.6885 73.8518 72.9139 75.0397 70.9604 75.8507C69.0069 76.6618 66.9128 77.0801 64.7976 77.0817Z" fill="#D3D2D3" stroke="#012A5D" stroke-width="2.7338" stroke-linecap="round" stroke-linejoin="round"/>
<path d="M27.1172 117.74V153.256C27.1172 153.256 75.5734 171.777 103.355 171.777C131.136 171.777 181.531 144.876 181.531 136.477C181.531 128.078 145.263 137.564 132.428 139.061C113.046 141.322 84.1876 139.276 84.1876 131.523C84.1876 123.77 98.0116 118.284 102.709 114.833C110.256 109.288 109.977 103.527 104.324 102.234C95.7282 100.27 63.5924 113.931 56.1908 117.74C49.1785 121.349 27.1172 117.74 27.1172 117.74Z" fill="white" stroke="#012A5D" stroke-width="4.58931" stroke-linejoin="round"/>
<path d="M28.492 106.423H3.87389C3.24024 106.423 2.72656 106.936 2.72656 107.57V166.347C2.72656 166.98 3.24024 167.494 3.87389 167.494H28.492C29.1257 167.494 29.6394 166.98 29.6394 166.347V107.57C29.6394 106.936 29.1257 106.423 28.492 106.423Z" fill="#BFE7F3"/>
<path d="M28.492 106.423H3.87389C3.24024 106.423 2.72656 106.936 2.72656 107.57V166.347C2.72656 166.98 3.24024 167.494 3.87389 167.494H28.492C29.1257 167.494 29.6394 166.98 29.6394 166.347V107.57C29.6394 106.936 29.1257 106.423 28.492 106.423Z" stroke="#012A5D" stroke-width="4.58931" stroke-linejoin="round"/>
<path d="M128.261 84.6602C128.615 84.8648 129.016 84.9726 129.424 84.9726C129.832 84.9726 130.233 84.8648 130.586 84.6602C130.586 84.6602 132.861 83.1783 154.591 67.2242C176.321 51.2702 179.759 38.9547 179.759 29.4383C179.759 19.9218 174.357 2.84814 156.924 2.84814C139.491 2.84814 130.03 22.3126 130.03 22.3126C129.697 22.9989 129.151 22.9989 128.817 22.3126C128.817 22.3126 119.357 2.84814 101.924 2.84814C84.4907 2.84814 79.0889 19.9218 79.0889 29.4383C79.0889 38.9547 82.5264 51.2701 104.256 67.2242C125.986 83.1783 128.261 84.6602 128.261 84.6602Z" fill="#BFE7F3"/>
<path d="M128.261 84.6602C128.615 84.8648 129.016 84.9726 129.424 84.9726C129.832 84.9726 130.233 84.8648 130.586 84.6602C130.586 84.6602 132.861 83.1783 154.591 67.2242C176.321 51.2702 179.759 38.9547 179.759 29.4383C179.759 19.9218 174.357 2.84814 156.924 2.84814C139.491 2.84814 130.03 22.3126 130.03 22.3126C129.697 22.9989 129.151 22.9989 128.817 22.3126C128.817 22.3126 119.357 2.84814 101.924 2.84814C84.4907 2.84814 79.0889 19.9218 79.0889 29.4383C79.0889 38.9547 82.5264 51.2702 104.256 67.2242C125.986 83.1783 128.261 84.6602 128.261 84.6602Z" stroke="#012A5D" stroke-width="3.69974" stroke-linejoin="round"/>
<path d="M129.421 40.6206C135.064 40.6206 139.639 36.0456 139.639 30.4022C139.639 24.7588 135.064 20.1838 129.421 20.1838C123.778 20.1838 119.203 24.7588 119.203 30.4022C119.203 36.0456 123.778 40.6206 129.421 40.6206Z" fill="white" stroke="#012A5D" stroke-width="3.69974" stroke-linejoin="round"/>
<path d="M150.565 61.6029C150.565 61.6029 145.426 45.4509 129.42 45.4509C113.414 45.4509 108.157 61.5037 108.157 61.5037L129.423 77.5564L150.565 61.6029Z" fill="white" stroke="#012A5D" stroke-width="3.69974" stroke-linejoin="round"/>
</svg>
