<svg width="213" height="213" viewBox="0 0 213 213" fill="none" xmlns="http://www.w3.org/2000/svg">
<circle cx="105.634" cy="106.482" r="102.24" fill="white" stroke="white" stroke-width="2.98482"/>
<circle cx="106.058" cy="106.058" r="87.3918" fill="white" stroke="white" stroke-width="2.55134"/>
<path d="M156.085 56.8472H59.8979V118.513H156.085V56.8472Z" fill="#C7E4EF" stroke="#1A2D59" stroke-width="3.97086" stroke-linejoin="round"/>
<path d="M172.502 134.556L139.415 87.2033" stroke="#1A2D59" stroke-width="3.97086" stroke-linecap="round" stroke-linejoin="round"/>
<path d="M139.355 138.794H71.6964C71.3493 138.795 71.0167 138.933 70.7715 139.179C70.5264 139.425 70.3887 139.758 70.3887 140.105V140.509C70.3887 140.856 70.5264 141.188 70.7717 141.434C71.0169 141.679 71.3495 141.817 71.6964 141.817H139.355C139.701 141.817 140.034 141.679 140.279 141.434C140.525 141.188 140.662 140.856 140.662 140.509V140.105C140.662 139.758 140.525 139.425 140.28 139.179C140.034 138.933 139.702 138.795 139.355 138.794Z" fill="white"/>
<path d="M171.39 151.726H39.8779V162.797H171.39V151.726Z" fill="#C7E4EF" stroke="#1B2E5B" stroke-width="2.9825" stroke-linecap="round" stroke-linejoin="round"/>
<path d="M133.003 127.157C139.827 127.157 145.36 121.824 145.36 115.253C145.36 108.681 139.827 103.356 133.003 103.356C126.178 103.356 120.647 108.689 120.647 115.253C120.647 121.816 126.179 127.157 133.003 127.157Z" fill="#7FCFE7" stroke="#012A5D" stroke-width="2.55123" stroke-linecap="round" stroke-linejoin="round"/>
<path d="M112.336 153.598C112.336 153.598 111.193 128.941 133.004 130.184C154.815 131.427 152.968 153.598 152.968 153.598H112.336Z" fill="#7FCFE7" stroke="#012A5D" stroke-width="2.55123" stroke-linecap="round" stroke-linejoin="round"/>
<path d="M79.759 126.943C86.5836 126.943 92.1147 121.61 92.1147 115.038C92.1147 108.466 86.5836 103.134 79.759 103.134C72.9343 103.134 67.4087 108.464 67.4087 115.038C67.4087 121.612 72.9343 126.943 79.759 126.943Z" fill="#7FCFE7" stroke="#012A5D" stroke-width="2.55123" stroke-linecap="round" stroke-linejoin="round"/>
<path d="M59.0909 153.383C59.0909 153.383 57.9477 128.726 79.759 129.968C101.57 131.21 99.7228 153.383 99.7228 153.383H59.0909Z" fill="#7FCFE7" stroke="#012A5D" stroke-width="2.55123" stroke-linecap="round" stroke-linejoin="round"/>
<path d="M106.356 131.022C113.181 131.022 118.713 125.69 118.713 119.118C118.713 112.546 113.181 107.213 106.356 107.213C99.5316 107.213 94.0005 112.546 94.0005 119.118C94.0005 125.69 99.5329 131.022 106.356 131.022Z" fill="#7FCFE7" stroke="#012A5D" stroke-width="2.55123" stroke-linecap="round" stroke-linejoin="round"/>
<path d="M85.6895 157.464C85.6895 157.464 84.5464 132.807 106.358 134.053C128.169 135.298 126.321 157.467 126.321 157.467L85.6895 157.464Z" fill="#7FCFE7" stroke="#012A5D" stroke-width="2.55123" stroke-linecap="round" stroke-linejoin="round"/>
<path d="M105.634 207.025C161.631 207.025 207.026 161.631 207.026 105.634C207.026 49.6367 161.631 4.24219 105.634 4.24219C49.6372 4.24219 4.24268 49.6367 4.24268 105.634C4.24268 161.631 49.6372 207.025 105.634 207.025Z" stroke="#012A5D" stroke-width="3.99179" stroke-linecap="round" stroke-linejoin="round"/>
<path d="M106.086 193.275C154.24 193.275 193.276 154.239 193.276 106.086C193.276 57.9322 154.24 18.896 106.086 18.896C57.9327 18.896 18.8965 57.9322 18.8965 106.086C18.8965 154.239 57.9327 193.275 106.086 193.275Z" stroke="#012A5D" stroke-width="4.51968" stroke-linecap="round" stroke-linejoin="round"/>
<path d="M40.8682 105.006C35.7738 105.006 31.6404 100.872 31.6404 95.7782C31.6404 79.4494 38.2718 64.6707 48.9445 53.9806C59.6517 43.2737 74.4297 36.6599 90.7587 36.6599C95.853 36.6599 99.9865 40.7934 99.9865 45.8877C99.9865 50.982 95.853 55.1154 90.7587 55.1154C79.5246 55.1154 69.3575 59.6646 62.0013 67.0208C54.6451 74.377 50.0959 84.5441 50.0959 95.7782C50.0959 100.872 45.9625 105.006 40.8682 105.006Z" fill="#E9E9E9" stroke="#012A5D" stroke-width="1.92524"/>
</svg>
