<svg width="239" height="160" viewBox="0 0 239 160" fill="none" xmlns="http://www.w3.org/2000/svg">
<path d="M207.493 4.0002H31.8515C30.6867 4.0002 29.5696 4.46293 28.7459 5.28661C27.9222 6.11028 27.4595 7.22742 27.4595 8.39227V125.263C27.4595 126.428 27.9222 127.545 28.7459 128.369C29.5696 129.193 30.6867 129.655 31.8515 129.655H207.534C208.699 129.655 209.816 129.193 210.64 128.369C211.464 127.545 211.926 126.428 211.926 125.263V8.39227C211.926 7.81196 211.812 7.23738 211.588 6.70177C211.365 6.16615 211.038 5.68012 210.625 5.27172C210.213 4.86333 209.724 4.54069 209.186 4.32245C208.648 4.1042 208.073 3.99467 207.493 4.0002V4.0002Z" stroke="#012A5D" stroke-width="6.02963" stroke-linejoin="round"/>
<path d="M115.283 129.656H206.613C209.402 129.801 212.058 130.893 214.143 132.751L234.396 152.905C236.069 154.578 235.526 156 233.116 156H6.25951C3.85014 156 3.2729 154.611 4.98789 152.905L25.2333 132.751C27.3178 130.893 29.9737 129.801 32.7625 129.656H115.283Z" stroke="#012A5D" stroke-width="6.02963" stroke-linejoin="round"/>
<path d="M198.967 18.7H40.3838V114.957H198.967V18.7Z" fill="#BFE7F3" stroke="#012A5D" stroke-width="3.61221" stroke-linejoin="round"/>
<path d="M180.678 32.7043H98.0903V85.6518H180.678V32.7043Z" fill="white" stroke="#012A5D" stroke-width="3.61221" stroke-linejoin="round"/>
<path d="M78.2057 88.6138C80.3567 88.6138 82.4594 87.9759 84.2479 86.7809C86.0364 85.5859 87.4303 83.8873 88.2534 81.9001C89.0766 79.9128 89.292 77.7261 88.8723 75.6164C88.4527 73.5068 87.4169 71.5689 85.8959 70.048C84.3749 68.527 82.4371 67.4912 80.3274 67.0715C78.2178 66.6519 76.031 66.8673 74.0438 67.6904C72.0565 68.5136 70.358 69.9075 69.1629 71.696C67.9679 73.4845 67.3301 75.5872 67.3301 77.7382C67.3301 80.6226 68.4759 83.3888 70.5155 85.4284C72.555 87.4679 75.3213 88.6138 78.2057 88.6138Z" fill="white" stroke="#012A5D" stroke-width="3.61221" stroke-linecap="round" stroke-linejoin="round"/>
<path d="M58.6206 114.965C59.2609 109.907 61.5643 105.206 65.1686 101.6C68.7729 97.9941 73.4736 95.6887 78.5313 95.0463C85.4527 94.3324 92.0522 91.7597 97.6306 87.6007C97.6306 87.6007 104.474 84.3715 104.474 91.3988C104.474 100.3 94.5938 106.349 94.5938 106.349L98.9022 114.965H58.6206Z" fill="white" stroke="#012A5D" stroke-width="3.61221" stroke-linecap="round" stroke-linejoin="round"/>
<path d="M103.655 86.9729L123.122 58.7297" stroke="#012A5D" stroke-width="3.61221" stroke-linecap="round" stroke-linejoin="round"/>
</svg>
