<svg width="140" height="140" viewBox="0 0 140 140" fill="none" xmlns="http://www.w3.org/2000/svg">
<circle cx="70" cy="70" r="70" fill="#D9D9D9"/>
<path d="M84.622 60.839H68.4185C65.1671 60.839 62.5312 63.4748 62.5312 66.7263V78.7682C62.5312 82.0197 65.1671 84.6555 68.4185 84.6555H84.622C87.8734 84.6555 90.5093 82.0197 90.5093 78.7682V66.7263C90.5093 63.4748 87.8734 60.839 84.622 60.839Z" fill="#9EDDD5" stroke="#1B2D59" stroke-width="2" stroke-linecap="round" stroke-linejoin="round"/>
<path d="M67.3528 67.817H76.9631C77.876 67.817 78.7516 68.1797 79.3971 68.8252C80.0427 69.4708 80.4053 70.3463 80.4053 71.2593V76.5584C80.4053 76.87 80.2816 77.1689 80.0612 77.3893C79.8408 77.6096 79.5419 77.7334 79.2303 77.7334H69.62C68.7071 77.7334 67.8315 77.3708 67.186 76.7252C66.5404 76.0797 66.1777 75.2041 66.1777 74.2912V68.9921C66.1777 68.6804 66.3015 68.3815 66.5219 68.1612C66.7423 67.9408 67.0411 67.817 67.3528 67.817Z" fill="#E4E3E3" stroke="#1B2D59" stroke-width="0.926" stroke-linecap="round" stroke-linejoin="round"/>
<path d="M81.5918 70.8703L86.8535 68.174L86.8561 77.8431L81.5918 75.1147V70.8703Z" fill="#E4E3E3" stroke="#1B2D59" stroke-width="0.926" stroke-linecap="round" stroke-linejoin="round"/>
<path d="M103.039 92.3487C103.039 92.3487 111.327 76.2215 100.064 64.1274" stroke="#1B2E5B" stroke-width="2" stroke-linecap="round" stroke-linejoin="round"/>
<path d="M112.227 91.9651H28.7754V100.055H112.227V91.9651Z" fill="#D6EEEB" stroke="#1B2E5B" stroke-width="2" stroke-linecap="round" stroke-linejoin="round"/>
<path d="M89.3617 100.056H49.4688V113.255H89.3617V100.056Z" fill="#D6EEEB" stroke="#1B2E5B" stroke-width="2" stroke-linecap="round" stroke-linejoin="round"/>
<path d="M95.385 54.8207L91.0645 58.8445L98.2658 66.5779L102.586 62.5541L95.385 54.8207Z" fill="#D6EEEB" stroke="#1B2E5B" stroke-width="2" stroke-linecap="round" stroke-linejoin="round"/>
<path d="M39.9653 85.1394C40.5734 85.1394 41.1678 84.9591 41.6735 84.6212C42.1791 84.2834 42.5732 83.8032 42.8059 83.2414C43.0386 82.6796 43.0995 82.0614 42.9809 81.4649C42.8622 80.8685 42.5694 80.3207 42.1394 79.8907C41.7094 79.4607 41.1615 79.1678 40.5651 79.0492C39.9687 78.9306 39.3505 78.9914 38.7887 79.2242C38.2268 79.4569 37.7466 79.851 37.4088 80.3566C37.071 80.8622 36.8906 81.4567 36.8906 82.0648C36.8906 82.8802 37.2146 83.6623 37.7912 84.2389C38.3678 84.8155 39.1498 85.1394 39.9653 85.1394Z" fill="#E4E3E3" stroke="#1B2D59" stroke-width="2" stroke-linecap="round" stroke-linejoin="round"/>
<path d="M83.4418 54.7284C84.0499 54.7284 84.6444 54.5481 85.15 54.2102C85.6556 53.8724 86.0497 53.3922 86.2824 52.8304C86.5152 52.2686 86.576 51.6503 86.4574 51.0539C86.3388 50.4575 86.0459 49.9096 85.6159 49.4796C85.1859 49.0497 84.6381 48.7568 84.0417 48.6382C83.4452 48.5195 82.827 48.5804 82.2652 48.8131C81.7034 49.0459 81.2232 49.4399 80.8854 49.9456C80.5475 50.4512 80.3672 51.0456 80.3672 51.6538C80.3672 52.4692 80.6911 53.2513 81.2677 53.8279C81.8443 54.4045 82.6264 54.7284 83.4418 54.7284Z" fill="#E4E3E3" stroke="#1B2D59" stroke-width="2" stroke-linecap="round" stroke-linejoin="round"/>
<path d="M43.0352 82.0687H52.5853C57.3122 82.0687 56.7869 77.3418 56.7869 77.3418V58.5423C56.7869 51.1898 61.6221 51.6644 61.6221 51.6644L80.3721 51.6577" stroke="#1B2D59" stroke-width="0.684" stroke-linecap="round" stroke-linejoin="round" stroke-dasharray="5.2 5.2"/>
<path d="M87.6774 40.2187L87.6841 44.062C87.684 44.2196 87.6536 44.3758 87.5946 44.5219C87.4728 44.8164 87.2391 45.0505 86.9449 45.1729C86.7998 45.2341 86.6438 45.2655 86.4863 45.2652L80.6418 45.2759C80.4841 45.2769 80.3278 45.2465 80.182 45.1863C79.9626 45.0952 79.7751 44.9413 79.643 44.7438C79.511 44.5464 79.4404 44.3143 79.44 44.0767L79.432 40.2348C77.984 39.3409 76.8667 37.9995 76.2496 36.4136C75.6324 34.8278 75.549 33.084 76.012 31.4465C76.4749 29.809 77.459 28.367 78.8152 27.3391C80.1713 26.3111 81.8255 25.7532 83.5272 25.7499C85.2289 25.7466 86.8853 26.298 88.2454 27.3207C89.6056 28.3434 90.5953 29.7815 91.0646 31.4172C91.5339 33.0529 91.4573 34.797 90.8463 36.3852C90.2354 37.9735 89.1233 39.3193 87.6788 40.2187H87.6774Z" fill="#9EDDD5" stroke="#1A305E" stroke-width="2" stroke-linecap="round" stroke-linejoin="round"/>
<path d="M82.1435 41.9954L82.1328 35.8461" stroke="#1A305E" stroke-width="0.926" stroke-linecap="round" stroke-linejoin="round"/>
<path d="M85.0048 42.0181L84.9941 35.8688" stroke="#1A305E" stroke-width="0.926" stroke-linecap="round" stroke-linejoin="round"/>
<path d="M87.6966 41.9954L79.4512 42.0101" stroke="#1A305E" stroke-width="0.926" stroke-linecap="round" stroke-linejoin="round"/>
<path d="M37.2031 45.86C37.3198 45.2849 37.6371 44.7699 38.0985 44.4072C38.5599 44.0445 39.1352 43.8577 39.7217 43.8802C40.9114 43.8802 42.0651 44.6195 42.0651 46.0098C42.0651 46.5873 41.6132 47.1875 41.1627 47.765C40.7122 48.3425 40.2604 48.9173 40.2604 49.4186V50.0442H38.8822V48.8171C38.8822 48.2155 40.4863 46.6113 40.4863 45.8854C40.4766 45.6847 40.3883 45.4959 40.2404 45.3598C40.0926 45.2237 39.8971 45.1513 39.6963 45.1582C39.4205 45.1923 39.1651 45.3208 38.9733 45.5218C38.7815 45.7228 38.6653 45.9841 38.6442 46.2611L37.2031 45.86ZM38.6816 53.0521V51.2728H40.4556V53.0521H38.6816Z" fill="#1A2D59"/>
<path d="M43.0098 43.1048C43.086 42.7331 43.2916 42.4005 43.59 42.166C43.8883 41.9315 44.2601 41.8104 44.6393 41.8242C45.4107 41.8242 46.1566 42.3028 46.1566 43.2024C46.1566 43.5754 45.8638 43.9657 45.5724 44.3387C45.281 44.7117 44.9882 45.0846 44.9882 45.4082V45.8092H44.0966V45.0071C44.0966 44.6181 45.134 43.5794 45.134 43.1088C45.1311 43.0446 45.1156 42.9815 45.0883 42.9232C45.061 42.8649 45.0225 42.8126 44.9749 42.7693C44.8799 42.6801 44.7535 42.632 44.6233 42.6356C44.4451 42.6576 44.2799 42.7406 44.1559 42.8704C44.0319 43.0003 43.9566 43.1691 43.9429 43.3481L43.0098 43.1048ZM43.9669 47.7609V46.6059H45.1179V47.7583L43.9669 47.7609Z" fill="#1A2D59"/>
<path d="M33.1836 43.2399C33.2596 42.8677 33.4653 42.5345 33.7639 42.2998C34.0626 42.065 34.4349 41.9439 34.8145 41.9579C35.5845 41.9579 36.3304 42.4365 36.3304 43.3375C36.3304 43.7104 36.039 44.0994 35.7476 44.4724C35.4562 44.8454 35.1634 45.2184 35.1634 45.5419V45.9429H34.2704V45.1488C34.2704 44.7585 35.3091 43.7211 35.3091 43.2506C35.3025 43.1209 35.2454 42.999 35.1499 42.911C35.0544 42.823 34.9282 42.776 34.7985 42.78C34.62 42.8023 34.4547 42.8854 34.3304 43.0155C34.2062 43.1456 34.1307 43.3146 34.1167 43.4939L33.1836 43.2399ZM34.1407 47.8946V46.7396H35.2931V47.8906L34.1407 47.8946Z" fill="#1A2D59"/>
<path d="M39.9348 65.3213C42.9239 65.3213 45.3462 62.9872 45.3462 60.1077C45.3462 57.2282 42.9239 54.8942 39.9348 54.8942C36.9457 54.8942 34.5234 57.2282 34.5234 60.1077C34.5234 62.9872 36.9457 65.3213 39.9348 65.3213Z" fill="#9EDDD5" stroke="#012A5D" stroke-width="2" stroke-linecap="round" stroke-linejoin="round"/>
<path d="M30.8834 76.8993C30.8834 76.8993 30.3834 66.1006 39.9349 66.6446C49.4864 67.1887 48.6776 76.8993 48.6776 76.8993H30.8834Z" fill="#9EDDD5" stroke="#012A5D" stroke-width="2" stroke-linecap="round" stroke-linejoin="round"/>
</svg>
