<svg width="140" height="140" viewBox="0 0 140 140" fill="none" xmlns="http://www.w3.org/2000/svg">
<circle cx="70" cy="70" r="70" fill="#D9D9D9"/>
<path d="M114.003 49.8437L114.078 105.998L43.651 106.094L43.627 87.3785L66.3179 87.3478L66.2925 68.6204L89.3644 68.4052L89.339 49.6899L114.003 49.8437Z" fill="#9EDDD5" stroke="#012A5D" stroke-width="2" stroke-linecap="round" stroke-linejoin="round"/>
<path d="M103.285 37.9702L81.6413 37.9983L81.6693 59.0597L58.7525 59.0904L58.445 80.1518L38.9062 80.1785" stroke="#012A5D" stroke-width="2" stroke-linecap="round" stroke-linejoin="round"/>
<path d="M103.399 45.6541L103.332 30.1953L112.5 37.8405L103.399 45.6541Z" fill="#E4E3E3" stroke="#012A5D" stroke-width="2" stroke-linecap="round" stroke-linejoin="round"/>
<path d="M40.8153 68.218L46.2561 78.5689L58.4211 80.2279L49.6169 88.2848L51.6956 99.661L40.8153 94.2897L29.9311 99.661L32.0098 88.2848L23.2109 80.2279L35.3759 78.5689L40.8153 68.218Z" fill="#D6EEEB" stroke="#012A5D" stroke-width="2" stroke-linecap="round" stroke-linejoin="round"/>
</svg>
