<svg width="140" height="140" viewBox="0 0 140 140" fill="none" xmlns="http://www.w3.org/2000/svg">
<circle cx="70" cy="70" r="70" fill="#D9D9D9"/>
<path d="M96.429 63.9998C103.101 63.9998 108.51 58.7862 108.51 52.3615C108.51 45.9368 103.101 40.7313 96.429 40.7313C89.757 40.7313 84.3496 45.9449 84.3496 52.3615C84.3496 58.7782 89.7583 63.9998 96.429 63.9998Z" fill="#D6EEEB" stroke="#012A5D" stroke-width="2" stroke-linecap="round" stroke-linejoin="round"/>
<path d="M76.223 89.8496C76.223 89.8496 75.1054 65.7443 96.4288 66.9595C117.752 68.1746 115.946 89.8496 115.946 89.8496H76.223Z" fill="#D6EEEB" stroke="#012A5D" stroke-width="2" stroke-linecap="round" stroke-linejoin="round"/>
<path d="M44.3768 63.7899C51.0488 63.7899 56.4561 58.5763 56.4561 52.1517C56.4561 45.727 51.0488 40.5134 44.3768 40.5134C37.7048 40.5134 32.3027 45.7243 32.3027 52.1517C32.3027 58.579 37.7048 63.7899 44.3768 63.7899Z" fill="#D6EEEB" stroke="#012A5D" stroke-width="2" stroke-linecap="round" stroke-linejoin="round"/>
<path d="M24.1702 89.6397C24.1702 89.6397 23.0526 65.5344 44.376 66.7482C65.6994 67.962 63.8934 89.6397 63.8934 89.6397H24.1702Z" fill="#D6EEEB" stroke="#012A5D" stroke-width="2" stroke-linecap="round" stroke-linejoin="round"/>
<path d="M58.5234 53.3441C58.5234 53.3441 55.9834 60.0522 48.8008 60.8195" stroke="#012A5D" stroke-width="2" stroke-linecap="round" stroke-linejoin="round"/>
<path d="M47.9558 59.9425H45.2688C45.1558 59.9446 45.0442 59.9689 44.9406 60.0141C44.8369 60.0593 44.7432 60.1245 44.6647 60.206C44.5863 60.2874 44.5246 60.3835 44.4833 60.4888C44.442 60.594 44.4219 60.7064 44.424 60.8194C44.4219 60.9324 44.442 61.0447 44.4834 61.1499C44.5247 61.2551 44.5864 61.3511 44.6648 61.4325C44.7433 61.5138 44.837 61.5788 44.9407 61.6239C45.0443 61.669 45.1558 61.6931 45.2688 61.6951H47.9558C48.1839 61.6908 48.401 61.5963 48.5594 61.4321C48.7179 61.2679 48.8046 61.0476 48.8007 60.8194C48.8046 60.5912 48.7179 60.3707 48.5595 60.2063C48.4011 60.042 48.184 59.9471 47.9558 59.9425Z" fill="#9EDDD5" stroke="#012A5D" stroke-width="2" stroke-linecap="round" stroke-linejoin="round"/>
<path d="M29.8833 46.5129C28.723 46.5129 27.7832 47.4888 27.7832 48.6906V56.1072C27.7832 57.3103 28.719 58.2849 29.8833 58.2849C31.0477 58.2849 31.9834 57.3103 31.9834 56.1072V48.6906C31.9834 47.4888 31.0437 46.5129 29.8833 46.5129Z" fill="#9EDDD5" stroke="#012A5D" stroke-width="2" stroke-linecap="round" stroke-linejoin="round"/>
<path d="M58.9595 46.5129C57.7991 46.5129 56.8594 47.4888 56.8594 48.6906V56.1072C56.8594 57.3103 57.7951 58.2849 58.9595 58.2849C60.1239 58.2849 61.0596 57.3103 61.0596 56.1072V48.6906C61.0596 47.4888 60.1198 46.5129 58.9595 46.5129Z" fill="#9EDDD5" stroke="#012A5D" stroke-width="2" stroke-linecap="round" stroke-linejoin="round"/>
<path d="M29.8828 46.3098C29.8828 46.3098 30.5806 33.915 44.0997 33.8949C57.4023 33.8762 58.957 46.3098 58.957 46.3098" stroke="#012A5D" stroke-width="2" stroke-linecap="round" stroke-linejoin="round"/>
<path d="M70.3782 67.7789C77.0502 67.7789 82.4589 62.5654 82.4589 56.1407C82.4589 49.716 77.0502 44.5024 70.3782 44.5024C63.7062 44.5024 58.2988 49.716 58.2988 56.1407C58.2988 62.5654 63.7075 67.7789 70.3782 67.7789Z" fill="#D6EEEB" stroke="#012A5D" stroke-width="2" stroke-linecap="round" stroke-linejoin="round"/>
<path d="M50.1741 93.6287C50.1741 93.6287 49.0566 69.5235 70.3799 70.7413C91.7033 71.9591 89.8973 93.6314 89.8973 93.6314L50.1741 93.6287Z" fill="#D6EEEB" stroke="#012A5D" stroke-width="2" stroke-linecap="round" stroke-linejoin="round"/>
<path d="M111.054 77.5589C111.582 78.3423 111.582 79.1992 111.574 79.651C111.491 84.3592 109.716 89.2346 108.788 94.658C108.564 95.9694 108.361 97.4733 107.141 98.52C106.036 99.4705 104.674 99.5467 103.469 99.5975C100.967 99.7031 97.876 99.7726 94.288 99.7312L83.1417 99.921H82.9492V78.2527H83.1925C84.1606 77.6814 85.0787 77.0294 85.937 76.3036C87.2116 75.2449 88.3432 74.0249 89.3031 72.6742C92.2053 68.6143 93.7626 66.6907 95.0607 64.4368C97.0766 60.9344 97.2691 58.6979 98.4254 58.6792C99.6285 58.6605 100.52 60.9437 100.641 61.2485C101.536 63.5278 100.705 65.7415 100.463 66.3845C100.419 66.5022 100.463 66.3672 99.2222 68.7761C98.5177 70.141 98.1206 70.927 97.8051 72.0526C97.4616 73.2891 97.5298 73.8199 97.6287 74.1781C97.6781 74.3626 97.9174 75.2288 98.6981 75.6847C99.2649 76.0189 99.8531 75.9748 100.203 75.9521C101.765 75.8424 103.225 75.7074 104.79 75.6379C106.315 75.5697 107.338 75.6967 108.533 76.0389C109.311 76.2675 110.406 76.5977 111.054 77.5589Z" fill="#E4E3E3"/>
<path d="M82.9469 99.9183V102.109H72.7324V76.1312H82.9469V78.2527V99.9183Z" fill="#9EDDD5"/>
<path d="M82.9469 99.9183V102.109H72.7324V76.1312H82.9469V78.2527V99.9183Z" stroke="#012A5D" stroke-width="2" stroke-linecap="round" stroke-linejoin="round"/>
<path d="M83.1905 78.2527C84.1585 77.6814 85.0766 77.0294 85.935 76.3036C87.2096 75.2449 88.3411 74.0249 89.301 72.6742C92.2032 68.6143 93.7606 66.6907 95.0587 64.4368C97.0746 60.9344 97.2671 58.6979 98.4234 58.6792C99.6265 58.6605 100.518 60.9437 100.638 61.2485C101.534 63.5278 100.703 65.7415 100.461 66.3845C100.417 66.5022 100.461 66.3672 99.2201 68.7761C98.5156 70.141 98.1186 70.927 97.8031 72.0526C97.4596 73.2891 97.5277 73.8199 97.6267 74.1781C97.6761 74.3626 97.9154 75.2288 98.6961 75.6847C99.2629 76.0189 99.8511 75.9748 100.201 75.9521C101.763 75.8424 103.223 75.7074 104.788 75.6379C106.313 75.5697 107.336 75.6967 108.531 76.039C109.32 76.2675 110.415 76.5977 111.063 77.5629C111.591 78.3463 111.591 79.2032 111.583 79.655C111.5 84.3632 109.725 89.2386 108.797 94.662C108.572 95.9734 108.369 97.4773 107.15 98.524C106.045 99.4745 104.682 99.5507 103.478 99.6015C100.975 99.7071 97.8847 99.7766 94.2967 99.7352L83.1504 99.925" stroke="#012A5D" stroke-width="2" stroke-linecap="round" stroke-linejoin="round"/>
</svg>
