<svg width="140" height="140" viewBox="0 0 140 140" fill="none" xmlns="http://www.w3.org/2000/svg">
<circle cx="70" cy="70" r="70" fill="#D9D9D9"/>
<path d="M77.5447 50.6856V46.1684L73.0044 46.375C72.6515 44.1632 71.7702 42.0692 70.4353 40.2707L74.9319 36.5228L71.873 33.2014L67.1942 37.1122C65.4747 35.926 63.5128 35.1372 61.4508 34.8031V29.9189H56.9543V34.8044C55.1992 35.0923 53.5159 35.7149 51.9959 36.6382L48.2079 32.6837L44.8683 35.7596L48.5385 39.5828C46.9268 41.5077 45.8639 43.8314 45.4614 46.3094L40.5273 46.3835V50.9007L45.4614 50.8266C45.817 52.9861 46.6744 55.032 47.9648 56.7997L43.4574 60.5415L46.5174 63.8629L51.189 59.974C52.9092 61.191 54.8857 61.9971 56.9664 62.3304L56.9421 66.9339H61.4581L61.4836 62.3304C63.5703 61.9912 65.5519 61.1793 67.2768 59.957L71.0126 64.1582L74.3194 61.0969L70.501 56.7656C71.7731 55.0279 72.6193 53.0156 72.9716 50.891L77.5447 50.6856ZM59.0433 57.1825C56.9205 57.1853 54.8725 56.3984 53.2977 54.9748C51.723 53.5512 50.7341 51.5927 50.5234 49.4804C50.3127 47.368 50.8954 45.2528 52.1579 43.5462C53.4205 41.8396 55.2728 40.6637 57.3544 40.2473C59.436 39.8308 61.598 40.2035 63.42 41.293C65.242 42.3824 66.5936 44.1106 67.2119 46.1414C67.8302 48.1722 67.6709 50.3604 66.7651 52.2803C65.8593 54.2002 64.2717 55.7145 62.3112 56.5287C61.2754 56.959 60.165 57.1812 59.0433 57.1825Z" fill="#9EDDD5" stroke="#012A5D" stroke-width="2" stroke-linecap="round" stroke-linejoin="round"/>
<path d="M76.0254 32.6825C80.5547 28.1531 87.2679 27.5236 92.9688 33.2233" stroke="#012A5D" stroke-width="1.17044" stroke-linecap="round" stroke-linejoin="round"/>
<path d="M78.3008 36.231C81.5905 32.9425 86.4662 32.4843 90.6067 36.6248" stroke="#012A5D" stroke-width="1.17044" stroke-linecap="round" stroke-linejoin="round"/>
<path d="M81.3008 39.635C83.0022 37.9337 85.5105 37.704 87.6445 39.838" stroke="#012A5D" stroke-width="1.17044" stroke-linecap="round" stroke-linejoin="round"/>
<path d="M84.48 43.8485C85.0774 43.8485 85.5616 43.3643 85.5616 42.7669C85.5616 42.1696 85.0774 41.6853 84.48 41.6853C83.8827 41.6853 83.3984 42.1696 83.3984 42.7669C83.3984 43.3643 83.8827 43.8485 84.48 43.8485Z" fill="#012A5D"/>
<path d="M111.717 69.3875H28.2812V72.484H111.717V69.3875Z" fill="#D6EEEB" stroke="#012A5D" stroke-width="2" stroke-linecap="round" stroke-linejoin="round"/>
<path d="M91.791 42.542H67.3518C67.1906 42.542 67.0361 42.606 66.9221 42.72C66.8082 42.8339 66.7441 42.9885 66.7441 43.1496V59.4137C66.7441 59.5749 66.8082 59.7294 66.9221 59.8434C67.0361 59.9573 67.1906 60.0213 67.3518 60.0213H91.791C91.9522 60.0213 92.1067 59.9573 92.2207 59.8434C92.3346 59.7294 92.3986 59.5749 92.3986 59.4137V43.1521C92.399 43.0721 92.3835 42.9928 92.3531 42.9188C92.3227 42.8448 92.278 42.7775 92.2215 42.7208C92.1651 42.6641 92.098 42.6192 92.0241 42.5885C91.9502 42.5578 91.871 42.542 91.791 42.542Z" fill="#D6EEEB" stroke="#012A5D" stroke-width="1.17044" stroke-linecap="round" stroke-linejoin="round"/>
<path d="M91.791 42.542H67.3518C67.1906 42.542 67.0361 42.606 66.9221 42.72C66.8082 42.8339 66.7441 42.9885 66.7441 43.1496V59.4137C66.7441 59.5749 66.8082 59.7294 66.9221 59.8434C67.0361 59.9573 67.1906 60.0213 67.3518 60.0213H91.791C91.9522 60.0213 92.1067 59.9573 92.2207 59.8434C92.3346 59.7294 92.3986 59.5749 92.3986 59.4137V43.1521C92.399 43.0721 92.3835 42.9928 92.3531 42.9188C92.3227 42.8448 92.278 42.7775 92.2215 42.7208C92.1651 42.6641 92.098 42.6192 92.0241 42.5885C91.9502 42.5578 91.871 42.542 91.791 42.542Z" fill="#D6EEEB" stroke="#012A5D" stroke-width="2" stroke-linecap="round" stroke-linejoin="round"/>
<path d="M78.9608 60.025H91.6678C92.046 60.0403 92.4104 60.1714 92.7117 60.4005L95.5287 62.8505C95.7718 63.0571 95.6867 63.2261 95.3501 63.2261H63.7918C63.4551 63.2261 63.3761 63.0571 63.6131 62.8505L66.4301 60.3993C66.7314 60.1701 67.0958 60.0391 67.474 60.0238L78.9608 60.025Z" fill="#D6EEEB" stroke="#012A5D" stroke-width="2" stroke-linecap="round" stroke-linejoin="round"/>
<path d="M95.3496 63.2673H63.7912C63.6301 63.2673 63.4755 63.3314 63.3616 63.4453C63.2476 63.5593 63.1836 63.7138 63.1836 63.875V64.0633C63.1836 64.2245 63.2476 64.3791 63.3616 64.493C63.4755 64.607 63.6301 64.671 63.7912 64.671H95.3496C95.5107 64.671 95.6653 64.607 95.7792 64.493C95.8932 64.3791 95.9572 64.2245 95.9572 64.0633V63.875C95.9572 63.7138 95.8932 63.5593 95.7792 63.4453C95.6653 63.3314 95.5107 63.2673 95.3496 63.2673Z" fill="#D6EEEB" stroke="#012A5D" stroke-width="2" stroke-linecap="round" stroke-linejoin="round"/>
<path d="M90.6032 44.5862H68.541V57.9798H90.6032V44.5862Z" fill="#E4E3E3" stroke="#012A5D" stroke-width="1.17044" stroke-linecap="round" stroke-linejoin="round"/>
<path d="M64.0459 76.0168H30.8457V110.971H64.0459V76.0168Z" fill="#9EDDD5" stroke="#012A5D" stroke-width="2" stroke-linecap="round" stroke-linejoin="round"/>
<path d="M109.153 76.1687H75.9531V111.123H109.153V76.1687Z" fill="#9EDDD5" stroke="#012A5D" stroke-width="2" stroke-linecap="round" stroke-linejoin="round"/>
<path d="M47.0827 92.5969C50.4441 92.5969 53.17 89.9707 53.17 86.732C53.17 83.4933 50.4441 80.8671 47.0827 80.8671C43.7212 80.8671 40.9941 83.4933 40.9941 86.732C40.9941 89.9707 43.72 92.5969 47.0827 92.5969Z" fill="#D6EEEB" stroke="#012A5D" stroke-width="2" stroke-linecap="round" stroke-linejoin="round"/>
<path d="M36.8996 105.623C36.8996 105.623 36.3369 93.4707 47.0824 94.0881C57.8279 94.7054 56.9176 105.623 56.9176 105.623H36.8996Z" fill="#D6EEEB" stroke="#012A5D" stroke-width="2" stroke-linecap="round" stroke-linejoin="round"/>
<path d="M92.9604 92.7161C96.323 92.7161 99.0489 90.0911 99.0489 86.8511C99.0489 83.6112 96.323 80.9862 92.9604 80.9862C89.5977 80.9862 86.873 83.6112 86.873 86.8511C86.873 90.0911 89.5989 92.7161 92.9604 92.7161Z" fill="#D6EEEB" stroke="#012A5D" stroke-width="2" stroke-linecap="round" stroke-linejoin="round"/>
<path d="M82.7785 105.743C82.7785 105.743 82.2146 93.5898 92.9601 94.2072C103.706 94.8246 102.795 105.743 102.795 105.743H82.7785Z" fill="#D6EEEB" stroke="#012A5D" stroke-width="2" stroke-linecap="round" stroke-linejoin="round"/>
<path d="M100.308 86.4609C100.308 86.4609 98.9862 89.8297 95.248 90.2137" stroke="#012A5D" stroke-width="1.17044" stroke-linecap="round" stroke-linejoin="round"/>
<path d="M94.8087 89.7738H93.4087C93.292 89.7738 93.1801 89.8201 93.0976 89.9027C93.0151 89.9852 92.9688 90.0971 92.9688 90.2137C92.9688 90.3304 93.0151 90.4423 93.0976 90.5248C93.1801 90.6073 93.292 90.6537 93.4087 90.6537H94.8087C94.9254 90.6537 95.0373 90.6073 95.1198 90.5248C95.2023 90.4423 95.2486 90.3304 95.2486 90.2137C95.2486 90.0971 95.2023 89.9852 95.1198 89.9027C95.0373 89.8201 94.9254 89.7738 94.8087 89.7738Z" fill="#E4E3E3" stroke="#012A5D" stroke-width="1.17044" stroke-linecap="round" stroke-linejoin="round"/>
<path d="M85.4043 84.4789C85.1142 84.4789 84.836 84.5941 84.6309 84.7992C84.4258 85.0043 84.3105 85.2826 84.3105 85.5726V89.2962C84.3105 89.5863 84.4258 89.8645 84.6309 90.0696C84.836 90.2748 85.1142 90.39 85.4043 90.39C85.6944 90.39 85.9726 90.2748 86.1777 90.0696C86.3828 89.8645 86.498 89.5863 86.498 89.2962V85.5714C86.4977 85.2815 86.3823 85.0037 86.1773 84.7988C85.9722 84.5939 85.6942 84.4789 85.4043 84.4789Z" fill="#E4E3E3" stroke="#012A5D" stroke-width="1.17044" stroke-linecap="round" stroke-linejoin="round"/>
<path d="M100.535 84.4789C100.245 84.4789 99.9669 84.5941 99.7618 84.7992C99.5566 85.0043 99.4414 85.2826 99.4414 85.5726V89.2962C99.4414 89.5863 99.5566 89.8645 99.7618 90.0696C99.9669 90.2748 100.245 90.39 100.535 90.39C100.825 90.39 101.103 90.2748 101.309 90.0696C101.514 89.8645 101.629 89.5863 101.629 89.2962V85.5714C101.629 85.2815 101.513 85.0037 101.308 84.7988C101.103 84.5939 100.825 84.4789 100.535 84.4789Z" fill="#E4E3E3" stroke="#012A5D" stroke-width="1.17044" stroke-linecap="round" stroke-linejoin="round"/>
<path d="M85.4023 84.3769C85.4023 84.3769 85.7669 78.1534 92.8022 78.1437C99.7293 78.134 100.535 84.3769 100.535 84.3769" stroke="#012A5D" stroke-width="1.17044" stroke-linecap="round" stroke-linejoin="round"/>
</svg>
