<svg width="178" height="178" viewBox="0 0 178 178" fill="none" xmlns="http://www.w3.org/2000/svg">
<path d="M89.1033 3.05566C41.5358 3.05566 2.97949 41.6176 2.97949 89.1851C2.97685 100.497 5.20256 111.698 9.5295 122.149C13.8564 132.601 20.1999 142.097 28.1974 150.097C36.195 158.096 45.6902 164.442 56.1405 168.771C66.5908 173.101 77.7916 175.329 89.1033 175.329C100.415 175.329 111.616 173.101 122.066 168.771C132.516 164.442 142.011 158.096 150.009 150.097C158.007 142.097 164.35 132.601 168.677 122.149C173.004 111.698 175.23 100.497 175.227 89.1851C175.227 41.6176 136.671 3.05566 89.1033 3.05566ZM89.1033 147.189C77.6306 147.189 66.4157 143.786 56.8768 137.412C47.3379 131.037 39.9035 121.978 35.5136 111.378C31.1237 100.778 29.9755 89.115 32.2143 77.8629C34.453 66.6107 39.9782 56.2752 48.091 48.1631C56.2038 40.0511 66.5399 34.527 77.7923 32.2893C89.0446 30.0517 100.708 31.201 111.307 35.5919C121.906 39.9828 130.965 47.4182 137.339 56.9577C143.712 66.4972 147.114 77.7124 147.113 89.1851C147.112 104.569 140.999 119.323 130.12 130.201C119.242 141.078 104.487 147.189 89.1033 147.189Z" fill="#C5E5F0" stroke="#012A5D" stroke-width="5" stroke-linecap="round" stroke-linejoin="round"/>
</svg>
