<svg width="75" height="82" viewBox="0 0 75 82" fill="none" xmlns="http://www.w3.org/2000/svg">
<path fill-rule="evenodd" clip-rule="evenodd" d="M19.7363 11.8701C15.838 11.8701 12.6777 15.0304 12.6777 18.9287V63.2239C12.6777 67.1223 15.838 70.2825 19.7363 70.2825H47.2822L63.5271 79.5018L60.1743 70.2825H66.8711C70.7694 70.2825 73.9296 67.1223 73.9296 63.2239V18.9287C73.9296 15.0303 70.7694 11.8701 66.871 11.8701H19.7363Z" fill="#BFE7F3"/>
<path d="M47.2822 70.2825L47.7406 69.4748L47.5274 69.3537H47.2822V70.2825ZM63.5271 79.5018L63.0687 80.3096L65.2617 81.5542L64.3999 79.1844L63.5271 79.5018ZM60.1743 70.2825V69.3537H58.8483L59.3015 70.5999L60.1743 70.2825ZM13.6065 18.9287C13.6065 15.5433 16.3509 12.7989 19.7363 12.7989V10.9414C15.325 10.9414 11.749 14.5174 11.749 18.9287H13.6065ZM13.6065 63.2239V18.9287H11.749V63.2239H13.6065ZM19.7363 69.3537C16.3509 69.3537 13.6065 66.6093 13.6065 63.2239H11.749C11.749 67.6352 15.325 71.2113 19.7363 71.2113V69.3537ZM47.2822 69.3537H19.7363V71.2113H47.2822V69.3537ZM46.8238 71.0903L63.0687 80.3096L63.9855 78.6941L47.7406 69.4748L46.8238 71.0903ZM64.3999 79.1844L61.0472 69.9651L59.3015 70.5999L62.6543 79.8192L64.3999 79.1844ZM66.8711 69.3537H60.1743V71.2113H66.8711V69.3537ZM73.0009 63.2239C73.0009 66.6093 70.2565 69.3537 66.8711 69.3537V71.2113C71.2823 71.2113 74.8584 67.6352 74.8584 63.2239H73.0009ZM73.0009 18.9287V63.2239H74.8584V18.9287H73.0009ZM66.871 12.7989C70.2564 12.7989 73.0009 15.5433 73.0009 18.9287H74.8584C74.8584 14.5174 71.2823 10.9414 66.871 10.9414V12.7989ZM19.7363 12.7989H66.871V10.9414H19.7363V12.7989Z" fill="#1B2E5B"/>
<circle cx="15.7889" cy="15.7889" r="14.8601" fill="#F1F1F1" stroke="#1A2D59" stroke-width="1.85752"/>
<path d="M15.8505 14.9563C18.0242 14.9563 19.7858 13.282 19.7858 11.2186C19.7858 9.15532 18.0242 7.48096 15.8505 7.48096C13.6769 7.48096 11.917 9.15446 11.917 11.2186C11.917 13.2828 13.6769 14.9563 15.8505 14.9563Z" fill="#7FCFE7" stroke="#012A5D" stroke-width="1.85752" stroke-linecap="round" stroke-linejoin="round"/>
<path d="M9.48078 22.353C9.48078 22.353 9.12037 14.5792 15.9971 14.9706C22.8739 15.3621 22.2915 22.353 22.2915 22.353H9.48078Z" fill="#7FCFE7" stroke="#012A5D" stroke-width="1.85752" stroke-linecap="round" stroke-linejoin="round"/>
<line x1="59.998" y1="22.5384" x2="38.4508" y2="22.5384" stroke="#1A2D59" stroke-width="1.85752" stroke-linecap="round"/>
<line x1="59.998" y1="28.4822" x2="38.4508" y2="28.4822" stroke="#1A2D59" stroke-width="1.85752" stroke-linecap="round"/>
<line x1="59.998" y1="39.9988" x2="25.8197" y2="39.9988" stroke="#1A2D59" stroke-width="1.85752" stroke-linecap="round"/>
<line x1="59.998" y1="45.5716" x2="25.8197" y2="45.5716" stroke="#1A2D59" stroke-width="1.85752" stroke-linecap="round"/>
<line x1="59.998" y1="51.5157" x2="25.8197" y2="51.5157" stroke="#1A2D59" stroke-width="1.85752" stroke-linecap="round"/>
<line x1="59.998" y1="57.0882" x2="25.8197" y2="57.0882" stroke="#1A2D59" stroke-width="1.85752" stroke-linecap="round"/>
</svg>
