<svg width="88" height="78" viewBox="0 0 88 78" fill="none" xmlns="http://www.w3.org/2000/svg">
<path d="M75.7232 16.5709H11.5214C11.0957 16.5709 10.6873 16.7433 10.3862 17.0501C10.0852 17.3569 9.91602 17.7731 9.91602 18.207V61.7441C9.91602 62.178 10.0852 62.5942 10.3862 62.901C10.6873 63.2079 11.0957 63.3802 11.5214 63.3802H75.7385C76.1643 63.3802 76.5726 63.2079 76.8737 62.901C77.1748 62.5942 77.3439 62.178 77.3439 61.7441V18.207C77.3439 17.9908 77.3019 17.7768 77.2203 17.5773C77.1386 17.3777 77.019 17.1967 76.8683 17.0445C76.7176 16.8924 76.5388 16.7722 76.3422 16.6909C76.1457 16.6096 75.9353 16.5688 75.7232 16.5709Z" fill="#F1F1F1" stroke="#1B2E5B" stroke-width="1.85752" stroke-miterlimit="10"/>
<path d="M42.2988 63.3804H75.735C76.756 63.4326 77.7283 63.8252 78.4915 64.4935L85.9064 71.7406C86.519 72.3423 86.3199 72.8537 85.4378 72.8537H2.38483C1.50275 72.8537 1.29142 72.3543 1.91929 71.7406L9.33118 64.4935C10.0943 63.8252 11.0667 63.4326 12.0877 63.3804H42.2988Z" fill="#F1F1F1" stroke="#1B2E5B" stroke-width="1.85752" stroke-miterlimit="10"/>
<path d="M86.3141 71.739H2.61768C2.18836 71.7399 1.77691 71.9184 1.47362 72.2355C1.17034 72.5525 0.999999 72.9822 1 73.4301V73.9519C1 74.3996 1.17043 74.8289 1.47381 75.1454C1.77718 75.462 2.18865 75.6398 2.61768 75.6398H86.3141C86.7432 75.6398 87.1547 75.462 87.458 75.1454C87.7614 74.8289 87.9318 74.3996 87.9318 73.9519V73.4301C87.9318 72.9822 87.7615 72.5525 87.4582 72.2355C87.1549 71.9184 86.7435 71.7399 86.3141 71.739Z" fill="white"/>
<path d="M85.2863 71.5579H2.59819C2.17405 71.559 1.76755 71.7987 1.46792 72.2243C1.16829 72.65 0.999999 73.2268 1 73.8282V74.5287C1 75.1297 1.16838 75.7061 1.4681 76.131C1.76782 76.556 2.17433 76.7947 2.59819 76.7947H85.2863C85.7101 76.7947 86.1166 76.556 86.4164 76.131C86.7161 75.7061 86.8844 75.1297 86.8844 74.5287V73.8282C86.8844 73.2268 86.7162 72.65 86.4165 72.2243C86.1169 71.7987 85.7104 71.559 85.2863 71.5579Z" fill="#F1F1F1" stroke="#1B2E5B" stroke-width="1.85752" stroke-linejoin="round"/>
<path d="M72.8852 22.5149H14.9307V57.0647H72.8852V22.5149Z" fill="#BFE7F3" stroke="#1B2E5B" stroke-width="1.85752" stroke-linejoin="round"/>
<rect x="27.1915" y="7.0977" width="57.9545" height="22.6617" rx="11.3309" fill="#7FCFE7" stroke="#1B2E5B" stroke-width="1.85752"/>
<path d="M39.9558 16.5955C39.9242 16.2762 39.7883 16.0282 39.5482 15.8514C39.3081 15.6746 38.9822 15.5862 38.5706 15.5862C38.2909 15.5862 38.0548 15.6258 37.8622 15.705C37.6695 15.7815 37.5218 15.8884 37.4189 16.0256C37.3186 16.1628 37.2685 16.3184 37.2685 16.4926C37.2632 16.6377 37.2936 16.7643 37.3595 16.8725C37.4281 16.9807 37.5218 17.0744 37.6405 17.1535C37.7593 17.23 37.8965 17.2973 38.0521 17.3554C38.2078 17.4108 38.374 17.4583 38.5508 17.4978L39.279 17.672C39.6326 17.7511 39.9571 17.8567 40.2527 17.9886C40.5482 18.1205 40.8041 18.2828 41.0205 18.4754C41.2368 18.668 41.4044 18.8949 41.5231 19.1562C41.6445 19.4174 41.7065 19.7168 41.7091 20.0546C41.7065 20.5506 41.5798 20.9807 41.3292 21.3448C41.0812 21.7063 40.7223 21.9873 40.2527 22.1878C39.7856 22.3857 39.2223 22.4846 38.5627 22.4846C37.9083 22.4846 37.3384 22.3844 36.8529 22.1839C36.3701 21.9833 35.9928 21.6865 35.721 21.2934C35.4519 20.8976 35.3107 20.4081 35.2975 19.825H36.9558C36.9743 20.0968 37.0521 20.3237 37.1893 20.5058C37.3292 20.6852 37.5152 20.8211 37.7474 20.9134C37.9822 21.0031 38.2474 21.048 38.5429 21.048C38.8331 21.048 39.0851 21.0058 39.2988 20.9213C39.5152 20.8369 39.6827 20.7195 39.8015 20.5691C39.9202 20.4187 39.9796 20.2459 39.9796 20.0506C39.9796 19.8686 39.9255 19.7155 39.8173 19.5915C39.7118 19.4675 39.5561 19.362 39.3503 19.2749C39.1471 19.1878 38.8978 19.1087 38.6023 19.0374L37.7197 18.8158C37.0363 18.6496 36.4967 18.3897 36.101 18.0361C35.7052 17.6825 35.5086 17.2063 35.5112 16.6073C35.5086 16.1166 35.6392 15.6878 35.9031 15.3211C36.1696 14.9543 36.535 14.668 36.9994 14.4622C37.4637 14.2564 37.9914 14.1535 38.5825 14.1535C39.1841 14.1535 39.7091 14.2564 40.1577 14.4622C40.6089 14.668 40.9598 14.9543 41.2104 15.3211C41.4611 15.6878 41.5904 16.1126 41.5983 16.5955H39.9558ZM47.8684 14.2643H49.5821V19.5282C49.5821 20.1192 49.441 20.6364 49.1587 21.0796C48.879 21.5229 48.4871 21.8686 47.9832 22.1166C47.4792 22.362 46.8922 22.4846 46.222 22.4846C45.5492 22.4846 44.9608 22.362 44.4568 22.1166C43.9529 21.8686 43.561 21.5229 43.2814 21.0796C43.0017 20.6364 42.8618 20.1192 42.8618 19.5282V14.2643H44.5755V19.3818C44.5755 19.6905 44.6428 19.9649 44.7774 20.205C44.9146 20.4451 45.1072 20.6337 45.3552 20.7709C45.6032 20.9081 45.8922 20.9767 46.222 20.9767C46.5544 20.9767 46.8434 20.9081 47.0887 20.7709C47.3368 20.6337 47.528 20.4451 47.6626 20.205C47.7998 19.9649 47.8684 19.6905 47.8684 19.3818V14.2643ZM50.9921 22.3699V14.2643H54.2375C54.8338 14.2643 55.3311 14.3527 55.7296 14.5295C56.128 14.7063 56.4274 14.9517 56.628 15.2657C56.8285 15.577 56.9288 15.9358 56.9288 16.3422C56.9288 16.6588 56.8654 16.9372 56.7388 17.1773C56.6121 17.4147 56.438 17.61 56.2164 17.763C55.9974 17.9134 55.7467 18.0203 55.4644 18.0836V18.1628C55.7731 18.1759 56.062 18.263 56.3311 18.424C56.6029 18.5849 56.8232 18.8105 56.9921 19.1007C57.1609 19.3883 57.2454 19.7314 57.2454 20.1298C57.2454 20.5598 57.1385 20.9438 56.9248 21.2815C56.7137 21.6166 56.4011 21.8817 55.9868 22.077C55.5726 22.2722 55.062 22.3699 54.4551 22.3699H50.9921ZM52.7058 20.9688H54.1029C54.5805 20.9688 54.9288 20.8778 55.1478 20.6957C55.3668 20.511 55.4763 20.2657 55.4763 19.9596C55.4763 19.7353 55.4222 19.5374 55.314 19.3659C55.2058 19.1944 55.0515 19.0599 54.8509 18.9622C54.653 18.8646 54.4169 18.8158 54.1425 18.8158H52.7058V20.9688ZM52.7058 17.6562H53.9763C54.2111 17.6562 54.4195 17.6153 54.6016 17.5335C54.7863 17.449 54.9314 17.3303 55.0369 17.1773C55.1451 17.0242 55.1992 16.8409 55.1992 16.6271C55.1992 16.3343 55.095 16.0981 54.8865 15.9187C54.6807 15.7393 54.3879 15.6496 54.0079 15.6496H52.7058V17.6562ZM58.3605 14.2643H60.4739L62.7061 19.7102H62.8011L65.0333 14.2643H67.1468V22.3699H65.4845V17.0942H65.4172L63.3196 22.3303H62.1877L60.09 17.0744H60.0228V22.3699H58.3605V14.2643ZM70.2724 14.2643V22.3699H68.5587V14.2643H70.2724ZM71.3737 15.6773V14.2643H78.0306V15.6773H75.5491V22.3699H73.8552V15.6773H71.3737Z" fill="#1B2E5B"/>
<path fill-rule="evenodd" clip-rule="evenodd" d="M29.5656 30.407L42.277 24.3205L42.5098 38.4119L38.0045 35.6258L32.8436 43.9709L29.1597 41.6926L34.3205 33.3475L29.5656 30.407Z" fill="#F1F1F1"/>
<path d="M42.277 24.3205L41.8759 23.4828L43.1817 22.8576L43.2056 24.3052L42.277 24.3205ZM29.5656 30.407L29.0771 31.1969L27.6319 30.3031L29.1645 29.5693L29.5656 30.407ZM42.5098 38.4119L43.4384 38.3966L43.4665 40.0956L42.0213 39.2019L42.5098 38.4119ZM38.0045 35.6258L37.2146 35.1373L37.7031 34.3474L38.493 34.8359L38.0045 35.6258ZM32.8436 43.9709L33.6336 44.4594L33.1451 45.2493L32.3551 44.7608L32.8436 43.9709ZM29.1597 41.6926L28.6712 42.4825L27.8813 41.994L28.3698 41.2041L29.1597 41.6926ZM34.3205 33.3475L34.809 32.5576L35.5989 33.0461L35.1104 33.836L34.3205 33.3475ZM42.6781 25.1582L29.9667 31.2446L29.1645 29.5693L41.8759 23.4828L42.6781 25.1582ZM41.5811 38.4273L41.3483 24.3358L43.2056 24.3052L43.4384 38.3966L41.5811 38.4273ZM38.493 34.8359L42.9983 37.622L42.0213 39.2019L37.516 36.4157L38.493 34.8359ZM32.0537 43.4824L37.2146 35.1373L38.7944 36.1143L33.6336 44.4594L32.0537 43.4824ZM29.6482 40.9027L33.3322 43.181L32.3551 44.7608L28.6712 42.4825L29.6482 40.9027ZM35.1104 33.836L29.9496 42.1811L28.3698 41.2041L33.5306 32.859L35.1104 33.836ZM30.0541 29.6171L34.809 32.5576L33.832 34.1374L29.0771 31.1969L30.0541 29.6171Z" fill="#1B2E5B"/>
<line x1="0.928759" y1="-0.928759" x2="6.66051" y2="-0.928759" transform="matrix(-1 6.9521e-08 6.9521e-08 1 24.9043 12.0811)" stroke="#012A5D" stroke-width="1.85752" stroke-linecap="round"/>
<line x1="0.928759" y1="-0.928759" x2="6.6605" y2="-0.928759" transform="matrix(-0.841178 -0.540758 -0.540758 0.841178 24.2734 9.01196)" stroke="#012A5D" stroke-width="1.85752" stroke-linecap="round"/>
<line x1="0.928759" y1="-0.928759" x2="6.66051" y2="-0.928759" transform="matrix(-0.5 -0.866025 -0.866025 0.5 26.9746 7.57251)" stroke="#012A5D" stroke-width="1.85752" stroke-linecap="round"/>
</svg>
