<svg width="68" height="57" viewBox="0 0 68 57" fill="none" xmlns="http://www.w3.org/2000/svg">
<path d="M10.8985 38.1111H2V55.3832H10.8985V38.1111Z" stroke="#1B2E5B" stroke-width="3" stroke-linecap="round" stroke-linejoin="round"/>
<path d="M11.377 41.211C11.377 41.211 23.344 34.8631 33.163 37.3728L40.9876 37.668C40.9876 37.668 45.2835 37.2251 45.2835 40.1777C45.2835 43.1302 44.3629 44.1635 40.9876 44.1635H27.7932" stroke="#1B2E5B" stroke-width="3" stroke-linecap="round" stroke-linejoin="round"/>
<path d="M10.918 52.8734C10.918 52.8734 65.2298 63.2072 65.9969 35.306C65.9969 35.306 66.3037 31.0249 61.0873 31.0249C55.871 31.0249 56.9449 34.4203 54.3367 37.0775C52.8395 38.6029 45.1897 39.4733 45.1897 39.4733" stroke="#1B2E5B" stroke-width="3" stroke-linecap="round" stroke-linejoin="round"/>
<path d="M49.9461 16.5741L52.4759 14.1399C53.0943 13.545 53.4416 12.738 53.4416 11.8966C53.4416 11.0552 53.0943 10.2483 52.4759 9.65332V9.65332C51.8576 9.05837 51.019 8.72412 50.1445 8.72412C49.2701 8.72412 48.4315 9.05837 47.8131 9.65332L45.2833 12.0875L42.7535 9.65332C42.1352 9.05837 41.2965 8.72412 40.4221 8.72412C39.5476 8.72412 38.709 9.05837 38.0907 9.65332C37.4724 10.2483 37.125 11.0552 37.125 11.8966C37.125 12.738 37.4724 13.545 38.0907 14.1399L45.2833 21.0607L49.9461 16.5741Z" stroke="#1B2E5B" stroke-width="2" stroke-linecap="round" stroke-linejoin="round"/>
<path d="M45.2823 25.625C52.0624 25.625 57.5587 20.3364 57.5587 13.8125C57.5587 7.28864 52.0624 2 45.2823 2C38.5022 2 33.0059 7.28864 33.0059 13.8125C33.0059 20.3364 38.5022 25.625 45.2823 25.625Z" stroke="#1B2E5B" stroke-width="3" stroke-linecap="round" stroke-linejoin="round"/>
<path d="M21.3274 32.24C25.7247 32.24 29.2895 28.8099 29.2895 24.5787C29.2895 20.3475 25.7247 16.9175 21.3274 16.9175C16.93 16.9175 13.3652 20.3475 13.3652 24.5787C13.3652 28.8099 16.93 32.24 21.3274 32.24Z" stroke="#1B2E5B" stroke-width="3" stroke-linecap="round" stroke-linejoin="round"/>
<path d="M21.3627 20.7649L22.6294 23.2343L25.4617 23.6304L23.4121 25.5527L23.896 28.2668L21.3627 26.9854L18.8294 28.2668L19.3132 25.5527L17.2637 23.6304L20.0961 23.2343L21.3627 20.7649Z" stroke="#1B2E5B" stroke-width="2" stroke-linecap="round" stroke-linejoin="round"/>
</svg>
