<svg width="105" height="94" viewBox="0 0 105 94" fill="none" xmlns="http://www.w3.org/2000/svg">
<path d="M15.5765 60.4703L10.5481 79.2321L32.6259 60.4703H72.8323C80.3674 60.4703 86.4757 53.9873 86.4757 45.99V16.2464C86.4757 8.24915 80.3674 1.76611 72.8323 1.76611H15.6434C8.10836 1.76611 2 8.24915 2 16.2464V45.99C2 53.9873 8.10837 60.4703 15.6434 60.4703" stroke="#1B2E5B" stroke-width="2.77261" stroke-linecap="round" stroke-linejoin="round"/>
<path d="M92.3517 76.521L96.2277 91.7659L79.2095 76.521H48.217C42.4087 76.521 37.7002 70.8291 37.7002 63.8078V37.6939C37.7002 30.6726 42.4087 24.9807 48.217 24.9807H92.3001C98.1084 24.9807 102.817 30.6726 102.817 37.6939V63.8078C102.817 70.8291 98.1084 76.521 92.3001 76.521" stroke="#1B2E5B" stroke-width="2.77261" stroke-linecap="round" stroke-linejoin="round"/>
</svg>
