<svg width="80" height="83" viewBox="0 0 80 83" fill="none" xmlns="http://www.w3.org/2000/svg">
<line x1="19.1472" y1="9.21104" x2="16.9777" y2="1.13803" stroke="#012A5D" stroke-width="1.85752" stroke-linecap="round"/>
<line x1="14.7633" y1="10.1833" x2="8.57284" y2="4.56557" stroke="#012A5D" stroke-width="1.85752" stroke-linecap="round"/>
<line x1="14.0104" y1="14.7906" x2="5.93429" y2="12.6329" stroke="#012A5D" stroke-width="1.85752" stroke-linecap="round"/>
<ellipse cx="36.2749" cy="27.661" rx="18.9202" ry="18.7328" transform="rotate(-19.7147 36.2749 27.661)" stroke="#1B2E5B" stroke-width="1.85752" stroke-linecap="round" stroke-dasharray="3.72 3.72"/>
<circle cx="15.4886" cy="60.9269" r="14.4886" stroke="#1B2E5B" stroke-width="1.85752" stroke-linecap="round" stroke-dasharray="3.72 3.72"/>
<circle cx="68.9849" cy="37.1506" r="9.28759" stroke="#1B2E5B" stroke-width="1.85752" stroke-linecap="round" stroke-dasharray="3.72 3.72"/>
<path d="M48.9795 23.1081C51.455 30.0164 47.7916 37.6706 40.7643 40.1887C33.737 42.7069 26.0461 39.1215 23.5705 32.2132C21.095 25.3048 24.7584 17.6507 31.7856 15.1325C38.8129 12.6143 46.5039 16.1997 48.9795 23.1081Z" fill="#7FCFE7" stroke="#1A2D59" stroke-width="1.85752"/>
<path d="M58.1819 47.4983C56.1955 47.4983 54.5722 49.1062 54.5722 51.0739V49.6775C54.5722 47.7098 52.9489 46.1019 50.9626 46.1019C48.9762 46.1019 47.3529 47.7098 47.3529 49.6775V48.0483C47.3529 46.0807 45.7296 44.4727 43.7432 44.4727C41.7568 44.4727 40.1335 46.0807 40.1335 48.0483V37.6389C40.1335 35.6712 38.5102 34.0632 36.5239 34.0632C34.5375 34.0632 32.9569 35.6712 32.9569 37.6389V59.0926L30.8637 56.1094C29.7317 54.4802 27.489 54.0782 25.8443 55.1996C24.1997 56.3209 23.7939 58.5425 24.9259 60.1716L35.0287 74.6645C35.2637 75.003 35.5413 75.2781 35.8617 75.5108C38.4889 78.9383 42.6539 81.1599 47.3529 81.1599C55.3198 81.1599 61.7702 74.7703 61.7702 66.8785V62.5624V60.5948V51.0739C61.7702 49.1062 60.1683 47.4983 58.1819 47.4983Z" fill="#BFE7F3" stroke="#1B2E5B" stroke-width="1.85752" stroke-miterlimit="10"/>
<path d="M40.1699 37.6389V62.5836H43.0262" stroke="#1B2E5B" stroke-width="1.85752" stroke-miterlimit="10"/>
<path d="M47.3008 48.0486V62.5838H50.1147" stroke="#1B2E5B" stroke-width="1.85752" stroke-miterlimit="10"/>
<path d="M54.4307 49.6775V62.5836H57.3081" stroke="#1B2E5B" stroke-width="1.85752" stroke-miterlimit="10"/>
</svg>
