<svg width="83" height="88" viewBox="0 0 83 88" fill="none" xmlns="http://www.w3.org/2000/svg">
<line x1="0.928759" y1="-0.928759" x2="30.4736" y2="-0.928759" transform="matrix(-0.740987 -0.671519 0.740987 -0.671519 70.043 85.4089)" stroke="#1A2D59" stroke-width="1.85752" stroke-linecap="round"/>
<line x1="0.928759" y1="-0.928759" x2="30.4736" y2="-0.928759" transform="matrix(0.740987 -0.671519 -0.740987 -0.671519 23.5059 86.4458)" stroke="#1A2D59" stroke-width="1.85752" stroke-linecap="round"/>
<path d="M79.6324 17.784H13.7109C13.2737 17.784 12.8545 17.961 12.5453 18.2761C12.2362 18.5911 12.0625 19.0184 12.0625 19.464V64.1672C12.0625 64.6128 12.2362 65.0401 12.5453 65.3551C12.8545 65.6702 13.2737 65.8472 13.7109 65.8472H79.6481C80.0853 65.8472 80.5045 65.6702 80.8137 65.3551C81.1228 65.0401 81.2965 64.6128 81.2965 64.1672V19.464C81.2965 19.242 81.2533 19.0222 81.1695 18.8174C81.0857 18.6125 80.9629 18.4266 80.8081 18.2704C80.6534 18.1142 80.4698 17.9908 80.268 17.9073C80.0662 17.8238 79.8501 17.7819 79.6324 17.784Z" fill="#F1F1F1" stroke="#1B2E5B" stroke-width="1.85752" stroke-miterlimit="10"/>
<path d="M76.5284 23.8875H17.0215V59.3627H76.5284V23.8875Z" fill="#BFE7F3" stroke="#1B2E5B" stroke-width="1.85752" stroke-linejoin="round"/>
<path d="M46.7745 26.68V21.0945L41.1605 21.3501C40.7241 18.615 39.6341 16.0255 37.9832 13.8015L43.5456 9.16724L39.7612 5.05896L33.9762 9.89563C31.8494 8.42947 29.423 7.45479 26.8729 7.04219V1H21.3075V7.04219C19.1375 7.39882 17.0559 8.16824 15.1756 9.30878L10.4968 4.41885L6.36825 8.22351L10.9054 12.9515C8.91297 15.3319 7.59872 18.2051 7.10085 21.2691L1 21.3602V26.9457L7.10085 26.8547C7.54064 29.5253 8.60118 32.0554 10.1971 34.2415L4.62308 38.8677L8.40749 42.9758L14.184 38.1675C16.3109 39.6728 18.7549 40.6698 21.3278 41.0817L21.2974 46.7745H26.883L26.9134 41.0817C29.4939 40.6628 31.9445 39.6591 34.0774 38.1473L38.698 43.3414L42.7859 39.557L38.0643 34.2009C39.638 32.052 40.6848 29.5634 41.1202 26.9356L46.7745 26.68ZM23.8965 34.7137C21.8077 34.7155 19.7654 34.0979 18.0277 32.939C16.2899 31.7801 14.9349 30.1319 14.1339 28.2029C13.3329 26.2738 13.1219 24.1506 13.5276 22.1017C13.9333 20.0527 14.9375 18.1701 16.4132 16.6919C17.8888 15.2136 19.7697 14.2062 21.8179 13.7969C23.8662 13.3876 25.9898 13.5949 27.9202 14.3925C29.8506 15.1902 31.5012 16.5423 32.6631 18.278C33.8251 20.0137 34.4462 22.055 34.448 24.1437C34.4494 25.5306 34.1775 26.9042 33.648 28.186C33.1184 29.4679 32.3415 30.6328 31.3617 31.6143C30.3819 32.5959 29.2183 33.3748 27.9374 33.9066C26.6565 34.4384 25.2834 34.7126 23.8965 34.7137Z" fill="#7FCFE7"/>
<path d="M23.8965 34.7137C21.8077 34.7155 19.7654 34.0979 18.0277 32.939C16.2899 31.7801 14.9349 30.1319 14.1339 28.2029C13.3329 26.2738 13.1219 24.1506 13.5276 22.1017C13.9333 20.0527 14.9375 18.1701 16.4132 16.6919C17.8888 15.2136 19.7697 14.2062 21.8179 13.7969C23.8662 13.3876 25.9898 13.5949 27.9202 14.3925C29.8506 15.1902 31.5012 16.5423 32.6631 18.278C33.8251 20.0137 34.4462 22.055 34.448 24.1437C34.4494 25.5306 34.1775 26.9042 33.648 28.186C33.1184 29.4679 32.3415 30.6328 31.3617 31.6143C30.3819 32.5959 29.2183 33.3748 27.9374 33.9066C26.6565 34.4384 25.2834 34.7126 23.8965 34.7137Z" fill="white"/>
<path d="M46.7745 26.68L46.8165 27.6078C47.3126 27.5854 47.7033 27.1766 47.7033 26.68H46.7745ZM46.7745 21.0945H47.7033C47.7033 20.8409 47.5996 20.5983 47.4162 20.423C47.2328 20.2478 46.9857 20.1552 46.7323 20.1667L46.7745 21.0945ZM41.1605 21.3501L40.2434 21.4965C40.3178 21.9631 40.7308 22.2994 41.2028 22.2779L41.1605 21.3501ZM37.9832 13.8015L37.3887 13.0879C37.0102 13.4033 36.9438 13.9594 37.2375 14.355L37.9832 13.8015ZM43.5456 9.16724L44.1401 9.8808C44.3355 9.718 44.4556 9.48219 44.4724 9.2284C44.4891 8.97461 44.4011 8.72506 44.2287 8.53799L43.5456 9.16724ZM39.7612 5.05896L40.4443 4.42971C40.1085 4.06519 39.5457 4.02854 39.1655 4.34643L39.7612 5.05896ZM33.9762 9.89563L33.4491 10.6603C33.7926 10.8971 34.2519 10.8758 34.572 10.6082L33.9762 9.89563ZM26.8729 7.04219H25.9441C25.9441 7.49787 26.2747 7.88624 26.7245 7.95903L26.8729 7.04219ZM26.8729 1H27.8016C27.8016 0.487061 27.3858 0.0712413 26.8729 0.0712413V1ZM21.3075 1V0.0712413C20.7946 0.0712413 20.3788 0.487061 20.3788 1L21.3075 1ZM21.3075 7.04219L21.4581 7.95866C21.9069 7.8849 22.2363 7.497 22.2363 7.04219H21.3075ZM15.1756 9.30878L14.5046 9.95087C14.8056 10.2655 15.2849 10.3287 15.6573 10.1029L15.1756 9.30878ZM10.4968 4.41885L11.1678 3.77676C10.8179 3.41105 10.2396 3.39286 9.8674 3.73587L10.4968 4.41885ZM6.36825 8.22351L5.73886 7.54054C5.55533 7.70967 5.44759 7.94555 5.43993 8.19501C5.43227 8.44446 5.52533 8.68651 5.69813 8.86658L6.36825 8.22351ZM10.9054 12.9515L11.6176 13.5476C11.9217 13.1843 11.9036 12.6503 11.5755 12.3084L10.9054 12.9515ZM7.10085 21.2691L7.11471 22.1978C7.56486 22.1911 7.94538 21.8625 8.01759 21.4181L7.10085 21.2691ZM1 21.3602L0.986143 20.4315C0.478663 20.4391 0.0712413 20.8526 0.0712413 21.3602H1ZM1 26.9457H0.0712413C0.0712413 27.1945 0.171004 27.4328 0.348186 27.6073C0.525368 27.7819 0.765161 27.8781 1.01386 27.8744L1 26.9457ZM7.10085 26.8547L8.01727 26.7038C7.94253 26.25 7.54689 25.9192 7.08699 25.926L7.10085 26.8547ZM10.1971 34.2415L10.7903 34.9561C11.1678 34.6428 11.2365 34.09 10.9472 33.6938L10.1971 34.2415ZM4.62308 38.8677L4.02993 38.153C3.83398 38.3156 3.7134 38.5516 3.6964 38.8056C3.67939 39.0597 3.76746 39.3096 3.93999 39.4969L4.62308 38.8677ZM8.40749 42.9758L7.7244 43.6051C8.05965 43.969 8.62136 44.0062 9.00167 43.6896L8.40749 42.9758ZM14.184 38.1675L14.7205 37.4094C14.3771 37.1664 13.9132 37.1845 13.5898 37.4537L14.184 38.1675ZM21.3278 41.0817L22.2565 41.0867C22.259 40.6286 21.927 40.2371 21.4746 40.1647L21.3278 41.0817ZM21.2974 46.7745L20.3686 46.7696C20.3673 47.0168 20.4646 47.2543 20.6389 47.4295C20.8132 47.6048 21.0502 47.7033 21.2974 47.7033V46.7745ZM26.883 46.7745V47.7033C27.394 47.7033 27.809 47.2905 27.8117 46.7795L26.883 46.7745ZM26.9134 41.0817L26.7645 40.165C26.3168 40.2377 25.987 40.6232 25.9846 41.0768L26.9134 41.0817ZM34.0774 38.1473L34.7713 37.53C34.4567 37.1763 33.9265 37.1158 33.5403 37.3895L34.0774 38.1473ZM38.698 43.3414L38.0041 43.9587C38.1699 44.1451 38.4038 44.257 38.653 44.2691C38.9022 44.2811 39.1458 44.1924 39.3289 44.0229L38.698 43.3414ZM42.7859 39.557L43.4168 40.2385C43.7868 39.896 43.816 39.321 43.4826 38.9428L42.7859 39.557ZM38.0643 34.2009L37.315 33.6522C37.0572 34.0041 37.0791 34.4879 37.3676 34.8151L38.0643 34.2009ZM41.1202 26.9356L41.0782 26.0078C40.6401 26.0276 40.2756 26.3511 40.2039 26.7838L41.1202 26.9356ZM23.8965 34.7137L23.8958 33.7849H23.8957L23.8965 34.7137ZM34.448 24.1437L33.5193 24.1446V24.1446L34.448 24.1437ZM47.7033 26.68V21.0945H45.8458V26.68H47.7033ZM46.7323 20.1667L41.1183 20.4223L41.2028 22.2779L46.8168 22.0223L46.7323 20.1667ZM42.0777 21.2038C41.6177 18.3211 40.4689 15.5919 38.729 13.2479L37.2375 14.355C38.7993 16.4591 39.8305 18.9089 40.2434 21.4965L42.0777 21.2038ZM38.5777 14.515L44.1401 9.8808L42.9511 8.45368L37.3887 13.0879L38.5777 14.515ZM44.2287 8.53799L40.4443 4.42971L39.0781 5.68821L42.8625 9.79649L44.2287 8.53799ZM39.1655 4.34643L33.3805 9.1831L34.572 10.6082L40.3569 5.77149L39.1655 4.34643ZM34.5034 9.13095C32.2631 7.58661 29.7073 6.55995 27.0212 6.12535L26.7245 7.95903C29.1386 8.34962 31.4356 9.27233 33.4491 10.6603L34.5034 9.13095ZM27.8016 7.04219V1H25.9441V7.04219H27.8016ZM26.8729 0.0712413H21.3075V1.92876H26.8729V0.0712413ZM20.3788 1V7.04219H22.2363V1H20.3788ZM21.1569 6.12572C18.8697 6.5016 16.6757 7.31257 14.6939 8.51469L15.6573 10.1029C17.4361 9.02391 19.4052 8.29603 21.4581 7.95866L21.1569 6.12572ZM15.8467 8.6667L11.1678 3.77676L9.82573 5.06093L14.5046 9.95087L15.8467 8.6667ZM9.8674 3.73587L5.73886 7.54054L6.99765 8.90649L11.1262 5.10182L9.8674 3.73587ZM5.69813 8.86658L10.2353 13.5946L11.5755 12.3084L7.03837 7.58045L5.69813 8.86658ZM10.1932 12.3554C8.09366 14.8637 6.70875 17.8914 6.18412 21.1202L8.01759 21.4181C8.48869 18.5188 9.73228 15.8 11.6176 13.5476L10.1932 12.3554ZM7.08699 20.3405L0.986143 20.4315L1.01386 22.2888L7.11471 22.1978L7.08699 20.3405ZM0.0712413 21.3602V26.9457H1.92876V21.3602H0.0712413ZM1.01386 27.8744L7.11471 27.7833L7.08699 25.926L0.986143 26.0171L1.01386 27.8744ZM6.18444 27.0056C6.64785 29.8197 7.76534 32.4857 9.44701 34.7891L10.9472 33.6938C9.43702 31.6252 8.43344 29.231 8.01727 26.7038L6.18444 27.0056ZM9.60398 33.5268L4.02993 38.153L5.21623 39.5823L10.7903 34.9561L9.60398 33.5268ZM3.93999 39.4969L7.7244 43.6051L9.09059 42.3466L5.30618 38.2384L3.93999 39.4969ZM9.00167 43.6896L14.7782 38.8814L13.5898 37.4537L7.81331 42.262L9.00167 43.6896ZM13.6474 38.9256C15.8903 40.513 18.4677 41.5644 21.181 41.9988L21.4746 40.1647C19.0421 39.7752 16.7314 38.8326 14.7205 37.4094L13.6474 38.9256ZM20.399 41.0768L20.3686 46.7696L22.2261 46.7795L22.2565 41.0867L20.399 41.0768ZM21.2974 47.7033H26.883V45.8458H21.2974V47.7033ZM27.8117 46.7795L27.8421 41.0867L25.9846 41.0768L25.9542 46.7696L27.8117 46.7795ZM27.0622 41.9985C29.7826 41.5569 32.366 40.4987 34.6145 38.905L33.5403 37.3895C31.523 38.8194 29.2053 39.7688 26.7645 40.165L27.0622 41.9985ZM33.3835 38.7646L38.0041 43.9587L39.3919 42.7241L34.7713 37.53L33.3835 38.7646ZM39.3289 44.0229L43.4168 40.2385L42.1549 38.8754L38.067 42.6598L39.3289 44.0229ZM43.4826 38.9428L38.761 33.5868L37.3676 34.8151L42.0892 40.1712L43.4826 38.9428ZM38.8136 34.7497C40.4733 32.4834 41.5773 29.8587 42.0364 27.0874L40.2039 26.7838C39.7923 29.268 38.8027 31.6207 37.315 33.6522L38.8136 34.7497ZM41.1621 27.8634L46.8165 27.6078L46.7326 25.7522L41.0782 26.0078L41.1621 27.8634ZM23.8957 33.7849C21.9906 33.7866 20.1279 33.2233 18.543 32.1663L17.5124 33.7117C19.4029 34.9725 21.6249 35.6444 23.8973 35.6425L23.8957 33.7849ZM18.543 32.1663C16.9581 31.1093 15.7222 29.6061 14.9917 27.8467L13.2762 28.559C14.1476 30.6577 15.6218 32.4509 17.5124 33.7117L18.543 32.1663ZM14.9917 27.8467C14.2611 26.0873 14.0687 24.1508 14.4387 22.2821L12.6166 21.9213C12.1752 24.1504 12.4047 26.4604 13.2762 28.559L14.9917 27.8467ZM14.4387 22.2821C14.8087 20.4133 15.7246 18.6962 17.0705 17.348L15.7559 16.0357C14.1504 17.6439 13.0579 19.6921 12.6166 21.9213L14.4387 22.2821ZM17.0705 17.348C18.4164 15.9998 20.1318 15.0809 21.9999 14.7076L21.636 12.8861C19.4076 13.3314 17.3613 14.4275 15.7559 16.0357L17.0705 17.348ZM21.9999 14.7076C23.868 14.3344 25.8049 14.5234 27.5655 15.2509L28.2749 13.5342C26.1747 12.6664 23.8643 12.4409 21.636 12.8861L21.9999 14.7076ZM27.5655 15.2509C29.3262 15.9784 30.8316 17.2117 31.8913 18.7947L33.4349 17.7614C32.1708 15.873 30.3751 14.402 28.2749 13.5342L27.5655 15.2509ZM31.8913 18.7947C32.9511 20.3778 33.5176 22.2395 33.5193 24.1446L35.3768 24.1429C35.3748 21.8705 34.699 19.6497 33.4349 17.7614L31.8913 18.7947ZM33.5193 24.1446C33.5205 25.4096 33.2726 26.6623 32.7896 27.8314L34.5064 28.5407C35.0825 27.1461 35.3783 25.6517 35.3768 24.1428L33.5193 24.1446ZM32.7896 27.8314C32.3066 29.0005 31.598 30.063 30.7044 30.9582L32.019 32.2705C33.085 31.2026 33.9302 29.9352 34.5064 28.5407L32.7896 27.8314ZM30.7044 30.9582C29.8107 31.8534 28.7495 32.5638 27.5812 33.0488L28.2935 34.7644C29.687 34.1858 30.953 33.3384 32.019 32.2705L30.7044 30.9582ZM27.5812 33.0488C26.413 33.5338 25.1607 33.784 23.8958 33.7849L23.8972 35.6425C25.4061 35.6413 26.8999 35.3429 28.2935 34.7644L27.5812 33.0488Z" fill="#1B2E5B"/>
<path d="M48.2277 37.1557L52.2689 30.1563H60.3514L64.3926 37.1557L60.3514 44.1551H52.2689L48.2277 37.1557Z" fill="#7FCFE7" stroke="#1B2E5B" stroke-width="1.85752"/>
<path d="M59.5775 37.2382C59.5775 39.0427 58.1147 40.5055 56.3103 40.5055C54.5058 40.5055 53.043 39.0427 53.043 37.2382C53.043 35.4338 54.5058 33.971 56.3103 33.971C58.1147 33.971 59.5775 35.4338 59.5775 37.2382Z" fill="#F1F1F1" stroke="#1B2E5B" stroke-width="1.85752"/>
<path d="M61.5793 23.4235L65.6205 16.4241H73.703L77.7442 23.4235L73.703 30.4229H65.6205L61.5793 23.4235Z" fill="#7FCFE7" stroke="#1B2E5B" stroke-width="1.85752"/>
<path d="M72.9291 23.5058C72.9291 25.3103 71.4663 26.7731 69.6618 26.7731C67.8574 26.7731 66.3946 25.3103 66.3946 23.5058C66.3946 21.7014 67.8574 20.2386 69.6618 20.2386C71.4663 20.2386 72.9291 21.7014 72.9291 23.5058Z" fill="#F1F1F1" stroke="#1B2E5B" stroke-width="1.85752"/>
</svg>
