<svg width="68" height="48" viewBox="0 0 68 48" fill="none" xmlns="http://www.w3.org/2000/svg">
<path d="M46.0854 42.847C41.9258 45.3815 37.0314 46.5661 32.1206 46.227C27.2098 45.8879 22.5413 44.0429 18.8004 40.9629C15.0596 37.8829 12.4434 33.73 11.336 29.114C10.2286 24.4981 10.6883 19.662 12.6476 15.3159" stroke="#1B2E5B" stroke-width="3" stroke-linecap="round" stroke-linejoin="round"/>
<path d="M21.4336 5.44068C25.5932 2.90603 30.4876 1.72123 35.3985 2.06022C40.3094 2.39921 44.978 4.24413 48.719 7.32414C52.4599 10.4041 55.0762 14.557 56.1836 19.1731C57.2911 23.7891 56.8315 28.6252 54.8722 32.9714" stroke="#1B2E5B" stroke-width="3" stroke-linecap="round" stroke-linejoin="round"/>
<path d="M33.7598 24.1438H41.3791C41.3797 25.1355 41.7895 26.0863 42.5185 26.7873C43.2475 27.4883 44.2359 27.8821 45.2665 27.8821C46.2971 27.8821 47.2856 27.4883 48.0145 26.7873C48.7435 26.0863 49.1533 25.1355 49.1539 24.1438H56.7733" stroke="#1B2E5B" stroke-width="3" stroke-linecap="round" stroke-linejoin="round"/>
<path d="M10.7461 24.1438H18.3654C18.3654 23.1518 18.775 22.2004 19.504 21.4989C20.2331 20.7974 21.2219 20.4033 22.2529 20.4033C23.2839 20.4033 24.2726 20.7974 25.0017 21.4989C25.7307 22.2004 26.1403 23.1518 26.1403 24.1438H33.7596" stroke="#1B2E5B" stroke-width="3" stroke-linecap="round" stroke-linejoin="round"/>
<path d="M33.7601 24.1438V31.4752C32.7295 31.4758 31.7413 31.8701 31.0128 32.5715C30.2843 33.273 29.875 34.224 29.875 35.2157C29.875 36.2074 30.2843 37.1585 31.0128 37.8599C31.7413 38.5613 32.7295 38.9556 33.7601 38.9562V46.2876" stroke="#1B2E5B" stroke-width="3" stroke-linecap="round" stroke-linejoin="round"/>
<path d="M33.7598 2V9.33141C34.7904 9.33199 35.7786 9.72634 36.5071 10.4278C37.2356 11.1292 37.6449 12.0803 37.6449 13.0719C37.6449 14.0636 37.2356 15.0147 36.5071 15.7161C35.7786 16.4175 34.7904 16.8119 33.7598 16.8124V24.1438" stroke="#1B2E5B" stroke-width="3" stroke-linecap="round" stroke-linejoin="round"/>
<path d="M12.6493 15.3161L13.7523 13.1962C15.7077 13.1962 16.7729 9.63053 16.7729 9.63053H22.5262C22.8121 9.63053 23.0952 9.57635 23.3593 9.47108C23.6234 9.36582 23.8634 9.21152 24.0656 9.01701C24.2677 8.8225 24.4281 8.59159 24.5375 8.33745C24.6469 8.08331 24.7032 7.81092 24.7032 7.53585V7.53585C24.7032 7.26077 24.6469 6.98838 24.5375 6.73424C24.4281 6.48011 24.2677 6.24919 24.0656 6.05468C23.8634 5.86017 23.6234 5.70588 23.3593 5.60061C23.0952 5.49534 22.8121 5.44116 22.5262 5.44116H6.97656V15.3161L12.6493 15.3161Z" stroke="#1B2E5B" stroke-width="3" stroke-linecap="round" stroke-linejoin="round"/>
<path d="M6.97589 4.01978H2V16.8871H6.97589V4.01978Z" stroke="#1B2E5B" stroke-width="3" stroke-linecap="round" stroke-linejoin="round"/>
<path d="M54.8703 32.9714L53.7672 35.0913C51.8119 35.0913 50.7467 38.657 50.7467 38.657H44.9934C44.416 38.657 43.8623 38.8777 43.454 39.2705C43.0458 39.6634 42.8164 40.1962 42.8164 40.7517C42.8164 41.3072 43.0458 41.84 43.454 42.2329C43.8623 42.6257 44.416 42.8464 44.9934 42.8464H60.543V32.9714L54.8703 32.9714Z" stroke="#1B2E5B" stroke-width="3" stroke-linecap="round" stroke-linejoin="round"/>
<path d="M60.5456 44.2678H65.5215V31.4005H60.5456V44.2678Z" stroke="#1B2E5B" stroke-width="3" stroke-linecap="round" stroke-linejoin="round"/>
</svg>
