<svg width="404" height="363" viewBox="0 0 404 363" fill="none" xmlns="http://www.w3.org/2000/svg">
<path d="M122.009 177.01C121.939 184.568 121.099 192.055 119.56 199.473C119.35 200.382 119.84 201.362 120.75 201.642C121.589 201.852 122.709 201.362 122.919 200.452C124.528 192.755 125.368 184.917 125.438 177.08C125.508 174.771 122.009 174.771 122.009 177.01Z" fill="#1C2D5A"/>
<path d="M63.9298 243.278C57.0022 244.258 50.0745 244.748 43.0769 244.678C40.8377 244.678 40.8377 248.176 43.0769 248.176C50.3544 248.246 57.6319 247.687 64.8395 246.637C65.7492 246.497 66.309 245.307 66.0291 244.468C65.8192 243.488 64.9095 243.138 63.9298 243.278Z" fill="#1C2D5A"/>
<path d="M373.993 118.93C366.926 118.511 359.788 118.091 352.721 117.811C345.863 117.461 338.935 117.531 332.288 119.28C330.118 119.84 331.028 123.269 333.197 122.639C339.705 120.89 346.423 120.96 353.071 121.31C360.068 121.66 367.066 122.079 374.063 122.429C376.233 122.499 376.233 119 373.993 118.93Z" fill="#1C2D5A"/>
<path d="M336.417 44.4759L376.024 44.3359" stroke="#1C2D5A" stroke-width="2.82222" stroke-miterlimit="10" stroke-linecap="round" stroke-linejoin="round"/>
<path d="M333.617 160.286V142.302" stroke="#1C2D5A" stroke-width="2.82222" stroke-miterlimit="10"/>
<path d="M375.324 110.113C380.363 110.113 384.421 114.171 384.421 119.21C384.421 124.248 380.363 128.307 375.324 128.307C370.286 128.307 366.228 124.248 366.228 119.21C366.228 114.171 370.286 110.113 375.324 110.113Z" fill="#5BBCB0"/>
<path d="M375.324 128.307C380.349 128.307 384.421 124.234 384.421 119.21C384.421 114.186 380.349 110.113 375.324 110.113C370.3 110.113 366.228 114.186 366.228 119.21C366.228 124.234 370.3 128.307 375.324 128.307Z" stroke="#1C2D5A" stroke-width="2.25778" stroke-miterlimit="10"/>
<path d="M359.718 67.707C363.707 66.5174 367.835 68.8266 369.025 72.8152C370.214 76.8039 367.905 80.9325 363.917 82.1221C359.928 83.3117 355.799 81.0025 354.61 77.0138C353.42 73.0252 355.729 68.8266 359.718 67.707Z" fill="#B1DBD5"/>
<path d="M359.718 67.707C363.707 66.5174 367.835 68.8266 369.025 72.8152C370.214 76.8039 367.905 80.9325 363.917 82.1221C359.928 83.3117 355.799 81.0025 354.61 77.0138C353.42 73.0252 355.729 68.8266 359.718 67.707Z" stroke="#1C2D5A" stroke-width="2.25778" stroke-miterlimit="10"/>
<path d="M346.423 6.75848C350.691 5.49891 355.1 7.94807 356.359 12.2166C357.619 16.4852 355.17 20.8937 350.901 22.1532C346.633 23.4128 342.224 20.8937 340.965 16.6951C339.705 12.4266 342.154 8.01805 346.423 6.75848Z" fill="#B1DBD5"/>
<path d="M346.423 6.75848C350.691 5.49891 355.1 7.94807 356.359 12.2166C357.619 16.4852 355.17 20.8937 350.901 22.1532C346.633 23.4128 342.224 20.8937 340.965 16.6951C339.705 12.4266 342.154 8.01805 346.423 6.75848Z" stroke="#1C2D5A" stroke-width="2.25778" stroke-miterlimit="10"/>
<path d="M325.22 37.1281C329.488 35.8685 333.897 38.3177 335.156 42.5863C336.416 46.8548 333.967 51.2633 329.698 52.5229C325.43 53.7824 321.021 51.3333 319.761 47.0647C318.572 42.7962 321.021 38.3877 325.22 37.1281Z" fill="#8FCCE1"/>
<path d="M325.22 37.1281C329.488 35.8685 333.897 38.3177 335.156 42.5863C336.416 46.8548 333.967 51.2633 329.698 52.5229C325.43 53.7824 321.021 51.3333 319.761 47.0647C318.572 42.7962 321.021 38.3877 325.22 37.1281Z" stroke="#1C2D5A" stroke-width="2.25778" stroke-miterlimit="10"/>
<path d="M332.708 70.9263V82.8222" stroke="#1C2D5A" stroke-width="2.82222" stroke-miterlimit="10" stroke-linecap="round" stroke-linejoin="round"/>
<path d="M332.568 97.6577L332.638 120.61" stroke="#1C2D5A" stroke-width="2.82222" stroke-miterlimit="10" stroke-linecap="round" stroke-linejoin="round"/>
<path d="M330.328 83.0329C334.597 81.7733 339.005 84.2225 340.265 88.491C341.524 92.7596 339.075 97.1681 334.807 98.4277C330.538 99.6872 326.13 97.2381 324.87 92.9695C323.681 88.701 326.06 84.2225 330.328 83.0329Z" fill="#CBE5F1"/>
<path d="M330.328 83.0329C334.597 81.7733 339.005 84.2225 340.265 88.491C341.524 92.7596 339.075 97.1681 334.807 98.4277C330.538 99.6872 326.13 97.2381 324.87 92.9695C323.681 88.701 326.06 84.2225 330.328 83.0329Z" stroke="#1C2D5A" stroke-width="2.25778" stroke-miterlimit="10"/>
<path d="M339.914 137.544H307.445" stroke="#1C2D5A" stroke-width="2.82222" stroke-miterlimit="10"/>
<path d="M331.868 129.917C336.137 128.657 340.545 131.106 341.805 135.375C343.064 139.643 340.615 144.052 336.347 145.311C332.078 146.571 327.67 144.122 326.41 139.853C325.221 135.585 327.6 131.176 331.868 129.917Z" fill="#8FCCE1"/>
<path d="M331.868 129.917C336.137 128.657 340.545 131.106 341.805 135.375C343.064 139.643 340.615 144.052 336.347 145.311C332.078 146.571 327.67 144.122 326.41 139.853C325.221 135.585 327.6 131.176 331.868 129.917Z" stroke="#1C2D5A" stroke-width="2.25778" stroke-miterlimit="10"/>
<path d="M318.362 44.6855L307.726 44.4756" stroke="#1C2D5A" stroke-width="2.82222" stroke-miterlimit="10"/>
<path d="M382.182 36.0788C386.45 34.8192 390.859 37.2684 392.118 41.5369C393.378 45.8055 390.929 50.214 386.66 51.4736C382.392 52.7331 377.983 50.284 376.724 46.0154C375.534 41.7469 377.913 37.3384 382.182 36.0788Z" fill="#CBE5F1"/>
<path d="M382.182 36.0788C386.45 34.8192 390.859 37.2684 392.118 41.5369C393.378 45.8055 390.929 50.214 386.66 51.4736C382.392 52.7331 377.983 50.284 376.724 46.0154C375.534 41.7469 377.913 37.3384 382.182 36.0788Z" stroke="#1C2D5A" stroke-width="2.25778" stroke-miterlimit="10"/>
<path d="M343.204 138.733C350.342 138.173 357.55 137.753 364.757 138.173C368.256 138.383 371.755 139.013 375.254 139.293C378.892 139.573 382.531 139.433 386.1 138.873C387.01 138.733 387.569 137.543 387.289 136.704C387.01 135.724 386.1 135.304 385.12 135.514C381.761 136.004 378.263 136.074 374.904 135.794C371.405 135.444 367.906 134.884 364.407 134.674C357.34 134.255 350.272 134.674 343.204 135.234C342.295 135.304 341.455 136.004 341.455 136.984C341.455 137.823 342.225 138.803 343.204 138.733Z" fill="#1C2D5A"/>
<path d="M363.218 65.8883C362.238 58.9607 361.748 52.033 361.818 45.0354C361.818 42.7961 358.319 42.7961 358.319 45.0354C358.249 52.3129 358.809 59.5904 359.859 66.798C359.999 67.7077 361.188 68.2675 362.028 67.9876C363.008 67.7777 363.358 66.868 363.218 65.8883Z" fill="#1C2D5A"/>
<path d="M350.062 42.5866C350.272 36.1488 350.482 29.711 350.622 23.2732C350.692 21.0339 347.193 21.0339 347.123 23.2732C346.913 29.711 346.703 36.1488 346.564 42.5866C346.494 44.8259 349.992 44.8259 350.062 42.5866Z" fill="#1C2D5A"/>
<path d="M334.596 76.9442C340.544 76.1045 346.982 74.565 352.93 76.1745C355.099 76.7343 356.009 73.3754 353.84 72.8156C347.262 70.9962 340.264 72.6057 333.617 73.5854C332.707 73.7253 332.147 74.9149 332.427 75.7546C332.707 76.7343 333.616 77.0842 334.596 76.9442Z" fill="#1C2D5A"/>
<path d="M332.986 68.8972C329.488 67.6376 325.709 68.1974 322.07 68.5473C318.152 68.9672 314.303 69.3171 310.384 69.7369C309.474 69.8069 308.635 70.5066 308.635 71.4863C308.635 72.326 309.405 73.3057 310.384 73.2357C314.163 72.8159 317.942 72.466 321.72 72.0461C325.079 71.6962 328.718 70.9965 332.007 72.1861C332.916 72.536 333.896 71.8362 334.176 70.9965C334.526 70.0868 333.896 69.2471 332.986 68.8972Z" fill="#1C2D5A"/>
<path d="M331.028 107.385C327.809 107.734 324.52 107.664 321.301 107.175C319.692 106.965 318.152 106.615 316.543 106.195C314.933 105.775 313.324 105.355 311.644 105.495C309.405 105.635 309.405 109.134 311.644 108.994C313.254 108.924 314.723 109.344 316.263 109.764C317.872 110.184 319.482 110.464 321.091 110.673C324.38 111.093 327.669 111.233 331.028 110.883C331.937 110.813 332.777 110.114 332.777 109.134C332.777 108.224 331.937 107.245 331.028 107.385Z" fill="#1C2D5A"/>
<path d="M361.328 136.355C361.888 143.912 364.477 151.61 363.077 159.237C362.867 160.147 363.357 161.126 364.267 161.406C365.107 161.616 366.226 161.126 366.436 160.217C367.976 152.17 365.457 144.332 364.827 136.355C364.757 135.445 364.057 134.605 363.077 134.605C362.168 134.605 361.258 135.375 361.328 136.355Z" fill="#1C2D5A"/>
<path d="M386.52 74.3556C389.739 73.4459 393.098 75.2653 394.077 78.4842C394.987 81.7031 393.168 85.0619 389.949 86.0416C386.73 86.9513 383.371 85.1319 382.391 81.913C381.482 78.6241 383.301 75.2653 386.52 74.3556Z" fill="#8FCCE1"/>
<path d="M386.52 74.3556C389.739 73.4459 393.098 75.2653 394.077 78.4842C394.987 81.7031 393.168 85.0619 389.949 86.0416C386.73 86.9513 383.371 85.1319 382.391 81.913C381.482 78.6241 383.301 75.2653 386.52 74.3556Z" stroke="#1C2D5A" stroke-width="2.25778" stroke-miterlimit="10"/>
<path d="M389.108 73.3757C389.458 69.8069 388.618 66.2381 387.779 62.7393C386.939 59.3805 386.029 55.8817 386.519 52.3829C386.589 51.6131 386.309 50.9134 385.539 50.6334C384.91 50.4235 383.93 50.8434 383.79 51.6131C383.3 55.3219 384 58.9606 384.84 62.5294C385.679 66.0982 386.659 69.597 386.309 73.3057C386.239 74.0755 387.009 74.7053 387.709 74.7053C388.478 74.7752 389.038 74.1455 389.108 73.3757Z" fill="#1C2D5A"/>
<path d="M351.672 95.2784C354.891 94.3687 358.25 96.1881 359.23 99.407C360.139 102.626 358.32 105.985 355.101 106.964C351.882 107.874 348.523 106.055 347.544 102.836C346.634 99.6169 348.453 96.2581 351.672 95.2784Z" fill="#8FCCE1"/>
<path d="M351.672 95.2784C354.891 94.3687 358.25 96.1881 359.23 99.407C360.139 102.626 358.32 105.985 355.101 106.964C351.882 107.874 348.523 106.055 347.544 102.836C346.634 99.6169 348.453 96.2581 351.672 95.2784Z" stroke="#1C2D5A" stroke-width="2.25778" stroke-miterlimit="10"/>
<path d="M354.611 117.811L354.891 107.874C354.961 105.845 351.812 105.845 351.742 107.874L351.462 117.811C351.392 119.84 354.541 119.84 354.611 117.811Z" fill="#1C2D5A"/>
<path d="M384.908 144.262C388.197 143.282 391.556 145.171 392.536 148.39C393.446 151.609 391.556 155.038 388.337 155.948C385.048 156.927 381.69 155.038 380.71 151.819C379.73 148.6 381.62 145.171 384.908 144.262Z" fill="#B1DBD5"/>
<path d="M384.908 144.262C388.197 143.282 391.556 145.171 392.536 148.39C393.446 151.609 391.556 155.038 388.337 155.948C385.048 156.927 381.69 155.038 380.71 151.819C379.73 148.6 381.62 145.171 384.908 144.262Z" stroke="#1C2D5A" stroke-width="2.25778" stroke-miterlimit="10"/>
<path d="M384.279 137.334V143.002C384.279 143.912 385.049 144.822 386.029 144.752C387.008 144.682 387.778 143.982 387.778 143.002V137.334C387.778 136.425 386.938 135.515 386.029 135.585C385.049 135.655 384.279 136.355 384.279 137.334Z" fill="#1C2D5A"/>
<path d="M376.793 136.565C377.423 134.186 377.842 131.806 377.982 129.357C378.052 128.448 377.143 127.538 376.233 127.608C375.253 127.678 374.554 128.378 374.484 129.357C374.414 129.917 374.414 130.477 374.344 131.037C374.344 131.177 374.344 131.317 374.274 131.456C374.344 130.967 374.274 131.456 374.274 131.596C374.204 131.876 374.204 132.156 374.134 132.436C373.924 133.556 373.714 134.605 373.434 135.725C373.224 136.635 373.714 137.684 374.624 137.894C375.533 138.034 376.513 137.544 376.793 136.565Z" fill="#1C2D5A"/>
<path d="M116.901 232.572C116.481 239.289 116.061 245.937 115.781 252.655C115.431 259.093 115.501 265.67 117.251 271.898C117.88 274.068 121.239 273.158 120.609 270.989C118.86 264.901 118.93 258.603 119.28 252.375C119.63 245.797 120.05 239.219 120.399 232.642C120.539 230.332 117.041 230.332 116.901 232.572Z" fill="#1C2D5A"/>
<path d="M42.5166 270.079V232.572" stroke="#1C2D5A" stroke-width="2.82222" stroke-miterlimit="10" stroke-linecap="round" stroke-linejoin="round"/>
<path d="M134.604 231.172C132.505 230.543 130.406 230.123 128.237 229.983C127.327 229.913 126.417 230.823 126.487 231.732C126.557 232.712 127.257 233.412 128.237 233.482C128.726 233.552 129.216 233.552 129.706 233.622C129.566 233.622 129.426 233.552 129.216 233.552C130.756 233.762 132.225 234.111 133.695 234.531C134.534 234.811 135.654 234.181 135.864 233.342C136.004 232.362 135.514 231.452 134.604 231.172Z" fill="#1C2D5A"/>
<path d="M158.328 272.878H140.344" stroke="#1C2D5A" stroke-width="2.82222" stroke-miterlimit="10"/>
<path d="M109.482 230.822C109.482 225.574 113.751 221.375 118.929 221.375C124.177 221.375 128.376 225.644 128.376 230.822C128.376 236.07 124.107 240.269 118.929 240.269C113.751 240.269 109.482 236.07 109.482 230.822Z" fill="#5BBCB0"/>
<path d="M109.482 230.822C109.482 225.574 113.751 221.375 118.929 221.375C124.177 221.375 128.376 225.644 128.376 230.822C128.376 236.07 124.107 240.269 118.929 240.269C113.751 240.269 109.482 236.07 109.482 230.822Z" stroke="#1C2D5A" stroke-width="2.25778" stroke-miterlimit="10"/>
<path d="M4.79949 260.142C3.53992 255.873 5.98909 251.465 10.2576 250.205C14.5262 248.946 18.9347 251.395 20.1943 255.663C21.4538 259.932 19.0047 264.34 14.7361 265.6C10.4676 266.79 5.98909 264.34 4.79949 260.142Z" fill="#B1DBD5"/>
<path d="M4.79949 260.142C3.53992 255.873 5.98909 251.465 10.2576 250.205C14.5262 248.946 18.9347 251.395 20.1943 255.663C21.4538 259.932 19.0047 264.34 14.7361 265.6C10.4676 266.79 5.98909 264.34 4.79949 260.142Z" stroke="#1C2D5A" stroke-width="2.25778" stroke-miterlimit="10"/>
<path d="M35.1686 281.275C33.9091 277.006 36.3582 272.598 40.6268 271.338C44.8953 270.079 49.3038 272.528 50.5634 276.796C51.823 281.065 49.3738 285.474 45.1053 286.733C40.8367 287.993 36.4282 285.543 35.1686 281.275Z" fill="#8FCCE1"/>
<path d="M35.1686 281.275C33.9091 277.006 36.3582 272.598 40.6268 271.338C44.8953 270.079 49.3038 272.528 50.5634 276.796C51.823 281.065 49.3738 285.474 45.1053 286.733C40.8367 287.993 36.4282 285.543 35.1686 281.275Z" stroke="#1C2D5A" stroke-width="2.25778" stroke-miterlimit="10"/>
<path d="M95.6982 271.479L118.65 271.339" stroke="#1C2D5A" stroke-width="2.82222" stroke-miterlimit="10" stroke-linecap="round" stroke-linejoin="round"/>
<path d="M112.492 270.079V288.553" stroke="#1C2D5A" stroke-width="2.82222" stroke-miterlimit="10"/>
<path d="M127.957 274.697C126.697 270.429 129.146 266.02 133.415 264.761C137.683 263.501 142.092 265.95 143.351 270.219C144.611 274.487 142.162 278.896 137.893 280.155C133.625 281.345 129.216 278.896 127.957 274.697Z" fill="#8FCCE1"/>
<path d="M127.957 274.697C126.697 270.429 129.146 266.02 133.415 264.761C137.683 263.501 142.092 265.95 143.351 270.219C144.611 274.487 142.162 278.896 137.893 280.155C133.625 281.345 129.216 278.896 127.957 274.697Z" stroke="#1C2D5A" stroke-width="2.25778" stroke-miterlimit="10"/>
<path d="M64.9785 270.009H80.3733" stroke="#1C2D5A" stroke-width="2.82222" stroke-miterlimit="10" stroke-linecap="round" stroke-linejoin="round"/>
<path d="M34.1198 227.813C32.8602 223.545 35.3094 219.136 39.578 217.877C43.8465 216.617 48.255 219.066 49.5146 223.335C50.7741 227.603 48.325 232.012 44.0564 233.271C39.7879 234.531 35.3794 232.082 34.1198 227.813Z" fill="#CBE5F1"/>
<path d="M34.1198 227.813C32.8602 223.545 35.3094 219.136 39.578 217.877C43.8465 216.617 48.255 219.066 49.5146 223.335C50.7741 227.603 48.325 232.012 44.0564 233.271C39.7879 234.531 35.3794 232.082 34.1198 227.813Z" stroke="#1C2D5A" stroke-width="2.25778" stroke-miterlimit="10"/>
<path d="M136.705 263.362C136.145 256.224 135.725 249.016 136.145 241.809C136.355 238.31 136.985 234.811 137.265 231.312C137.544 227.674 137.405 224.035 136.845 220.466C136.705 219.556 135.515 218.997 134.675 219.277C133.696 219.556 133.276 220.466 133.486 221.446C133.976 224.805 134.046 228.303 133.766 231.662C133.416 235.161 132.856 238.66 132.646 242.159C132.226 249.226 132.646 256.294 133.206 263.362C133.276 264.271 133.976 265.111 134.955 265.111C135.865 265.111 136.775 264.271 136.705 263.362Z" fill="#1C2D5A"/>
<path d="M40.6266 256.433C34.1888 256.223 27.751 256.013 21.3132 255.873C19.074 255.803 19.074 259.302 21.3132 259.372C27.751 259.582 34.1888 259.792 40.6266 259.932C42.8659 260.002 42.8659 256.503 40.6266 256.433Z" fill="#1C2D5A"/>
<path d="M66.5873 269.519C65.7476 264.131 64.2781 258.253 65.8175 252.865C66.4473 250.696 63.0885 249.786 62.4587 251.955C60.6393 257.973 62.2488 264.411 63.2284 270.499C63.3684 271.409 64.558 271.968 65.3977 271.689C66.3074 271.409 66.7272 270.499 66.5873 269.519Z" fill="#1C2D5A"/>
<path d="M134.395 245.168C141.952 244.608 149.65 242.019 157.277 243.418C158.187 243.628 159.166 243.138 159.446 242.229C159.656 241.389 159.166 240.269 158.257 240.059C150.21 238.52 142.372 241.039 134.395 241.669C133.485 241.739 132.646 242.439 132.646 243.418C132.646 244.328 133.415 245.238 134.395 245.168Z" fill="#1C2D5A"/>
<path d="M72.3258 223.475C71.4161 220.256 73.2355 216.897 76.4544 215.917C79.6733 215.007 83.0322 216.827 84.0118 220.046C84.9215 223.265 83.1021 226.623 79.8832 227.603C76.6643 228.513 73.3055 226.693 72.3258 223.475Z" fill="#8FCCE1"/>
<path d="M72.3258 223.475C71.4161 220.256 73.2355 216.897 76.4544 215.917C79.6733 215.007 83.0322 216.827 84.0118 220.046C84.9215 223.265 83.1021 226.623 79.8832 227.603C76.6643 228.513 73.3055 226.693 72.3258 223.475Z" stroke="#1C2D5A" stroke-width="2.25778" stroke-miterlimit="10"/>
<path d="M71.1367 220.955C67.6379 220.606 64.1391 221.445 60.7802 222.285C57.4913 223.125 54.0625 224.034 50.7037 223.545C49.9339 223.475 49.2342 223.755 48.9542 224.524C48.7443 225.154 49.1642 226.134 49.9339 226.274C53.5727 226.764 57.1415 226.134 60.6403 225.224C64.0691 224.384 67.5679 223.405 71.1367 223.755C71.9064 223.825 72.5362 223.055 72.5362 222.355C72.5362 221.515 71.9064 221.025 71.1367 220.955Z" fill="#1C2D5A"/>
<path d="M93.3189 251.325C92.4093 248.106 94.2286 244.747 97.4475 243.768C100.666 242.858 104.025 244.677 105.005 247.896C105.915 251.115 104.095 254.474 100.876 255.454C97.6575 256.433 94.2986 254.544 93.3189 251.325Z" fill="#8FCCE1"/>
<path d="M93.3189 251.325C92.4093 248.106 94.2286 244.747 97.4475 243.768C100.666 242.858 104.025 244.677 105.005 247.896C105.915 251.115 104.095 254.474 100.876 255.454C97.6575 256.433 94.2986 254.544 93.3189 251.325Z" stroke="#1C2D5A" stroke-width="2.25778" stroke-miterlimit="10"/>
<path d="M115.851 248.386C112.562 248.316 109.203 248.176 105.915 248.106C103.885 248.036 103.885 251.185 105.915 251.255C109.203 251.325 112.562 251.465 115.851 251.535C117.881 251.605 117.881 248.456 115.851 248.386Z" fill="#1C2D5A"/>
<path d="M142.302 221.655C141.322 218.367 143.212 215.008 146.431 214.028C149.65 213.118 153.078 214.938 153.988 218.227C154.968 221.516 153.078 224.874 149.86 225.854C146.641 226.764 143.212 224.874 142.302 221.655Z" fill="#B1DBD5"/>
<path d="M142.302 221.655C141.322 218.367 143.212 215.008 146.431 214.028C149.65 213.118 153.078 214.938 153.988 218.227C154.968 221.516 153.078 224.874 149.86 225.854C146.641 226.764 143.212 224.874 142.302 221.655Z" stroke="#1C2D5A" stroke-width="2.25778" stroke-miterlimit="10"/>
<path d="M135.375 222.285H141.043C141.953 222.285 142.863 221.515 142.793 220.536C142.723 219.556 142.023 218.786 141.043 218.786H135.375C134.466 218.786 133.556 219.626 133.626 220.536C133.626 221.445 134.396 222.285 135.375 222.285Z" fill="#1C2D5A"/>
<path d="M96.3984 192.896V221.376" stroke="#1C2D5A" stroke-width="2.82222" stroke-miterlimit="10" stroke-linecap="round" stroke-linejoin="round"/>
<path d="M84.5726 221.935C88.4913 221.585 92.2001 222.005 95.8388 223.335C96.7485 223.685 97.7282 222.985 98.0081 222.145C98.288 221.165 97.6582 220.326 96.8185 219.976C92.8998 218.576 88.7012 218.086 84.5726 218.436C83.663 218.506 82.8232 219.206 82.8232 220.186C82.8232 221.095 83.593 222.075 84.5726 221.935Z" fill="#1C2D5A"/>
<path d="M15.7161 192.895C15.6462 200.452 14.8065 207.94 13.267 215.357C13.057 216.267 13.5469 217.247 14.4566 217.527C15.2963 217.736 16.4159 217.247 16.6258 216.337C18.2353 208.64 19.075 200.802 19.145 192.965C19.2149 190.656 15.7161 190.656 15.7161 192.895Z" fill="#1C2D5A"/>
<path d="M8.57774 222.985C7.66805 219.766 9.48743 216.407 12.7063 215.427C15.9252 214.518 19.2841 216.337 20.2638 219.556C21.1735 222.775 19.3541 226.134 16.1352 227.113C12.9163 228.023 9.5574 226.204 8.57774 222.985Z" fill="#8FCCE1"/>
<path d="M8.57774 222.985C7.66805 219.766 9.48743 216.407 12.7063 215.427C15.9252 214.518 19.2841 216.337 20.2638 219.556C21.1735 222.775 19.3541 226.134 16.1352 227.113C12.9163 228.023 9.5574 226.204 8.57774 222.985Z" stroke="#1C2D5A" stroke-width="2.25778" stroke-miterlimit="10"/>
<path d="M113.823 208.57C112.913 205.351 114.733 201.992 117.951 201.013C121.17 200.103 124.529 201.922 125.509 205.141C126.419 208.36 124.599 211.719 121.38 212.699C118.161 213.609 114.733 211.789 113.823 208.57Z" fill="#CBE5F1"/>
<path d="M113.823 208.57C112.913 205.351 114.733 201.992 117.951 201.013C121.17 200.103 124.529 201.922 125.509 205.141C126.419 208.36 124.599 211.719 121.38 212.699C118.161 213.609 114.733 211.789 113.823 208.57Z" stroke="#1C2D5A" stroke-width="2.25778" stroke-miterlimit="10"/>
<path d="M51.6826 194.154V198.843C51.6826 199.543 52.3124 200.242 53.0821 200.242C53.8519 200.242 54.4817 199.613 54.4817 198.843V194.154C54.4817 193.455 53.8519 192.755 53.0821 192.755C52.3124 192.825 51.6826 193.385 51.6826 194.154Z" fill="#1C2D5A"/>
<path d="M47.5547 205.84C46.7149 202.831 48.3944 199.682 51.4033 198.843C54.4123 198.003 57.5613 199.682 58.401 202.691C59.2407 205.7 57.5613 208.849 54.5523 209.689C51.5433 210.529 48.3944 208.779 47.5547 205.84Z" fill="#8FCCE1"/>
<path d="M47.5547 205.84C46.7149 202.831 48.3944 199.682 51.4033 198.843C54.4123 198.003 57.5613 199.682 58.401 202.691C59.2407 205.7 57.5613 208.849 54.5523 209.689C51.5433 210.529 48.3944 208.779 47.5547 205.84Z" stroke="#1C2D5A" stroke-width="2.25778" stroke-miterlimit="10"/>
<path d="M105.006 299.119C103.746 294.851 106.195 290.442 110.464 289.183C114.732 287.923 119.141 290.372 120.4 294.641C121.66 298.909 119.211 303.318 114.942 304.577C110.674 305.767 106.265 303.388 105.006 299.119Z" fill="#B1DBD5"/>
<path d="M105.006 299.119C103.746 294.851 106.195 290.442 110.464 289.183C114.732 287.923 119.141 290.372 120.4 294.641C121.66 298.909 119.211 303.318 114.942 304.577C110.674 305.767 106.265 303.388 105.006 299.119Z" stroke="#1C2D5A" stroke-width="2.25778" stroke-miterlimit="10"/>
<path d="M57.2807 246.777C56.0911 242.788 58.4003 238.66 62.389 237.47C66.3776 236.281 70.5062 238.59 71.6958 242.578C72.8854 246.567 70.5762 250.696 66.5875 251.885C62.6689 253.075 58.4703 250.766 57.2807 246.777Z" fill="#B1DBD5"/>
<path d="M57.2807 246.777C56.0911 242.788 58.4003 238.66 62.389 237.47C66.3776 236.281 70.5062 238.59 71.6958 242.578C72.8854 246.567 70.5762 250.696 66.5875 251.885C62.6689 253.075 58.4703 250.766 57.2807 246.777Z" stroke="#1C2D5A" stroke-width="2.25778" stroke-miterlimit="10"/>
<path d="M81.0026 272.038C79.743 267.77 82.1922 263.361 86.4608 262.101C90.7293 260.842 95.1378 263.291 96.3974 267.56C97.657 271.828 95.2078 276.237 90.9392 277.496C86.6707 278.686 82.2622 276.237 81.0026 272.038Z" fill="#CBE5F1"/>
<path d="M81.0026 272.038C79.743 267.77 82.1922 263.361 86.4608 262.101C90.7293 260.842 95.1378 263.291 96.3974 267.56C97.657 271.828 95.2078 276.237 90.9392 277.496C86.6707 278.686 82.2622 276.237 81.0026 272.038Z" stroke="#1C2D5A" stroke-width="2.25778" stroke-miterlimit="10"/>
<path d="M309.196 2H2V191.636H309.196V2Z" fill="#F7F3F5"/>
<path d="M309.196 2H2V191.636H309.196V2Z" stroke="#1C2D5A" stroke-width="4.00135" stroke-miterlimit="10" stroke-linecap="round" stroke-linejoin="round"/>
<path d="M288.202 24.042H21.2432V168.893H288.202V24.042Z" fill="#1C2D5A"/>
<path d="M288.202 24.042H21.2432V168.893H288.202V24.042Z" stroke="#1C2D5A" stroke-width="8.40627" stroke-miterlimit="10" stroke-linecap="round" stroke-linejoin="round"/>
<path d="M29.7803 162.175C59.4502 101.716 109.203 58.6105 178.27 32.3694C182.958 30.62 181.629 23.6924 176.66 23.6924H26.1415C23.6923 23.6924 21.663 25.7217 21.663 28.1709L21.2432 160.146C21.2432 164.904 27.681 166.444 29.7803 162.175Z" fill="#24406E"/>
<path d="M374.694 314.514L376.233 359.788C376.513 360.628 375.673 361.328 375.044 360.838L335.157 318.152L198.494 316.193C176.871 316.193 159.377 298.979 159.377 277.706V198.633C159.377 177.36 176.871 160.146 198.494 160.146H362.378C384.001 160.146 401.495 177.36 401.495 198.633V277.706C401.565 298.909 396.316 314.514 374.694 314.514Z" fill="#F7F3F5"/>
<path d="M374.694 314.514L376.233 359.788C376.513 360.628 375.673 361.328 375.044 360.838L335.157 318.152L198.494 316.193C176.871 316.193 159.377 298.979 159.377 277.706V198.633C159.377 177.36 176.871 160.146 198.494 160.146H362.378C384.001 160.146 401.495 177.36 401.495 198.633V277.706C401.565 298.909 396.316 314.514 374.694 314.514Z" stroke="#1C2D5A" stroke-width="3.95111" stroke-miterlimit="10" stroke-linecap="round" stroke-linejoin="round"/>
<path d="M289.602 190.236C289.602 210.319 262.032 226.623 228.023 226.623C194.015 226.623 166.444 210.319 166.444 190.236C166.444 170.153 194.015 153.848 228.023 153.848C262.032 153.848 289.602 170.153 289.602 190.236Z" fill="#F7F3F5"/>
<path d="M377.142 182.679C372.454 183.449 369.095 184.708 366.926 186.388C364.826 188.067 363.777 191.706 363.777 197.444V251.885C363.777 254.055 363.637 256.364 363.427 258.743C363.217 261.122 362.867 263.571 362.377 266.09C361.677 269.659 360.698 273.088 359.368 276.517C358.039 279.946 356.289 282.815 354.12 285.054C351.601 287.713 348.662 289.882 345.373 291.562C342.084 293.241 338.655 294.571 335.086 295.481C332.427 296.18 329.908 296.67 327.389 296.95C324.87 297.23 322.561 297.37 320.391 297.37C318.012 297.37 314.863 297.23 311.085 296.88C307.236 296.53 303.317 295.62 299.189 294.151C296.879 293.451 294.57 292.542 292.261 291.352C289.952 290.162 287.713 288.623 285.683 286.803C285.543 286.664 285.403 286.594 285.263 286.454C285.123 286.314 284.913 286.244 284.843 286.104C281.415 282.885 278.756 279.316 276.796 275.257C274.837 271.199 273.857 264.691 273.857 255.804V198.424C273.857 191.706 272.808 187.577 270.778 186.038C268.749 184.498 265.53 183.519 261.192 183.029C260.982 183.029 260.702 183.029 260.492 182.959C260.282 182.889 260.002 182.889 259.792 182.889V178.41H317.662V182.679C317.522 182.819 317.452 182.819 317.312 182.819H316.963C311.504 183.029 307.446 183.868 304.857 185.268C302.268 186.667 301.008 191.146 301.008 198.563V255.594C301.008 257.553 301.078 259.793 301.148 262.382C301.288 264.971 301.638 267.63 302.198 270.359C303.317 275.187 305.626 279.526 308.985 283.375C312.344 287.223 317.942 289.183 325.71 289.183C335.156 289.183 342.014 287.013 346.283 282.675C350.481 278.336 353.28 273.508 354.68 268.26C355.38 265.181 355.799 262.242 355.939 259.373C356.079 256.504 356.219 254.055 356.219 252.025V199.613C356.219 194.505 355.31 190.446 353.42 187.647C351.531 184.778 346.912 183.169 339.495 182.819V178.34H377.142V182.679Z" fill="#1C2D5A"/>
<path d="M54.5519 119.56V57.1409H32.2295V44.4053H91.9892V57.1409H69.7367V119.56H54.5519Z" fill="#F7F3F5"/>
<path d="M54.5519 119.56V57.1409H32.2295V44.4053H91.9892V57.1409H69.7367V119.56H54.5519Z" stroke="#F7F3F5" stroke-width="0.951653" stroke-miterlimit="10" stroke-linecap="round" stroke-linejoin="round"/>
<path d="M101.926 119.56V61.27H148.46V73.166H116.691V83.0326H146.221V94.9286H116.691V107.594H149.58V119.56H101.926Z" fill="#F7F3F5"/>
<path d="M101.926 119.56V61.27H148.46V73.166H116.691V83.0326H146.221V94.9286H116.691V107.594H149.58V119.56H101.926Z" stroke="#F7F3F5" stroke-width="0.951653" stroke-miterlimit="10" stroke-linecap="round" stroke-linejoin="round"/>
<path d="M212.559 100.457C210.6 107.244 207.451 112.283 203.042 115.572C198.634 118.86 193.106 120.47 186.388 120.47C182.189 120.47 178.411 119.77 174.982 118.371C171.553 116.971 168.544 115.012 166.095 112.423C163.576 109.834 161.686 106.755 160.287 103.046C158.887 99.407 158.188 95.2784 158.188 90.8C158.188 86.0416 158.887 81.7031 160.287 77.9243C161.686 74.1456 163.646 70.9267 166.165 68.2676C168.684 65.6085 171.763 63.6492 175.332 62.2497C178.9 60.8502 182.819 60.1504 187.158 60.1504C193.525 60.1504 198.914 61.6899 203.322 64.6988C207.731 67.7078 210.74 72.3262 212.419 78.6241L197.584 81.0033C196.674 77.8544 195.275 75.6151 193.386 74.3556C191.496 73.026 189.187 72.3962 186.458 72.3962C184.569 72.3962 182.749 72.6761 181.14 73.3059C179.53 73.9357 178.131 74.9154 176.941 76.2449C175.752 77.6444 174.842 79.3938 174.212 81.7031C173.582 83.9423 173.232 86.7414 173.232 90.0302C173.232 93.4591 173.582 96.3981 174.212 98.7073C174.842 101.016 175.752 102.906 176.941 104.375C178.131 105.775 179.46 106.825 181.07 107.454C182.679 108.084 184.359 108.364 186.248 108.364C188.907 108.364 191.216 107.524 193.246 105.775C195.275 104.095 196.814 101.366 197.864 97.6576L212.559 100.457Z" fill="#F7F3F5"/>
<path d="M212.559 100.457C210.6 107.244 207.451 112.283 203.042 115.572C198.634 118.86 193.106 120.47 186.388 120.47C182.189 120.47 178.411 119.77 174.982 118.371C171.553 116.971 168.544 115.012 166.095 112.423C163.576 109.834 161.686 106.755 160.287 103.046C158.887 99.407 158.188 95.2784 158.188 90.8C158.188 86.0416 158.887 81.7031 160.287 77.9243C161.686 74.1456 163.646 70.9267 166.165 68.2676C168.684 65.6085 171.763 63.6492 175.332 62.2497C178.9 60.8502 182.819 60.1504 187.158 60.1504C193.525 60.1504 198.914 61.6899 203.322 64.6988C207.731 67.7078 210.74 72.3262 212.419 78.6241L197.584 81.0033C196.674 77.8544 195.275 75.6151 193.386 74.3556C191.496 73.026 189.187 72.3962 186.458 72.3962C184.569 72.3962 182.749 72.6761 181.14 73.3059C179.53 73.9357 178.131 74.9154 176.941 76.2449C175.752 77.6444 174.842 79.3938 174.212 81.7031C173.582 83.9423 173.232 86.7414 173.232 90.0302C173.232 93.4591 173.582 96.3981 174.212 98.7073C174.842 101.016 175.752 102.906 176.941 104.375C178.131 105.775 179.46 106.825 181.07 107.454C182.679 108.084 184.359 108.364 186.248 108.364C188.907 108.364 191.216 107.524 193.246 105.775C195.275 104.095 196.814 101.366 197.864 97.6576L212.559 100.457Z" stroke="#F7F3F5" stroke-width="0.951653" stroke-miterlimit="10" stroke-linecap="round" stroke-linejoin="round"/>
<path d="M223.895 119.56V61.27H238.66V83.1726H260.142V61.27H274.907V119.56H260.142V95.1385H238.66V119.56H223.895Z" fill="#F7F3F5"/>
<path d="M223.895 119.56V61.27H238.66V83.1726H260.142V61.27H274.907V119.56H260.142V95.1385H238.66V119.56H223.895Z" stroke="#F7F3F5" stroke-width="0.951653" stroke-miterlimit="10" stroke-linecap="round" stroke-linejoin="round"/>
<path d="M219.276 272.528C220.396 270.569 221.936 268.54 223.755 266.44C225.574 264.341 229.983 260.142 236.91 253.775C243.838 247.407 248.596 242.578 251.256 239.15C255.244 234.041 258.183 229.143 260.073 224.525C261.892 219.836 262.872 214.938 262.872 209.83C262.872 200.733 259.653 193.175 253.215 187.087C246.777 180.999 237.89 177.92 226.554 177.92C216.267 177.92 207.66 180.58 200.803 185.828C193.945 191.076 189.816 199.753 188.557 211.859L210.459 214.028C210.879 207.59 212.419 203.042 215.148 200.313C217.877 197.584 221.516 196.184 226.064 196.184C230.683 196.184 234.321 197.514 236.98 200.103C239.64 202.762 240.899 206.471 240.899 211.369C240.899 215.778 239.36 220.256 236.351 224.804C234.111 228.093 228.023 234.321 218.157 243.558C205.841 254.964 197.654 264.131 193.455 270.989C189.257 277.916 186.807 285.194 185.968 292.891H262.942V272.528H219.276Z" fill="#0581C1" stroke="#1C2D5A" stroke-width="2.25778" stroke-miterlimit="10" stroke-linecap="round" stroke-linejoin="round"/>
<path d="M290.93 283.165L261.61 261.752V304.577L290.93 283.165Z" fill="#0581C1"/>
<path d="M290.93 283.165L261.61 261.752V304.577L290.93 283.165Z" stroke="#1C2D5A" stroke-width="2.25778" stroke-miterlimit="10" stroke-linecap="round" stroke-linejoin="round"/>
<path d="M169.383 182.678C167.704 181.419 165.815 181.279 163.785 180.929C161.756 180.579 159.867 179.669 157.977 178.97C156.018 178.27 153.779 179.809 153.219 181.629C152.659 183.798 153.989 185.617 155.878 186.387C157.627 187.017 159.377 187.857 161.266 188.277C162.666 188.556 164.205 188.487 165.465 189.326C167.144 190.586 169.733 189.606 170.713 187.927C171.903 185.967 171.063 183.868 169.383 182.678Z" fill="#F7F3F5"/>
<path d="M158.467 184.358C162.875 183.938 166.514 185.828 170.783 186.108C175.751 186.388 175.681 178.69 170.783 178.41C168.823 178.27 167.004 177.361 165.115 177.011C162.945 176.591 160.706 176.451 158.467 176.661C156.368 176.871 154.618 178.27 154.618 180.51C154.618 182.399 156.368 184.568 158.467 184.358Z" fill="#F7F3F5"/>
<path d="M162.735 179.109C166.514 179.319 170.293 179.389 174.071 179.319L162.735 179.109Z" fill="#F7F3F5"/>
<path d="M157.627 187.787H163.225C165.954 187.787 165.954 183.588 163.225 183.588H157.627C154.898 183.588 154.898 187.787 157.627 187.787Z" fill="#F7F3F5"/>
<path d="M166.304 196.114V188.767C166.304 186.037 162.105 186.037 162.105 188.767V196.114C162.105 198.843 166.304 198.843 166.304 196.114Z" fill="#F7F3F5"/>
<path d="M166.163 196.674V187.857C166.163 185.128 161.965 185.128 161.965 187.857V196.674C161.965 199.403 166.163 199.403 166.163 196.674Z" fill="#F7F3F5"/>
<path d="M163.995 196.884C164.555 186.107 154.198 187.087 154.198 187.087" stroke="#F7F3F5" stroke-width="3.27378" stroke-miterlimit="10"/>
<path d="M162.945 176.311H178.34" stroke="#F7F3F5" stroke-width="3.556" stroke-miterlimit="10"/>
<path d="M293.521 157.417V162.945C293.521 163.505 294.011 163.995 294.571 163.995C295.131 163.995 295.621 163.505 295.621 162.945V157.277C295.621 156.717 295.131 156.228 294.571 156.228C294.011 156.228 293.521 156.717 293.521 157.277V158.257C293.521 158.817 294.011 159.306 294.571 159.306C295.131 159.306 295.621 158.817 295.621 158.257V157.277C295.621 156.717 295.131 156.228 294.571 156.228C294.011 156.228 293.521 156.717 293.521 157.277V162.945C293.521 163.505 294.011 163.995 294.571 163.995C295.131 163.995 295.621 163.505 295.621 162.945V157.417C295.621 156.857 295.131 156.368 294.571 156.368C294.011 156.368 293.521 156.787 293.521 157.417Z" fill="#F7F3F5"/>
<path d="M293.451 157.628V163.926C293.451 164.485 293.941 164.975 294.501 164.975C295.061 164.975 295.55 164.485 295.55 163.926V157.628C295.55 157.068 295.061 156.578 294.501 156.578C293.871 156.578 293.451 156.998 293.451 157.628Z" fill="#F7F3F5"/>
<path d="M294.711 157.347C294.711 158.397 294.711 159.377 294.711 160.426C294.711 161.406 294.641 162.455 294.921 163.365C295.201 164.205 296.39 164.485 296.81 163.645C297.3 162.665 297.86 161.686 298.07 160.636C298.35 159.516 298.14 158.397 298.42 157.277C297.72 157.207 297.02 157.067 296.39 156.997C296.46 158.117 296.95 159.167 297.23 160.216C297.44 161.266 297.58 162.316 297.72 163.365C297.86 164.695 299.679 164.695 299.819 163.365C299.889 162.525 299.749 161.126 298.77 160.846C297.65 160.496 297.16 161.756 296.67 162.525L298.56 163.365C298.979 161.616 299.749 160.006 300.519 158.397C301.149 157.137 302.898 154.268 300.729 153.499C300.029 153.289 299.469 153.848 299.399 154.478C299.259 156.298 299.049 158.187 298.909 160.006C298.77 161.826 298.84 163.645 299.749 165.324C300.029 165.744 300.589 165.954 301.079 165.744C301.569 165.534 301.779 165.045 301.709 164.485C301.499 163.155 301.499 161.756 301.639 160.356C301.709 159.726 301.779 159.027 301.988 158.397C302.128 157.767 302.268 157.137 302.618 156.647C301.988 156.577 301.359 156.507 300.729 156.368C301.219 158.957 301.639 161.546 302.478 164.065C302.828 165.185 304.578 165.045 304.508 163.785C304.508 162.595 304.787 161.476 304.997 160.286C305.137 159.726 305.417 159.027 305.207 158.397C304.997 157.697 304.228 157.417 303.598 157.627C300.939 158.467 301.289 161.826 301.359 164.065C301.988 163.855 302.688 163.715 303.318 163.505C302.828 162.316 302.828 160.916 303.108 159.656C303.248 158.957 303.528 158.257 303.738 157.627C303.878 157.207 304.088 156.368 304.508 156.158C304.018 155.948 303.458 155.738 302.968 155.528C303.388 158.257 303.948 160.986 304.717 163.715C304.857 164.205 305.347 164.555 305.837 164.485C306.327 164.415 306.817 163.995 306.747 163.435C306.607 162.316 306.607 161.126 306.607 160.006C306.607 159.516 306.607 158.957 306.607 158.467C306.607 158.187 306.537 157.907 306.397 157.627C306.327 157.487 306.257 157.277 306.327 157.137C306.537 156.577 306.117 156.018 305.627 155.878C305.067 155.738 304.508 156.088 304.368 156.577C304.158 157.137 304.298 157.697 304.508 158.257C304.648 158.747 304.648 159.307 304.648 159.796C304.648 160.986 304.578 162.246 304.787 163.435C305.487 163.365 306.187 163.225 306.817 163.155C306.047 160.496 305.487 157.767 305.067 154.968C304.927 154.198 304.088 154.128 303.528 154.338C302.688 154.688 302.338 155.668 302.058 156.438C301.709 157.277 301.359 158.187 301.149 159.027C300.729 160.846 300.799 162.735 301.569 164.485C301.988 165.464 303.598 164.975 303.528 163.925C303.458 162.945 303.458 161.896 303.528 160.916C303.528 160.636 303.598 160.286 303.738 160.006C303.808 159.866 303.948 159.726 304.088 159.586C304.228 159.516 304.368 159.516 304.228 159.516C304.018 159.447 303.878 159.446 303.668 159.377C303.668 159.377 303.738 159.377 303.738 159.446C303.598 159.237 303.388 159.027 303.248 158.817C303.248 158.607 303.248 158.607 303.178 158.817C303.178 158.957 303.108 159.097 303.108 159.167C303.038 159.377 303.038 159.516 302.968 159.726C302.898 160.146 302.758 160.566 302.688 160.916C302.548 161.756 302.408 162.665 302.408 163.575C303.108 163.505 303.808 163.365 304.438 163.295C303.598 160.776 303.178 158.187 302.688 155.598C302.478 154.618 301.219 154.618 300.799 155.318C299.959 156.647 299.749 158.397 299.609 159.936C299.469 161.546 299.539 163.225 299.749 164.835C300.379 164.555 301.009 164.275 301.639 163.995C300.869 162.595 301.009 160.916 301.149 159.377C301.289 157.627 301.429 155.948 301.569 154.198L300.239 155.178H300.309C300.169 155.108 300.029 154.968 299.819 154.898C299.539 154.688 299.819 154.688 299.679 154.688C299.609 154.688 299.609 155.038 299.539 155.108C299.399 155.458 299.259 155.808 299.119 156.088C298.77 156.787 298.42 157.487 298.14 158.187C297.51 159.586 296.88 160.986 296.53 162.455C296.25 163.575 297.79 164.345 298.42 163.295C298.63 162.945 298.839 162.525 299.119 162.176C298.979 162.316 298.839 162.455 298.77 162.525L298.84 162.455C298.56 162.525 298.28 162.525 298 162.595C298.07 162.595 298.07 162.595 298.14 162.595C298 162.525 297.86 162.386 297.65 162.316C297.51 162.176 297.65 162.385 297.65 162.525C297.65 162.735 297.65 162.875 297.65 163.085H299.749C299.609 161.966 299.469 160.846 299.259 159.796C299.189 159.307 299.049 158.817 298.909 158.327C298.77 157.837 298.49 157.277 298.49 156.787C298.42 155.668 296.67 155.318 296.46 156.507C296.25 157.557 296.39 158.607 296.18 159.656C295.97 160.636 295.551 161.476 295.061 162.316L296.95 162.595C296.67 161.756 296.81 160.846 296.81 160.006C296.81 159.027 296.81 158.117 296.81 157.137C296.81 156.018 294.711 156.018 294.711 157.347Z" fill="#F7F3F5"/>
<path d="M304.647 157.277V163.715C304.647 164.275 305.137 164.765 305.697 164.765C306.257 164.765 306.747 164.275 306.747 163.715V157.277C306.747 156.717 306.257 156.228 305.697 156.228C305.067 156.228 304.647 156.647 304.647 157.277Z" fill="#F7F3F5"/>
<path d="M290.512 164.065C292.961 163.295 294.71 161.406 294.99 158.817" stroke="#F7F3F5" stroke-width="2.25778" stroke-miterlimit="10"/>
<path d="M309.895 164.345C307.376 163.505 305.556 161.406 305.276 158.607" stroke="#F7F3F5" stroke-width="2.38026" stroke-miterlimit="10"/>
<path d="M259.303 276.797C259.233 278.826 259.163 280.855 259.163 282.885C259.093 284.424 259.023 286.523 260.562 287.363C261.682 287.993 262.452 286.803 262.592 285.824C262.732 284.844 262.662 283.794 262.662 282.815C262.662 281.835 262.662 280.925 262.662 279.946C262.662 279.176 262.522 278.196 262.872 277.566H261.052C261.822 278.896 261.892 280.435 261.822 281.905C261.752 283.654 261.472 285.404 261.052 287.083C260.702 288.413 262.732 288.973 263.082 287.643C263.571 285.684 263.851 283.724 263.921 281.765C263.991 279.946 263.781 278.126 262.802 276.517C262.382 275.887 261.402 275.817 260.982 276.517C260.213 277.916 260.493 279.666 260.493 281.205C260.493 282.045 260.493 282.815 260.493 283.654C260.493 284.074 260.493 284.494 260.493 284.914C260.493 285.264 260.563 285.684 260.353 285.964C260.493 285.824 260.632 285.684 260.702 285.614C260.632 285.614 260.632 285.684 260.562 285.684C260.842 285.684 261.122 285.614 261.402 285.544C261.682 285.614 261.542 285.754 261.472 285.544C261.402 285.404 261.332 285.334 261.332 285.194C261.262 284.914 261.192 284.704 261.192 284.424C261.192 283.654 261.192 282.885 261.262 282.045C261.332 280.296 261.332 278.546 261.402 276.797C261.472 275.467 259.373 275.467 259.303 276.797Z" fill="#0581C1"/>
<path d="M258.323 291.491H262.242C263.921 291.491 265.391 290.022 265.391 288.343C265.391 286.663 263.921 285.194 262.242 285.194H256.574C254.894 285.194 253.425 286.663 253.425 288.343C253.425 290.022 254.894 291.491 256.574 291.491H262.242V285.194H258.323C256.644 285.194 255.174 286.663 255.174 288.343C255.174 290.022 256.644 291.491 258.323 291.491Z" fill="#0581C1"/>
<path d="M258.253 280.226H261.542C263.222 280.226 264.761 278.756 264.691 277.077C264.621 275.397 263.292 273.928 261.542 273.928H256.924C255.244 273.928 253.705 275.397 253.775 277.077C253.845 278.756 255.174 280.226 256.924 280.226H261.542V273.928H258.253C256.574 273.928 255.034 275.397 255.104 277.077C255.174 278.826 256.504 280.226 258.253 280.226Z" fill="#0581C1"/>
<path d="M259.653 280.226H262.802C264.481 280.226 266.021 278.756 265.951 277.077C265.881 275.397 264.551 273.928 262.802 273.928H258.393C256.714 273.928 255.175 275.397 255.244 277.077C255.314 278.756 256.644 280.226 258.393 280.226H262.802V273.928H259.653C257.974 273.928 256.434 275.397 256.504 277.077C256.644 278.756 257.904 280.226 259.653 280.226Z" fill="#0581C1"/>
<path d="M257.764 291.421C261.822 291.421 261.822 285.124 257.764 285.124C253.705 285.124 253.705 291.421 257.764 291.421Z" fill="#0581C1"/>
<path d="M259.163 291.492H263.222C264.902 291.492 266.441 290.022 266.371 288.343C266.301 286.663 264.972 285.194 263.222 285.194H258.464C256.784 285.194 255.245 286.663 255.315 288.343C255.385 290.022 256.714 291.492 258.464 291.492H263.222V285.194H259.163C257.484 285.194 255.945 286.663 256.015 288.343C256.085 290.022 257.414 291.492 259.163 291.492Z" fill="#0581C1"/>
<path d="M172.587 325.533H175.465V334.825H172.587V325.533ZM177.551 325.533H180.232L183.731 330.673V325.533H186.438V334.825H183.731L180.251 329.723V334.825H177.551V325.533ZM188.359 325.533H195.458V327.529H191.243V329.152H194.844V331.028H191.243V334.825H188.359V325.533ZM196.644 330.185C196.644 328.668 197.066 327.487 197.912 326.642C198.757 325.797 199.934 325.374 201.442 325.374C202.989 325.374 204.181 325.79 205.018 326.623C205.854 327.451 206.273 328.613 206.273 330.109C206.273 331.195 206.089 332.087 205.721 332.784C205.358 333.477 204.83 334.018 204.136 334.407C203.448 334.792 202.588 334.984 201.557 334.984C200.508 334.984 199.64 334.817 198.951 334.483C198.267 334.149 197.711 333.621 197.284 332.898C196.857 332.176 196.644 331.271 196.644 330.185ZM199.515 330.198C199.515 331.136 199.689 331.81 200.035 332.22C200.386 332.63 200.861 332.835 201.461 332.835C202.078 332.835 202.556 332.634 202.894 332.233C203.232 331.831 203.401 331.111 203.401 330.071C203.401 329.196 203.224 328.558 202.869 328.157C202.518 327.751 202.04 327.548 201.436 327.548C200.857 327.548 200.392 327.753 200.042 328.163C199.691 328.573 199.515 329.251 199.515 330.198ZM207.857 334.825V325.533H212.643C213.531 325.533 214.209 325.609 214.678 325.761C215.147 325.913 215.526 326.196 215.813 326.61C216.1 327.02 216.244 327.521 216.244 328.112C216.244 328.628 216.134 329.074 215.914 329.45C215.695 329.822 215.392 330.124 215.008 330.356C214.763 330.504 214.427 330.627 214 330.724C214.342 330.838 214.592 330.952 214.748 331.066C214.854 331.142 215.006 331.305 215.204 331.555C215.407 331.804 215.542 331.996 215.61 332.131L216.998 334.825H213.753L212.219 331.986C212.024 331.618 211.851 331.379 211.699 331.269C211.492 331.126 211.257 331.054 210.995 331.054H210.742V334.825H207.857ZM210.742 329.298H211.952C212.083 329.298 212.337 329.256 212.713 329.171C212.903 329.133 213.058 329.036 213.176 328.879C213.298 328.723 213.36 328.544 213.36 328.341C213.36 328.041 213.265 327.81 213.074 327.65C212.884 327.489 212.527 327.409 212.003 327.409H210.742V329.298ZM217.892 325.533H221.67L223.128 331.187L224.58 325.533H228.345V334.825H226V327.738L224.18 334.825H222.057L220.244 327.738V334.825H217.892V325.533ZM230.177 325.533H237.873V327.517H233.055V328.994H237.524V330.889H233.055V332.721H238.012V334.825H230.177V325.533ZM239.603 325.533H243.869C244.71 325.533 245.388 325.647 245.904 325.875C246.424 326.103 246.853 326.431 247.191 326.857C247.529 327.284 247.774 327.781 247.926 328.347C248.078 328.913 248.154 329.513 248.154 330.147C248.154 331.14 248.04 331.912 247.812 332.461C247.588 333.006 247.275 333.465 246.874 333.837C246.472 334.204 246.041 334.449 245.581 334.572C244.951 334.741 244.381 334.825 243.869 334.825H239.603V325.533ZM242.475 327.637V332.715H243.178C243.778 332.715 244.205 332.649 244.459 332.518C244.712 332.383 244.911 332.15 245.055 331.821C245.198 331.487 245.27 330.948 245.27 330.204C245.27 329.22 245.11 328.546 244.788 328.182C244.467 327.819 243.935 327.637 243.191 327.637H242.475ZM254.012 325.533H259.387C260.283 325.533 260.97 325.754 261.447 326.198C261.929 326.642 262.17 327.191 262.17 327.846C262.17 328.396 261.999 328.867 261.656 329.26C261.428 329.522 261.094 329.729 260.655 329.881C261.323 330.042 261.813 330.318 262.125 330.711C262.442 331.1 262.601 331.59 262.601 332.182C262.601 332.664 262.489 333.097 262.265 333.482C262.041 333.866 261.735 334.17 261.346 334.394C261.105 334.534 260.741 334.635 260.255 334.699C259.609 334.783 259.18 334.825 258.969 334.825H254.012V325.533ZM256.908 329.177H258.157C258.605 329.177 258.916 329.101 259.089 328.949C259.267 328.793 259.355 328.569 259.355 328.277C259.355 328.007 259.267 327.796 259.089 327.643C258.916 327.491 258.612 327.415 258.176 327.415H256.908V329.177ZM256.908 332.829H258.373C258.867 332.829 259.216 332.742 259.419 332.569C259.622 332.391 259.723 332.155 259.723 331.859C259.723 331.584 259.622 331.364 259.419 331.2C259.22 331.031 258.869 330.946 258.366 330.946H256.908V332.829ZM263.171 325.533H266.36L268.236 328.67L270.113 325.533H273.282L269.669 330.933V334.825H266.791V330.933L263.171 325.533ZM277.897 325.533H286.626V327.827H283.697V334.825H280.825V327.827H277.897V325.533ZM288.046 325.533H290.923V334.825H288.046V325.533ZM292.99 325.533H295.861V332.537H300.343V334.825H292.99V325.533Z" fill="#1C2D5A"/>
<path d="M176.381 325.43H172.812V336.976H176.381V325.43Z" fill="#1C2D5A"/>
<path d="M178.97 336.906H182.329V330.608L186.667 336.906H190.026V325.43H186.667V331.798L182.329 325.43H178.97V336.906Z" fill="#1C2D5A"/>
<path d="M192.406 336.906H195.975V332.217H200.454V329.908H195.975V327.879H201.223V325.43H192.406V336.906Z" fill="#1C2D5A"/>
<path d="M206.891 328.649C207.31 328.159 207.87 327.879 208.64 327.879C209.41 327.879 209.97 328.159 210.389 328.649C210.809 329.139 211.019 329.908 211.019 331.028C211.019 332.288 210.809 333.197 210.389 333.687C209.97 334.177 209.41 334.457 208.64 334.457C207.87 334.457 207.31 334.177 206.891 333.687C206.471 333.197 206.261 332.358 206.261 331.168C206.191 329.978 206.471 329.139 206.891 328.649ZM203.462 334.527C204.022 335.437 204.651 336.066 205.561 336.486C206.401 336.906 207.52 337.116 208.78 337.116C210.04 337.116 211.159 336.906 211.999 336.416C212.839 335.926 213.538 335.297 213.958 334.387C214.378 333.547 214.658 332.428 214.658 331.098C214.658 329.209 214.168 327.809 213.119 326.759C212.069 325.71 210.599 325.22 208.71 325.22C206.821 325.22 205.351 325.71 204.301 326.759C203.252 327.809 202.762 329.279 202.762 331.168C202.692 332.498 202.902 333.617 203.462 334.527Z" fill="#1C2D5A"/>
<path d="M220.116 327.739H221.655C222.285 327.739 222.775 327.809 222.985 328.019C223.195 328.229 223.335 328.509 223.335 328.859C223.335 329.138 223.265 329.348 223.125 329.558C222.985 329.768 222.775 329.838 222.565 329.908C222.075 330.048 221.795 330.048 221.655 330.048H220.186V327.739H220.116ZM220.116 336.906V332.217H220.396C220.746 332.217 221.026 332.287 221.236 332.497C221.446 332.637 221.655 332.917 221.865 333.407L223.755 336.906H227.743L225.994 333.547C225.924 333.407 225.714 333.127 225.504 332.847C225.224 332.567 225.084 332.357 224.944 332.217C224.734 332.078 224.454 331.938 224.035 331.798C224.594 331.658 225.014 331.518 225.294 331.308C225.784 331.028 226.134 330.678 226.414 330.188C226.694 329.698 226.834 329.208 226.834 328.509C226.834 327.809 226.624 327.179 226.274 326.619C225.924 326.13 225.434 325.78 224.874 325.57C224.315 325.36 223.475 325.29 222.355 325.29H216.407V336.836L220.116 336.906Z" fill="#1C2D5A"/>
<path d="M229.004 336.906H231.943V328.159L234.182 336.906H236.771L239.011 328.159V336.906H241.95V325.43H237.261L235.512 332.427L233.692 325.43H229.004V336.906Z" fill="#1C2D5A"/>
<path d="M244.188 336.906H253.914V334.317H247.756V332.008H253.354V329.698H247.756V327.879H253.774V325.43H244.188V336.906Z" fill="#1C2D5A"/>
<path d="M260.353 328.019C261.262 328.019 261.962 328.229 262.312 328.718C262.732 329.138 262.942 329.978 262.942 331.238C262.942 332.147 262.872 332.847 262.662 333.267C262.452 333.687 262.242 333.967 261.892 334.107C261.542 334.247 261.052 334.386 260.283 334.386H259.443V328.089H260.353V328.019ZM255.874 336.906H261.192C261.822 336.906 262.522 336.836 263.292 336.626C263.851 336.486 264.411 336.136 264.901 335.716C265.391 335.226 265.811 334.666 266.091 334.037C266.37 333.337 266.51 332.427 266.51 331.168C266.51 330.398 266.44 329.628 266.23 328.928C266.021 328.229 265.741 327.599 265.321 327.109C264.901 326.549 264.341 326.199 263.711 325.919C263.082 325.639 262.242 325.5 261.192 325.5H255.874V336.906Z" fill="#1C2D5A"/>
<path d="M277.357 332.077H279.176C279.806 332.077 280.226 332.147 280.505 332.357C280.785 332.567 280.855 332.847 280.855 333.197C280.855 333.547 280.715 333.827 280.505 334.107C280.226 334.317 279.806 334.457 279.176 334.457H277.357V332.077ZM277.357 327.739H278.896C279.456 327.739 279.806 327.809 280.016 328.019C280.226 328.229 280.366 328.439 280.366 328.789C280.366 329.138 280.226 329.418 280.016 329.628C279.806 329.838 279.386 329.908 278.826 329.908H277.287V327.739H277.357ZM273.718 336.906H279.876C280.156 336.906 280.645 336.836 281.485 336.766C282.115 336.696 282.535 336.556 282.815 336.416C283.305 336.136 283.654 335.786 283.934 335.296C284.214 334.806 284.354 334.317 284.354 333.687C284.354 332.987 284.144 332.357 283.794 331.868C283.375 331.378 282.815 331.028 281.975 330.818C282.535 330.608 282.955 330.398 283.235 330.048C283.654 329.558 283.864 328.998 283.864 328.299C283.864 327.459 283.584 326.829 282.955 326.269C282.325 325.71 281.485 325.43 280.366 325.43H273.718V336.906Z" fill="#1C2D5A"/>
<path d="M289.603 332.078V336.906H293.172V332.078L297.65 325.43H293.662L291.353 329.279L289.043 325.43H285.055L289.603 332.078Z" fill="#1C2D5A"/>
<path d="M303.317 328.229H306.956V336.906H310.525V328.229H314.164V325.43H303.317V328.229Z" fill="#1C2D5A"/>
<path d="M319.483 325.43H315.914V336.976H319.483V325.43Z" fill="#1C2D5A"/>
<path d="M322.001 336.906H331.168V334.107H325.57V325.43H322.001V336.906Z" fill="#1C2D5A"/>
</svg>
