<svg width="156" height="172" viewBox="0 0 156 172" fill="none" xmlns="http://www.w3.org/2000/svg">
<path d="M100.632 144.865L100.632 11.5586L2.00023 11.5586L2.00022 144.865L100.632 144.865Z" fill="#7FCFE7" stroke="#1A2D59" stroke-width="3.8528" stroke-linejoin="round"/>
<path d="M114.502 157.965L114.502 23.8875L15.8703 23.8874L15.8703 157.965L114.502 157.965Z" fill="#F1F1F1" stroke="#1A2D59" stroke-width="3.8528" stroke-linejoin="round"/>
<line x1="1.9264" y1="-1.9264" x2="16.3445" y2="-1.9264" transform="matrix(0.5 -0.866025 -0.866025 -0.5 117.265 15.823)" stroke="#012A5D" stroke-width="3.8528" stroke-linecap="round"/>
<line x1="1.9264" y1="-1.9264" x2="16.3445" y2="-1.9264" transform="matrix(0.888899 -0.458103 -0.458103 -0.888899 124.423 18.2029)" stroke="#012A5D" stroke-width="3.8528" stroke-linecap="round"/>
<line x1="1.9264" y1="-1.9264" x2="16.3445" y2="-1.9264" transform="matrix(1 2.98023e-08 2.98023e-08 -1 124.173 25.5657)" stroke="#012A5D" stroke-width="3.8528" stroke-linecap="round"/>
<circle cx="47.8485" cy="56.6363" r="17.7229" fill="white" stroke="#1A2D59" stroke-width="3.8528"/>
<line x1="98.7054" y1="101.329" x2="30.1256" y2="101.329" stroke="#1A2D59" stroke-width="3.8528" stroke-linecap="round"/>
<line x1="68.6537" y1="89.7706" x2="30.1257" y2="89.7706" stroke="#1A2D59" stroke-width="3.8528" stroke-linecap="round"/>
<line x1="98.7054" y1="112.887" x2="30.1256" y2="112.887" stroke="#1A2D59" stroke-width="3.8528" stroke-linecap="round"/>
<line x1="98.7054" y1="125.216" x2="30.1256" y2="125.216" stroke="#1A2D59" stroke-width="3.8528" stroke-linecap="round"/>
<line x1="98.7054" y1="136.775" x2="30.1256" y2="136.775" stroke="#1A2D59" stroke-width="3.8528" stroke-linecap="round"/>
<path d="M117.782 121.471L151.758 156.11C153.194 157.55 154 159.498 154 161.529C154 163.559 153.194 165.507 151.758 166.947C150.314 168.378 148.36 169.182 146.323 169.182C144.287 169.182 142.333 168.378 140.889 166.947L106.23 131.627" fill="#BFE7F3"/>
<path d="M117.782 121.471L151.758 156.11C153.194 157.55 154 159.498 154 161.529C154 163.559 153.194 165.507 151.758 166.947C150.314 168.378 148.36 169.182 146.323 169.182C144.287 169.182 142.333 168.378 140.889 166.947L106.23 131.627" stroke="#1B2E5B" stroke-width="3.8528" stroke-linecap="round" stroke-linejoin="round"/>
<path fill-rule="evenodd" clip-rule="evenodd" d="M125.671 103.429C125.671 122.251 110.234 137.508 91.1909 137.508C72.1481 137.508 56.7109 122.251 56.7109 103.429C56.7109 84.608 72.1481 69.3503 91.1909 69.3503C110.234 69.3503 125.671 84.608 125.671 103.429ZM111.421 103.64C111.421 114.918 102.278 124.06 91.0009 124.06C79.7233 124.06 70.5811 114.918 70.5811 103.64C70.5811 92.3627 79.7233 83.2205 91.0009 83.2205C102.278 83.2205 111.421 92.3627 111.421 103.64Z" fill="#BFE7F3"/>
<path d="M91.1909 139.435C111.276 139.435 127.597 123.336 127.597 103.429H123.744C123.744 121.166 109.191 135.582 91.1909 135.582V139.435ZM54.7845 103.429C54.7845 123.336 71.1055 139.435 91.1909 139.435V135.582C73.1908 135.582 58.6373 121.166 58.6373 103.429H54.7845ZM91.1909 67.4239C71.1055 67.4239 54.7845 83.5229 54.7845 103.429H58.6373C58.6373 85.6931 73.1908 71.2767 91.1909 71.2767V67.4239ZM127.597 103.429C127.597 83.5229 111.276 67.4239 91.1909 67.4239V71.2767C109.191 71.2767 123.744 85.6931 123.744 103.429H127.597ZM91.0009 125.987C103.342 125.987 113.347 115.982 113.347 103.64H109.494C109.494 113.854 101.215 122.134 91.0009 122.134V125.987ZM68.6547 103.64C68.6547 115.982 78.6594 125.987 91.0009 125.987V122.134C80.7872 122.134 72.5075 113.854 72.5075 103.64H68.6547ZM91.0009 81.2941C78.6594 81.2941 68.6547 91.2988 68.6547 103.64H72.5075C72.5075 93.4266 80.7872 85.1469 91.0009 85.1469V81.2941ZM113.347 103.64C113.347 91.2988 103.342 81.2941 91.0009 81.2941V85.1469C101.215 85.1469 109.494 93.4266 109.494 103.64H113.347Z" fill="#1B2E5B"/>
</svg>
