<svg width="150" height="130" viewBox="0 0 150 130" fill="none" xmlns="http://www.w3.org/2000/svg">
<path d="M22.2095 87.2327H2V128H22.2095V87.2327Z" stroke="#1B2E5B" stroke-width="4" stroke-linecap="round" stroke-linejoin="round"/>
<path d="M23.2969 94.55C23.2969 94.55 50.4751 79.5671 72.7752 85.4905L90.5456 86.1874C90.5456 86.1874 100.302 85.1421 100.302 92.1109C100.302 99.0797 98.2113 101.519 90.5456 101.519H60.5799" stroke="#1B2E5B" stroke-width="4" stroke-linecap="round" stroke-linejoin="round"/>
<path d="M22.2529 122.077C22.2529 122.077 145.6 146.467 147.343 80.6123C147.343 80.6123 148.039 70.5076 136.193 70.5076C124.346 70.5076 126.785 78.5217 120.861 84.7936C117.461 88.3939 100.087 90.4482 100.087 90.4482" stroke="#1B2E5B" stroke-width="4" stroke-linecap="round" stroke-linejoin="round"/>
<path d="M110.891 36.3992L116.637 30.6537C118.041 29.2494 118.83 27.3448 118.83 25.3589C118.83 23.3729 118.041 21.4683 116.637 20.064V20.064C115.233 18.6598 113.328 17.8708 111.342 17.8708C109.356 17.8708 107.452 18.6598 106.047 20.064L100.302 25.8095L94.5563 20.064C93.152 18.6598 91.2474 17.8708 89.2615 17.8708C87.2755 17.8708 85.3709 18.6598 83.9666 20.064C82.5623 21.4683 81.7734 23.3729 81.7734 25.3589C81.7734 27.3448 82.5623 29.2494 83.9666 30.6537L100.302 46.9889L110.891 36.3992Z" stroke="#1B2E5B" stroke-width="2.40758" stroke-linecap="round" stroke-linejoin="round"/>
<path d="M100.3 57.762C115.698 57.762 128.181 45.2792 128.181 29.881C128.181 14.4827 115.698 2 100.3 2C84.9017 2 72.4189 14.4827 72.4189 29.881C72.4189 45.2792 84.9017 57.762 100.3 57.762Z" stroke="#1B2E5B" stroke-width="4" stroke-linecap="round" stroke-linejoin="round"/>
<path d="M45.8934 73.3751C55.8802 73.3751 63.9762 65.2791 63.9762 55.2923C63.9762 45.3054 55.8802 37.2095 45.8934 37.2095C35.9065 37.2095 27.8105 45.3054 27.8105 55.2923C27.8105 65.2791 35.9065 73.3751 45.8934 73.3751Z" stroke="#1B2E5B" stroke-width="4" stroke-linecap="round" stroke-linejoin="round"/>
<path d="M45.9734 46.291L48.8501 52.1196L55.2825 53.0545L50.6278 57.5916L51.7268 63.9978L45.9734 60.9733L40.2201 63.9978L41.3188 57.5916L36.6641 53.0545L43.0968 52.1196L45.9734 46.291Z" stroke="#1B2E5B" stroke-width="2.40758" stroke-linecap="round" stroke-linejoin="round"/>
</svg>
