<svg width="100" height="134" viewBox="0 0 100 134" fill="none" xmlns="http://www.w3.org/2000/svg">
<path d="M28.4816 41.1858C23.3846 45.1795 19.264 50.2814 16.4322 56.1046C13.6005 61.9278 12.1318 68.3194 12.1377 74.7946" stroke="#1B2E5B" stroke-width="4" stroke-linecap="round" stroke-linejoin="round"/>
<path d="M12.1377 75.5187L2 85.6564L13.5859 85.8525V114.621H26.62V132H75.996V111.918L76.002 111.928C82.1278 108.439 87.2951 103.488 91.0433 97.5172C94.7916 91.5462 97.0044 84.7407 97.4845 77.7071C97.9646 70.6735 96.6971 63.6304 93.7949 57.2055C90.8928 50.7806 86.4461 45.1736 80.8514 40.884" stroke="#1B2E5B" stroke-width="4" stroke-linecap="round" stroke-linejoin="round"/>
<path d="M54.5766 61.0085L60.12 72.2406L72.5153 74.0418L63.546 82.785L65.6635 95.1303L54.5766 89.3015L43.4895 95.1303L45.607 82.785L36.6377 74.0418L49.0329 72.2406L54.5766 61.0085Z" stroke="#1B2E5B" stroke-width="4" stroke-linecap="round" stroke-linejoin="round"/>
<path d="M54.4943 35.294L13.9258 18.647L54.4943 2L95.0628 18.647L54.4943 35.294Z" stroke="#1B2E5B" stroke-width="4" stroke-linecap="round" stroke-linejoin="round"/>
<path d="M83.0573 23.5732V36.5874H82.9373C82.9373 43.33 70.203 46.7561 54.4945 46.7561C38.7859 46.7561 26.0516 43.33 26.0516 36.5874H25.9316V23.5732" stroke="#1B2E5B" stroke-width="4" stroke-linecap="round" stroke-linejoin="round"/>
</svg>
