<svg width="200" height="159" viewBox="0 0 200 159" fill="none" xmlns="http://www.w3.org/2000/svg">
<path d="M127.447 32.3716L188.328 32.3716" stroke="#1B2E5B" stroke-width="4.2597"/>
<path d="M168.184 32.3718V16.2563" stroke="#1B2E5B" stroke-width="4.2597"/>
<path d="M176.689 48.487V32.3716" stroke="#1B2E5B" stroke-width="4.2597"/>
<path d="M166.622 6.62776C169.462 5.78976 172.395 7.41921 173.233 10.2591C174.071 13.099 172.441 16.032 169.601 16.87C166.762 17.708 163.829 16.032 162.991 13.2387C162.153 10.3988 163.782 7.46577 166.622 6.62776Z" fill="#BFE7F3" stroke="#1B2E5B" stroke-width="4.2597"/>
<path d="M150.996 27.22C153.836 26.382 156.769 28.0115 157.607 30.8514C158.445 33.6913 156.815 36.6243 153.975 37.4623C151.136 38.3003 148.203 36.6243 147.365 33.831C146.527 30.9911 148.156 28.0581 150.996 27.22Z" fill="#BFE7F3" stroke="#1B2E5B" stroke-width="4.2597"/>
<path d="M175.169 46.9166C178.009 46.0786 180.942 47.708 181.78 50.5479C182.618 53.3878 180.988 56.3208 178.148 57.1589C175.308 57.9969 172.375 56.3208 171.537 53.5275C170.699 50.6876 172.329 47.7546 175.169 46.9166Z" fill="#BFE7F3" stroke="#1B2E5B" stroke-width="4.2597"/>
<path d="M190.412 26.1341C193.252 25.2961 196.185 26.9256 197.023 29.7655C197.861 32.6054 196.231 35.5384 193.391 36.3764C190.552 37.2144 187.619 35.5849 186.781 32.745C185.989 29.9051 187.572 26.9721 190.412 26.1341Z" fill="#BFE7F3" stroke="#1B2E5B" stroke-width="4.2597"/>
<path d="M7.9248 124.14H27.1738V142.429H45.0799" stroke="#1B2E5B" stroke-width="4.2597"/>
<path d="M45.0791 115.57V150.935H56.718" stroke="#1B2E5B" stroke-width="4.2597"/>
<path d="M25.6531 148.476C28.4931 149.314 31.4261 147.685 32.2641 144.845C33.1021 142.005 31.4726 139.072 28.6327 138.234C25.7928 137.396 22.8598 139.072 22.0218 141.865C21.1838 144.705 22.8132 147.638 25.6531 148.476Z" fill="#BFE7F3" stroke="#1B2E5B" stroke-width="4.2597"/>
<path d="M55.1981 156.534C58.038 157.372 60.971 155.742 61.809 152.903C62.647 150.063 61.0175 147.13 58.1776 146.292C55.3377 145.454 52.4047 147.13 51.5667 149.923C50.7287 152.763 52.3582 155.696 55.1981 156.534Z" fill="#BFE7F3" stroke="#1B2E5B" stroke-width="4.2597"/>
<path d="M27.1729 98.6238H54.032" stroke="#1B2E5B" stroke-width="4.2597"/>
<path d="M21.8018 124.588L21.8018 101.31" stroke="#1B2E5B" stroke-width="4.2597"/>
<path d="M20.2811 103.711C23.121 104.549 26.054 102.919 26.892 100.08C27.73 97.2396 26.1005 94.3066 23.2606 93.4686C20.4207 92.6306 17.4877 94.3066 16.6497 97.0999C15.8117 99.9398 17.4412 102.873 20.2811 103.711Z" fill="#BFE7F3" stroke="#1B2E5B" stroke-width="4.2597"/>
<path d="M43.5584 120.722C46.3983 121.56 49.3313 119.93 50.1693 117.09C51.0074 114.25 49.3779 111.317 46.538 110.479C43.6981 109.641 40.7651 111.317 39.9271 114.111C39.0891 116.951 40.7185 119.884 43.5584 120.722Z" fill="#BFE7F3" stroke="#1B2E5B" stroke-width="4.2597"/>
<path d="M6.85139 129.675C9.69129 130.513 12.6243 128.883 13.4623 126.043C14.3003 123.203 12.6708 120.27 9.83094 119.432C6.99104 118.594 4.05805 120.27 3.22005 123.064C2.38204 125.904 4.01149 128.837 6.85139 129.675Z" fill="#BFE7F3" stroke="#1B2E5B" stroke-width="4.2597"/>
<path d="M141.015 83.5378H166.573V70.7587" stroke="#1B2E5B" stroke-width="4.2597"/>
<path d="M164.887 72.2426C167.726 73.0806 170.659 71.4512 171.497 68.6112C172.335 65.7713 170.706 62.8383 167.866 62.0003C165.026 61.1623 162.093 62.8383 161.255 65.6317C160.417 68.4716 162.047 71.4046 164.887 72.2426Z" fill="#BFE7F3" stroke="#1B2E5B" stroke-width="4.2597"/>
<path d="M162.739 85.2122V97.9913H188.723V80.1006" stroke="#1B2E5B" stroke-width="4.2597"/>
<path d="M187.463 83.3178C190.303 84.1558 193.236 82.5263 194.074 79.6864C194.912 76.8465 193.282 73.9135 190.442 73.0755C187.602 72.2375 184.669 73.9135 183.831 76.7069C182.993 79.5468 184.623 82.4798 187.463 83.3178Z" fill="#BFE7F3" stroke="#1B2E5B" stroke-width="4.2597"/>
<path d="M176.796 97.9912V110.344" stroke="#1B2E5B" stroke-width="4.2597"/>
<path d="M175.536 118.247C178.376 119.085 181.309 117.456 182.147 114.616C182.985 111.776 181.355 108.843 178.516 108.005C175.676 107.167 172.743 108.843 171.905 111.636C171.067 114.476 172.696 117.409 175.536 118.247Z" fill="#BFE7F3" stroke="#1B2E5B" stroke-width="4.2597"/>
<path d="M128.235 34.5217L128.235 8.1116" stroke="#1B2E5B" stroke-width="4.2597"/>
<path d="M129.955 3.22005C127.115 2.38204 124.182 4.01149 123.344 6.8514C122.506 9.6913 124.136 12.6243 126.976 13.4623C129.816 14.3003 132.749 12.6243 133.587 9.83097C134.425 6.99107 132.795 4.05805 129.955 3.22005Z" fill="#BFE7F3" stroke="#1B2E5B" stroke-width="4.2597"/>
<circle cx="98.686" cy="72.5485" r="53.267" fill="#7FCFE7" stroke="#1A2D59" stroke-width="4.2597"/>
<path d="M100.54 100.121H93.7447C93.4635 100.12 93.185 100.197 92.925 100.346C92.665 100.495 92.4287 100.715 92.2296 100.992C92.0305 101.269 91.8726 101.598 91.7648 101.96C91.657 102.322 91.6016 102.711 91.6016 103.103C91.6016 103.894 91.8267 104.652 92.2275 105.212C92.6283 105.771 93.1719 106.085 93.7387 106.085H100.54C101.106 106.085 101.65 105.771 102.051 105.212C102.452 104.652 102.677 103.894 102.677 103.103C102.677 102.312 102.452 101.554 102.051 100.995C101.65 100.436 101.106 100.121 100.54 100.121Z" fill="white" stroke="#012A5D" stroke-width="4.12195" stroke-linecap="round" stroke-linejoin="round"/>
<path d="M126.532 85.7876C126.532 85.7876 120.473 101.217 103.351 102.976" stroke="#012A5D" stroke-width="4.12195" stroke-linecap="round" stroke-linejoin="round"/>
<path d="M70.9032 64.5579C69.8403 64.5579 68.8209 64.9801 68.0693 65.7317C67.3177 66.4833 66.8955 67.5027 66.8955 68.5656V82.2143C66.8955 83.2772 67.3177 84.2966 68.0693 85.0482C68.8209 85.7998 69.8403 86.222 70.9032 86.222C71.9661 86.222 72.9855 85.7998 73.7371 85.0482C74.4887 84.2966 74.911 83.2772 74.911 82.2143V68.5656C74.911 67.5027 74.4887 66.4833 73.7371 65.7317C72.9855 64.9801 71.9661 64.5579 70.9032 64.5579Z" fill="white" stroke="#012A5D" stroke-width="4.12195" stroke-linecap="round" stroke-linejoin="round"/>
<path d="M126.381 64.5579C125.318 64.5579 124.298 64.9801 123.547 65.7317C122.795 66.4833 122.373 67.5027 122.373 68.5656V82.2143C122.373 83.2772 122.795 84.2966 123.547 85.0482C124.298 85.7998 125.318 86.222 126.381 86.222C127.444 86.222 128.463 85.7998 129.215 85.0482C129.966 84.2966 130.389 83.2772 130.389 82.2143V68.5656C130.389 67.5027 129.966 66.4833 129.215 65.7317C128.463 64.9801 127.444 64.5579 126.381 64.5579Z" fill="white" stroke="#012A5D" stroke-width="4.12195" stroke-linecap="round" stroke-linejoin="round"/>
<path d="M70.9033 64.1852C70.9033 64.1852 72.2367 41.3712 98.0323 41.3374C123.414 41.3019 126.38 64.1852 126.38 64.1852" stroke="#012A5D" stroke-width="4.12195" stroke-linecap="round" stroke-linejoin="round"/>
</svg>
