<svg width="89" height="63" viewBox="0 0 89 63" fill="none" xmlns="http://www.w3.org/2000/svg">
<path d="M76.6865 1.00008H11.6574C11.2261 1.00008 10.8125 1.17468 10.5075 1.48547C10.2026 1.79626 10.0312 2.21778 10.0312 2.65731V46.7555C10.0312 47.195 10.2026 47.6165 10.5075 47.9273C10.8125 48.2381 11.2261 48.4127 11.6574 48.4127H76.702C77.1333 48.4127 77.5469 48.2381 77.8519 47.9273C78.1568 47.6165 78.3281 47.195 78.3281 46.7555V2.65731C78.3281 2.43834 78.2856 2.22154 78.2029 2.01944C78.1202 1.81734 77.999 1.63395 77.8464 1.47985C77.6938 1.32575 77.5127 1.20402 77.3136 1.12167C77.1145 1.03932 76.9014 0.99799 76.6865 1.00008Z" fill="#F1F1F1" stroke="#012A5D" stroke-width="1.17403" stroke-miterlimit="10"/>
<path d="M42.8307 48.4126H76.6978C77.732 48.4655 78.7169 48.8632 79.4898 49.54L87.0004 56.8806C87.6208 57.49 87.4192 58.008 86.5257 58.008H2.40233C1.50888 58.008 1.29483 57.5022 1.93079 56.8806L9.4382 49.54C10.2112 48.8632 11.1961 48.4655 12.2302 48.4126H42.8307Z" fill="#F1F1F1" stroke="#012A5D" stroke-width="1.17403" stroke-miterlimit="10"/>
<path d="M86.3725 56.6958H2.61879C2.18918 56.697 1.77744 56.9397 1.47395 57.3709C1.17045 57.802 0.999999 58.3862 1 58.9954V59.705C1 60.3137 1.17055 60.8975 1.47413 61.3279C1.77771 61.7583 2.18946 62.0001 2.61879 62.0001H86.3725C86.8019 62.0001 87.2136 61.7583 87.5172 61.3279C87.8208 60.8975 87.9913 60.3137 87.9913 59.705V58.9954C87.9913 58.3862 87.8209 57.802 87.5174 57.3709C87.2139 56.9397 86.8021 56.697 86.3725 56.6958Z" fill="#F1F1F1" stroke="#012A5D" stroke-width="1.17403" stroke-linejoin="round"/>
<path d="M73.8128 7.02075H15.1113V42.0159H73.8128V7.02075Z" fill="#BFE7F3" stroke="#012A5D" stroke-width="1.17403" stroke-linejoin="round"/>
<path fill-rule="evenodd" clip-rule="evenodd" d="M9.63757 40.069L20.4645 34.8848L20.6627 46.8872L16.8246 44.5136L12.4285 51.6222L9.29062 49.6817L13.6868 42.5731L9.63757 40.069Z" fill="#F1F1F1"/>
<path d="M20.4645 34.8848L20.211 34.3554L21.0363 33.9602L21.0514 34.8751L20.4645 34.8848ZM9.63757 40.069L9.32882 40.5682L8.41539 40.0033L9.38406 39.5395L9.63757 40.069ZM20.6627 46.8872L21.2497 46.8775L21.2674 47.9514L20.354 47.3865L20.6627 46.8872ZM16.8246 44.5136L16.3253 44.2049L16.6341 43.7056L17.1333 44.0144L16.8246 44.5136ZM12.4285 51.6222L12.9277 51.931L12.619 52.4302L12.1197 52.1215L12.4285 51.6222ZM9.29062 49.6817L8.98187 50.1809L8.48261 49.8722L8.79137 49.3729L9.29062 49.6817ZM13.6868 42.5731L13.9955 42.0738L14.4948 42.3826L14.186 42.8818L13.6868 42.5731ZM20.718 35.4143L9.89109 40.5984L9.38406 39.5395L20.211 34.3554L20.718 35.4143ZM20.0758 46.8969L19.8775 34.8945L21.0514 34.8751L21.2497 46.8775L20.0758 46.8969ZM17.1333 44.0144L20.9715 46.388L20.354 47.3865L16.5158 45.0129L17.1333 44.0144ZM11.9292 51.3135L16.3253 44.2049L17.3239 44.8224L12.9277 51.931L11.9292 51.3135ZM9.59938 49.1824L12.7372 51.1229L12.1197 52.1215L8.98187 50.1809L9.59938 49.1824ZM14.186 42.8818L9.78988 49.9904L8.79137 49.3729L13.1875 42.2643L14.186 42.8818ZM9.94633 39.5697L13.9955 42.0738L13.378 43.0723L9.32882 40.5682L9.94633 39.5697Z" fill="#012A5D"/>
<path d="M21.8305 14.1334V21.5378H20.4892V14.1334H21.8305ZM24.534 18.2839V21.5378H23.2252V15.9845H24.4761V16.9282H24.5412C24.669 16.6172 24.8726 16.3702 25.1522 16.187C25.4342 16.0038 25.7825 15.9122 26.1971 15.9122C26.5803 15.9122 26.9141 15.9942 27.1986 16.1581C27.4854 16.322 27.7071 16.5594 27.8638 16.8703C28.0229 17.1812 28.1012 17.5585 28.0988 18.0019V21.5378H26.79V18.2044C26.79 17.8332 26.6936 17.5428 26.5008 17.3331C26.3104 17.1234 26.0464 17.0185 25.709 17.0185C25.48 17.0185 25.2763 17.0692 25.098 17.1704C24.922 17.2692 24.7834 17.4126 24.6822 17.6006C24.5834 17.7886 24.534 18.0164 24.534 18.2839ZM33.8184 17.4524L32.6253 17.5826C32.5916 17.462 32.5325 17.3488 32.4482 17.2427C32.3662 17.1367 32.2553 17.0511 32.1155 16.986C31.9758 16.9209 31.8046 16.8884 31.6022 16.8884C31.3298 16.8884 31.1008 16.9474 30.9152 17.0655C30.732 17.1837 30.6417 17.3367 30.6441 17.5247C30.6417 17.6862 30.7007 17.8176 30.8212 17.9188C30.9441 18.02 31.1466 18.1032 31.4286 18.1683L32.3759 18.3707C32.9013 18.484 33.2918 18.6636 33.5473 18.9094C33.8052 19.1553 33.9353 19.477 33.9377 19.8747C33.9353 20.2242 33.8329 20.5328 33.6304 20.8003C33.4304 21.0654 33.152 21.2727 32.7953 21.4221C32.4385 21.5716 32.0288 21.6463 31.566 21.6463C30.8863 21.6463 30.3392 21.5041 29.9246 21.2197C29.51 20.9329 29.263 20.534 29.1834 20.023L30.4597 19.9C30.5175 20.1507 30.6405 20.3399 30.8285 20.4677C31.0165 20.5954 31.2611 20.6593 31.5624 20.6593C31.8733 20.6593 32.1228 20.5954 32.3108 20.4677C32.5012 20.3399 32.5964 20.1821 32.5964 19.9941C32.5964 19.835 32.5349 19.7036 32.412 19.6C32.2915 19.4963 32.1035 19.4168 31.848 19.3613L30.9008 19.1625C30.3681 19.0516 29.974 18.8648 29.7185 18.6021C29.463 18.337 29.3365 18.0019 29.3389 17.597C29.3365 17.2548 29.4293 16.9583 29.6173 16.7076C29.8077 16.4545 30.0716 16.2593 30.4091 16.1219C30.7489 15.9821 31.1406 15.9122 31.5841 15.9122C32.2349 15.9122 32.747 16.0508 33.1206 16.328C33.4966 16.6052 33.7292 16.98 33.8184 17.4524ZM37.79 15.9845V16.9969H34.5975V15.9845H37.79ZM35.3857 14.6541H36.6945V19.8675C36.6945 20.0435 36.721 20.1784 36.774 20.2724C36.8295 20.364 36.9018 20.4267 36.991 20.4604C37.0801 20.4942 37.179 20.5111 37.2874 20.5111C37.3694 20.5111 37.4441 20.505 37.5116 20.493C37.5815 20.4809 37.6345 20.4701 37.6707 20.4604L37.8912 21.4836C37.8213 21.5077 37.7213 21.5342 37.5911 21.5631C37.4634 21.5921 37.3067 21.6089 37.1211 21.6138C36.7933 21.6234 36.4981 21.574 36.2353 21.4655C35.9726 21.3547 35.7641 21.1835 35.6099 20.9521C35.458 20.7208 35.3833 20.4315 35.3857 20.0844V14.6541ZM38.8845 21.5378V15.9845H40.1536V16.9101H40.2114C40.3126 16.5895 40.4862 16.3425 40.732 16.1689C40.9803 15.993 41.2635 15.905 41.5817 15.905C41.654 15.905 41.7347 15.9086 41.8239 15.9158C41.9155 15.9207 41.9914 15.9291 42.0517 15.9411V17.1451C41.9962 17.1258 41.9083 17.1089 41.7877 17.0945C41.6696 17.0776 41.5552 17.0692 41.4443 17.0692C41.2057 17.0692 40.9911 17.121 40.8007 17.2246C40.6127 17.3259 40.4645 17.4669 40.356 17.6476C40.2476 17.8284 40.1933 18.0369 40.1933 18.2731V21.5378H38.8845ZM46.4607 19.2023V15.9845H47.7695V21.5378H46.5005V20.5508H46.4426C46.3173 20.8618 46.1112 21.116 45.8244 21.3137C45.54 21.5113 45.1893 21.6102 44.7723 21.6102C44.4083 21.6102 44.0866 21.5294 43.807 21.3679C43.5298 21.204 43.3129 20.9666 43.1562 20.6557C42.9995 20.3423 42.9212 19.9639 42.9212 19.5204V15.9845H44.23V19.318C44.23 19.6699 44.3264 19.9495 44.5192 20.1567C44.712 20.364 44.9651 20.4677 45.2784 20.4677C45.4713 20.4677 45.6581 20.4207 45.8388 20.3267C46.0196 20.2327 46.1678 20.0929 46.2835 19.9073C46.4016 19.7193 46.4607 19.4843 46.4607 19.2023ZM51.5377 21.6463C50.9833 21.6463 50.5073 21.5246 50.1096 21.2811C49.7143 21.0377 49.4094 20.7015 49.1949 20.2724C48.9828 19.841 48.8767 19.3445 48.8767 18.7829C48.8767 18.2189 48.9852 17.7211 49.2021 17.2897C49.419 16.8559 49.7251 16.5184 50.1204 16.2774C50.5181 16.0339 50.9881 15.9122 51.5304 15.9122C51.9812 15.9122 52.3801 15.9954 52.7272 16.1617C53.0766 16.3256 53.355 16.5582 53.5623 16.8595C53.7696 17.1583 53.8877 17.5078 53.9166 17.9079H52.6657C52.6151 17.6404 52.4946 17.4174 52.3041 17.2391C52.1161 17.0583 51.8643 16.9679 51.5485 16.9679C51.281 16.9679 51.046 17.0402 50.8435 17.1849C50.641 17.3271 50.4832 17.5319 50.3699 17.7995C50.259 18.067 50.2036 18.3876 50.2036 18.7612C50.2036 19.1396 50.259 19.465 50.3699 19.7374C50.4808 20.0073 50.6362 20.2158 50.8363 20.3628C51.0387 20.5074 51.2762 20.5798 51.5485 20.5798C51.7413 20.5798 51.9137 20.5436 52.0655 20.4713C52.2198 20.3966 52.3487 20.2893 52.4524 20.1495C52.556 20.0097 52.6271 19.8398 52.6657 19.6397H53.9166C53.8853 20.0326 53.7696 20.3809 53.5695 20.6846C53.3695 20.9859 53.0971 21.2221 52.7525 21.3932C52.4078 21.5619 52.0029 21.6463 51.5377 21.6463ZM57.7644 15.9845V16.9969H54.5719V15.9845H57.7644ZM55.3601 14.6541H56.6689V19.8675C56.6689 20.0435 56.6954 20.1784 56.7484 20.2724C56.8039 20.364 56.8762 20.4267 56.9653 20.4604C57.0545 20.4942 57.1533 20.5111 57.2618 20.5111C57.3438 20.5111 57.4185 20.505 57.486 20.493C57.5559 20.4809 57.6089 20.4701 57.645 20.4604L57.8656 21.4836C57.7957 21.5077 57.6957 21.5342 57.5655 21.5631C57.4378 21.5921 57.2811 21.6089 57.0955 21.6138C56.7677 21.6234 56.4724 21.574 56.2097 21.4655C55.947 21.3547 55.7385 21.1835 55.5843 20.9521C55.4324 20.7208 55.3577 20.4315 55.3601 20.0844V14.6541ZM61.2216 21.6463C60.6793 21.6463 60.2093 21.527 59.8116 21.2884C59.4139 21.0498 59.1054 20.7159 58.886 20.2869C58.6691 19.8579 58.5607 19.3565 58.5607 18.7829C58.5607 18.2092 58.6691 17.7067 58.886 17.2752C59.1054 16.8438 59.4139 16.5088 59.8116 16.2702C60.2093 16.0315 60.6793 15.9122 61.2216 15.9122C61.7639 15.9122 62.2339 16.0315 62.6316 16.2702C63.0293 16.5088 63.3366 16.8438 63.5536 17.2752C63.7729 17.7067 63.8826 18.2092 63.8826 18.7829C63.8826 19.3565 63.7729 19.8579 63.5536 20.2869C63.3366 20.7159 63.0293 21.0498 62.6316 21.2884C62.2339 21.527 61.7639 21.6463 61.2216 21.6463ZM61.2288 20.5978C61.5229 20.5978 61.7688 20.5171 61.9664 20.3556C62.164 20.1917 62.3111 19.9724 62.4075 19.6976C62.5063 19.4228 62.5557 19.1167 62.5557 18.7793C62.5557 18.4394 62.5063 18.1321 62.4075 17.8573C62.3111 17.5801 62.164 17.3596 61.9664 17.1957C61.7688 17.0318 61.5229 16.9499 61.2288 16.9499C60.9276 16.9499 60.6769 17.0318 60.4768 17.1957C60.2792 17.3596 60.131 17.5801 60.0321 17.8573C59.9357 18.1321 59.8875 18.4394 59.8875 18.7793C59.8875 19.1167 59.9357 19.4228 60.0321 19.6976C60.131 19.9724 60.2792 20.1917 60.4768 20.3556C60.6769 20.5171 60.9276 20.5978 61.2288 20.5978ZM64.9934 21.5378V15.9845H66.2624V16.9101H66.3203C66.4215 16.5895 66.5951 16.3425 66.8409 16.1689C67.0892 15.993 67.3724 15.905 67.6905 15.905C67.7628 15.905 67.8436 15.9086 67.9328 15.9158C68.0244 15.9207 68.1003 15.9291 68.1605 15.9411V17.1451C68.1051 17.1258 68.0171 17.1089 67.8966 17.0945C67.7785 17.0776 67.664 17.0692 67.5531 17.0692C67.3145 17.0692 67.1 17.121 66.9096 17.2246C66.7216 17.3259 66.5734 17.4669 66.4649 17.6476C66.3564 17.8284 66.3022 18.0369 66.3022 18.2731V21.5378H64.9934ZM24.4761 33.5378V26.1334H27.2528C27.8216 26.1334 28.2989 26.2323 28.6845 26.4299C29.0726 26.6275 29.3654 26.9047 29.5631 27.2614C29.7631 27.6158 29.8631 28.0291 29.8631 28.5015C29.8631 28.9764 29.7619 29.3885 29.5594 29.738C29.3594 30.0851 29.0641 30.3538 28.6737 30.5443C28.2832 30.7323 27.8035 30.8263 27.2347 30.8263H25.2571V29.7127H27.0539C27.3866 29.7127 27.6589 29.6669 27.871 29.5753C28.0831 29.4813 28.2398 29.3451 28.341 29.1668C28.4447 28.986 28.4965 28.7643 28.4965 28.5015C28.4965 28.2388 28.4447 28.0147 28.341 27.8291C28.2374 27.6411 28.0795 27.4989 27.8674 27.4024C27.6553 27.3036 27.3817 27.2542 27.0467 27.2542H25.8175V33.5378H24.4761ZM28.3013 30.1827L30.1343 33.5378H28.6375L26.837 30.1827H28.3013ZM33.4189 33.6463C32.8621 33.6463 32.3813 33.5306 31.9764 33.2992C31.5738 33.0654 31.2641 32.7352 31.0472 32.3086C30.8303 31.8796 30.7218 31.3746 30.7218 30.7937C30.7218 30.2225 30.8303 29.7211 31.0472 29.2897C31.2665 28.8559 31.5726 28.5184 31.9655 28.2774C32.3584 28.0339 32.82 27.9122 33.3502 27.9122C33.6925 27.9122 34.0155 27.9677 34.3192 28.0785C34.6253 28.187 34.8952 28.3557 35.129 28.5847C35.3652 28.8137 35.5508 29.1053 35.6858 29.4596C35.8208 29.8115 35.8883 30.2309 35.8883 30.7178V31.1191H31.3364V30.2369H34.6337C34.6313 29.9863 34.5771 29.7633 34.471 29.5681C34.365 29.3704 34.2167 29.215 34.0263 29.1017C33.8383 28.9884 33.619 28.9318 33.3683 28.9318C33.1008 28.9318 32.8658 28.9969 32.6633 29.127C32.4608 29.2548 32.3029 29.4235 32.1897 29.6332C32.0788 29.8405 32.0222 30.0682 32.0197 30.3165V31.0866C32.0197 31.4096 32.0788 31.6867 32.1969 31.9181C32.315 32.1471 32.4801 32.3231 32.6922 32.446C32.9043 32.5665 33.1526 32.6268 33.437 32.6268C33.6274 32.6268 33.7997 32.6002 33.954 32.5472C34.1083 32.4918 34.242 32.411 34.3553 32.305C34.4686 32.1989 34.5542 32.0676 34.612 31.9109L35.834 32.0483C35.7569 32.3713 35.6099 32.6533 35.3929 32.8943C35.1784 33.1329 34.9037 33.3185 34.5686 33.4511C34.2336 33.5812 33.8504 33.6463 33.4189 33.6463ZM40.7013 35.6203V32.6629H40.6471C40.5796 32.7979 40.482 32.9413 40.3542 33.0931C40.2265 33.2426 40.0578 33.3703 39.8481 33.4764C39.6384 33.5824 39.3744 33.6355 39.0563 33.6355C38.62 33.6355 38.2296 33.5234 37.8849 33.2992C37.5402 33.0751 37.2678 32.7497 37.0678 32.3231C36.8677 31.8964 36.7677 31.3782 36.7677 30.7684C36.7677 30.1514 36.8689 29.6308 37.0714 29.2065C37.2763 28.7799 37.5523 28.4582 37.8993 28.2412C38.2464 28.0219 38.6333 27.9122 39.0599 27.9122C39.3853 27.9122 39.6528 27.9677 39.8625 28.0785C40.0722 28.187 40.2385 28.3184 40.3615 28.4726C40.4844 28.6245 40.5796 28.7679 40.6471 28.9029H40.7266V27.9845H42.0137V35.6203H40.7013ZM39.4214 32.5617C39.6986 32.5617 39.9348 32.487 40.1301 32.3375C40.3253 32.1857 40.4735 31.9748 40.5748 31.7048C40.676 31.4349 40.7266 31.1203 40.7266 30.7612C40.7266 30.4021 40.676 30.0899 40.5748 29.8248C40.4759 29.5597 40.3289 29.3536 40.1337 29.2065C39.9409 29.0595 39.7034 28.986 39.4214 28.986C39.1298 28.986 38.8864 29.0619 38.6911 29.2138C38.4959 29.3656 38.3489 29.5753 38.25 29.8429C38.1512 30.1104 38.1018 30.4165 38.1018 30.7612C38.1018 31.1083 38.1512 31.418 38.25 31.6904C38.3513 31.9603 38.4995 32.1736 38.6947 32.3303C38.8924 32.4845 39.1346 32.5617 39.4214 32.5617ZM46.8982 31.2023V27.9845H48.207V33.5378H46.9379V32.5508H46.8801C46.7548 32.8618 46.5487 33.116 46.2618 33.3137C45.9774 33.5113 45.6267 33.6102 45.2098 33.6102C44.8458 33.6102 44.524 33.5294 44.2444 33.3679C43.9672 33.204 43.7503 32.9666 43.5937 32.6557C43.437 32.3423 43.3587 31.9639 43.3587 31.5204V27.9845H44.6674V31.318C44.6674 31.6699 44.7639 31.9495 44.9567 32.1567C45.1495 32.364 45.4026 32.4677 45.7159 32.4677C45.9087 32.4677 46.0955 32.4207 46.2763 32.3267C46.4571 32.2327 46.6053 32.0929 46.721 31.9073C46.8391 31.7193 46.8982 31.4843 46.8982 31.2023ZM52.0113 33.6463C51.4545 33.6463 50.9737 33.5306 50.5687 33.2992C50.1662 33.0654 49.8565 32.7352 49.6396 32.3086C49.4226 31.8796 49.3142 31.3746 49.3142 30.7937C49.3142 30.2225 49.4226 29.7211 49.6396 29.2897C49.8589 28.8559 50.165 28.5184 50.5579 28.2774C50.9508 28.0339 51.4123 27.9122 51.9426 27.9122C52.2849 27.9122 52.6078 27.9677 52.9115 28.0785C53.2176 28.187 53.4876 28.3557 53.7214 28.5847C53.9576 28.8137 54.1432 29.1053 54.2782 29.4596C54.4132 29.8115 54.4806 30.2309 54.4806 30.7178V31.1191H49.9288V30.2369H53.2261C53.2237 29.9863 53.1694 29.7633 53.0634 29.5681C52.9573 29.3704 52.8091 29.215 52.6187 29.1017C52.4307 28.9884 52.2114 28.9318 51.9607 28.9318C51.6931 28.9318 51.4581 28.9969 51.2557 29.127C51.0532 29.2548 50.8953 29.4235 50.782 29.6332C50.6712 29.8405 50.6145 30.0682 50.6121 30.3165V31.0866C50.6121 31.4096 50.6712 31.6867 50.7893 31.9181C50.9074 32.1471 51.0725 32.3231 51.2846 32.446C51.4967 32.5665 51.745 32.6268 52.0294 32.6268C52.2198 32.6268 52.3921 32.6002 52.5464 32.5472C52.7006 32.4918 52.8344 32.411 52.9477 32.305C53.061 32.1989 53.1465 32.0676 53.2044 31.9109L54.4264 32.0483C54.3493 32.3713 54.2023 32.6533 53.9853 32.8943C53.7708 33.1329 53.496 33.3185 53.161 33.4511C52.826 33.5812 52.4427 33.6463 52.0113 33.6463ZM59.977 29.4524L58.7839 29.5826C58.7502 29.462 58.6911 29.3488 58.6068 29.2427C58.5248 29.1367 58.4139 29.0511 58.2741 28.986C58.1343 28.9209 57.9632 28.8884 57.7607 28.8884C57.4884 28.8884 57.2594 28.9474 57.0738 29.0655C56.8906 29.1837 56.8002 29.3367 56.8027 29.5247C56.8002 29.6862 56.8593 29.8176 56.9798 29.9188C57.1027 30.02 57.3052 30.1032 57.5872 30.1683L58.5344 30.3707C59.0599 30.484 59.4504 30.6636 59.7059 30.9094C59.9638 31.1553 60.0939 31.477 60.0963 31.8747C60.0939 32.2242 59.9915 32.5328 59.789 32.8003C59.589 33.0654 59.3106 33.2727 58.9538 33.4221C58.5971 33.5716 58.1874 33.6463 57.7246 33.6463C57.0449 33.6463 56.4978 33.5041 56.0832 33.2197C55.6686 32.9329 55.4216 32.534 55.342 32.023L56.6183 31.9C56.6761 32.1507 56.799 32.3399 56.987 32.4677C57.175 32.5954 57.4197 32.6593 57.721 32.6593C58.0319 32.6593 58.2814 32.5954 58.4694 32.4677C58.6598 32.3399 58.755 32.1821 58.755 31.9941C58.755 31.835 58.6935 31.7036 58.5706 31.6C58.4501 31.4963 58.2621 31.4168 58.0066 31.3613L57.0594 31.1625C56.5267 31.0516 56.1326 30.8648 55.8771 30.6021C55.6216 30.337 55.4951 30.0019 55.4975 29.597C55.4951 29.2548 55.5879 28.9583 55.7759 28.7076C55.9663 28.4545 56.2302 28.2593 56.5677 28.1219C56.9075 27.9821 57.2992 27.9122 57.7427 27.9122C58.3934 27.9122 58.9056 28.0508 59.2792 28.328C59.6552 28.6052 59.8878 28.98 59.977 29.4524ZM63.9486 27.9845V28.9969H60.7561V27.9845H63.9486ZM61.5443 26.6541H62.8531V31.8675C62.8531 32.0435 62.8796 32.1784 62.9326 32.2724C62.9881 32.364 63.0604 32.4267 63.1496 32.4604C63.2387 32.4942 63.3376 32.5111 63.446 32.5111C63.528 32.5111 63.6027 32.505 63.6702 32.493C63.7401 32.4809 63.7931 32.4701 63.8293 32.4604L64.0498 33.4836C63.9799 33.5077 63.8799 33.5342 63.7497 33.5631C63.622 33.5921 63.4653 33.6089 63.2797 33.6138C62.9519 33.6234 62.6566 33.574 62.3939 33.4655C62.1312 33.3547 61.9227 33.1835 61.7685 32.9521C61.6166 32.7208 61.5419 32.4315 61.5443 32.0844V26.6541Z" fill="#012A5D"/>
</svg>
