<svg width="244" height="203" viewBox="0 0 244 203" fill="none" xmlns="http://www.w3.org/2000/svg">
<path d="M164.835 92.7127C189.884 92.7127 210.191 72.406 210.191 47.3564C210.191 22.3067 189.884 2 164.835 2C139.785 2 119.478 22.3067 119.478 47.3564C119.478 72.406 139.785 92.7127 164.835 92.7127Z" fill="#7FCFE7" stroke="#1A2D58" stroke-width="4" stroke-linecap="round" stroke-linejoin="round"/>
<path d="M162.624 138.434C162.624 138.434 191.802 135.042 197.513 129.097C207.461 118.741 203.365 105.508 223.261 105.508C243.157 105.508 241.987 122.193 241.987 122.193C239.061 230.931 31.9055 190.658 31.9055 190.658L33.661 145.206C33.661 145.206 79.3055 120.467 116.757 130.248L146.602 131.398C146.602 131.398 162.987 129.672 162.987 141.179C162.987 152.686 159.476 156.713 146.602 156.713H96.2759" fill="white"/>
<path d="M162.624 138.434C162.624 138.434 191.802 135.042 197.513 129.097C207.461 118.741 203.365 105.508 223.261 105.508C243.157 105.508 241.987 122.193 241.987 122.193C239.061 230.931 31.9055 190.658 31.9055 190.658L33.661 145.206C33.661 145.206 79.3055 120.467 116.757 130.248L146.602 131.398C146.602 131.398 162.987 129.672 162.987 141.179C162.987 152.686 159.476 156.713 146.602 156.713H96.2759" stroke="#1A2D58" stroke-width="4" stroke-linecap="round" stroke-linejoin="round"/>
<path d="M95.135 65.6172H53.491V107.261H95.135V65.6172Z" fill="white" stroke="#1A2D58" stroke-width="4" stroke-linecap="round" stroke-linejoin="round"/>
<path d="M62.084 86.5608L72.3833 96.86L105.475 63.7686" stroke="#1A2D58" stroke-width="4" stroke-linecap="round" stroke-linejoin="round"/>
<path d="M182.063 57.9605L191.409 48.6138C193.694 46.3294 194.977 43.231 194.977 40.0003C194.977 36.7695 193.694 33.6712 191.409 31.3867C189.125 29.1022 186.026 27.8188 182.796 27.8188C179.565 27.8188 176.467 29.1022 174.182 31.3867L164.836 40.7333L155.489 31.3867C153.204 29.1022 150.106 27.8188 146.875 27.8188C143.645 27.8188 140.546 29.1022 138.262 31.3867C135.977 33.6712 134.694 36.7695 134.694 40.0003C134.694 43.231 135.977 46.3294 138.262 48.6138L164.836 75.1876L182.063 57.9605Z" fill="white" stroke="#1A2D58" stroke-width="4" stroke-linecap="round" stroke-linejoin="round"/>
<path d="M35.3694 133.126H2V200.44H35.3694V133.126Z" fill="#7FCFE7" stroke="#1A2D58" stroke-width="4" stroke-linecap="round" stroke-linejoin="round"/>
</svg>
