<svg width="372" height="330" viewBox="0 0 372 330" fill="none" xmlns="http://www.w3.org/2000/svg">
<path d="M52.4825 216.192L34.139 284.339L114.679 216.192H261.354C288.842 216.192 311.126 192.644 311.126 163.596V55.5609C311.126 26.5131 288.842 2.96533 261.354 2.96533H52.7268C25.2386 2.96533 2.95508 26.5131 2.95508 55.5609V163.596C2.95508 192.644 25.2386 216.192 52.7268 216.192" fill="#90CCE1"/>
<path d="M52.4825 216.192L34.139 284.339L114.679 216.192H261.354C288.842 216.192 311.126 192.644 311.126 163.596V55.5609C311.126 26.5131 288.842 2.96533 261.354 2.96533H52.7268C25.2386 2.96533 2.95508 26.5131 2.95508 55.5609V163.596C2.95508 192.644 25.2386 216.192 52.7268 216.192" stroke="#1B2E5B" stroke-width="5.59153" stroke-linecap="round" stroke-linejoin="round"/>
<path d="M330.501 271.175L344.514 326.293L282.985 271.175H170.932C149.933 271.175 132.909 250.596 132.909 225.211V130.796C132.909 105.411 149.933 84.832 170.932 84.832H330.314C351.314 84.832 368.338 105.411 368.338 130.796V225.211C368.338 250.596 351.314 271.175 330.314 271.175" fill="#C7E4EF"/>
<path d="M330.501 271.175L344.514 326.293L282.985 271.175H170.932C149.933 271.175 132.909 250.596 132.909 225.211V130.796C132.909 105.411 149.933 84.832 170.932 84.832H330.314C351.314 84.832 368.338 105.411 368.338 130.796V225.211C368.338 250.596 351.314 271.175 330.314 271.175" stroke="#1B2E5B" stroke-width="5.59153" stroke-linecap="round" stroke-linejoin="round"/>
<path d="M52.9878 215.376L34.808 283.209L114.63 215.376H259.995C287.238 215.376 309.323 191.936 309.323 163.023V55.485C309.323 26.5712 287.238 3.13184 259.995 3.13184H53.2299C25.987 3.13184 3.90234 26.5712 3.90234 55.485V163.023C3.90234 191.936 25.987 215.376 53.2299 215.376" stroke="#1B2E5B" stroke-width="5.59153" stroke-linecap="round" stroke-linejoin="round"/>
<path d="M205.113 161.024C200.031 157.844 196.108 153.11 193.928 147.524C191.747 141.939 191.425 135.799 193.009 130.016C194.593 124.233 197.999 119.115 202.722 115.42C207.444 111.725 213.231 109.651 219.226 109.505C225.22 109.359 231.101 111.148 235.998 114.608C240.895 118.069 244.546 123.015 246.41 128.714C248.275 134.413 248.252 140.56 246.347 146.246C244.441 151.931 240.754 156.85 235.832 160.275L235.476 160.519L235.776 181.141C235.793 182.319 235.578 183.489 235.143 184.584C234.708 185.679 234.062 186.677 233.241 187.523C232.42 188.368 231.44 189.043 230.359 189.51C229.277 189.976 228.114 190.225 226.936 190.242L214.555 190.423C212.175 190.457 209.88 189.545 208.173 187.887C206.466 186.23 205.488 183.962 205.453 181.582L205.153 160.961" fill="#F4F5CD"/>
<path d="M205.113 161.024C200.031 157.844 196.108 153.11 193.928 147.524C191.747 141.939 191.425 135.799 193.009 130.016C194.593 124.233 197.999 119.115 202.722 115.42C207.444 111.725 213.231 109.651 219.226 109.505C225.22 109.359 231.101 111.148 235.998 114.608C240.895 118.069 244.546 123.015 246.41 128.714C248.275 134.413 248.252 140.56 246.347 146.246C244.441 151.931 240.754 156.85 235.832 160.275L235.476 160.519L235.776 181.141C235.793 182.319 235.578 183.489 235.143 184.584C234.708 185.679 234.062 186.677 233.241 187.523C232.42 188.368 231.44 189.043 230.359 189.51C229.277 189.976 228.114 190.225 226.936 190.242L214.555 190.423C212.175 190.457 209.88 189.545 208.173 187.887C206.466 186.23 205.488 183.962 205.453 181.582L205.153 160.961" stroke="#1B2E5B" stroke-width="4.19365" stroke-linecap="round" stroke-linejoin="round"/>
<path d="M213.872 179.942L227.174 179.749" stroke="#1B2E5B" stroke-width="4.19365" stroke-linecap="round" stroke-linejoin="round"/>
<path d="M213.793 172.554L227.095 172.36" stroke="#1B2E5B" stroke-width="4.19365" stroke-linecap="round" stroke-linejoin="round"/>
<path d="M216.445 161.005L216.158 141.307" stroke="#1B2E5B" stroke-width="4.19365" stroke-linecap="round" stroke-linejoin="round"/>
<path d="M224.726 160.908L224.439 141.21" stroke="#1B2E5B" stroke-width="4.19365" stroke-linecap="round" stroke-linejoin="round"/>
</svg>
