<svg width="372" height="330" viewBox="0 0 372 330" fill="none" xmlns="http://www.w3.org/2000/svg">
<path d="M52.4825 216.192L34.139 284.339L114.679 216.192H261.354C288.842 216.192 311.126 192.644 311.126 163.596V55.5609C311.126 26.5131 288.842 2.96533 261.354 2.96533H52.7268C25.2386 2.96533 2.95508 26.5131 2.95508 55.5609V163.596C2.95508 192.644 25.2386 216.192 52.7268 216.192" fill="#90CCE1"/>
<path d="M52.4825 216.192L34.139 284.339L114.679 216.192H261.354C288.842 216.192 311.126 192.644 311.126 163.596V55.5609C311.126 26.5131 288.842 2.96533 261.354 2.96533H52.7268C25.2386 2.96533 2.95508 26.5131 2.95508 55.5609V163.596C2.95508 192.644 25.2386 216.192 52.7268 216.192" stroke="#1B2E5B" stroke-width="5.59153" stroke-linecap="round" stroke-linejoin="round"/>
<path d="M330.501 271.175L344.514 326.293L282.985 271.175H170.932C149.933 271.175 132.909 250.596 132.909 225.211V130.796C132.909 105.411 149.933 84.832 170.932 84.832H330.314C351.314 84.832 368.338 105.411 368.338 130.796V225.211C368.338 250.596 351.314 271.175 330.314 271.175" fill="#C7E4EF"/>
<path d="M330.501 271.175L344.514 326.293L282.985 271.175H170.932C149.933 271.175 132.909 250.596 132.909 225.211V130.796C132.909 105.411 149.933 84.832 170.932 84.832H330.314C351.314 84.832 368.338 105.411 368.338 130.796V225.211C368.338 250.596 351.314 271.175 330.314 271.175" stroke="#1B2E5B" stroke-width="5.59153" stroke-linecap="round" stroke-linejoin="round"/>
<path d="M52.9878 215.376L34.808 283.209L114.63 215.376H259.995C287.238 215.376 309.323 191.936 309.323 163.023V55.485C309.323 26.5712 287.238 3.13184 259.995 3.13184H53.2299C25.987 3.13184 3.90234 26.5712 3.90234 55.485V163.023C3.90234 191.936 25.987 215.376 53.2299 215.376" stroke="#1B2E5B" stroke-width="5.59153" stroke-linecap="round" stroke-linejoin="round"/>
</svg>
