<svg width="462" height="462" viewBox="0 0 462 462" fill="none" xmlns="http://www.w3.org/2000/svg">
<path d="M108.483 297.192L90.139 365.339L170.679 297.192H317.354C344.842 297.192 367.126 273.644 367.126 244.596V136.561C367.126 107.513 344.842 83.9653 317.354 83.9653H108.727C81.2386 83.9653 58.9551 107.513 58.9551 136.561V244.596C58.9551 273.644 81.2386 297.192 108.727 297.192" fill="#90CCE1"/>
<path d="M108.483 297.192L90.139 365.339L170.679 297.192H317.354C344.842 297.192 367.126 273.644 367.126 244.596V136.561C367.126 107.513 344.842 83.9653 317.354 83.9653H108.727C81.2386 83.9653 58.9551 107.513 58.9551 136.561V244.596C58.9551 273.644 81.2386 297.192 108.727 297.192" stroke="#1B2E5B" stroke-width="5.59153" stroke-linecap="round" stroke-linejoin="round"/>
<path d="M386.501 352.175L400.514 407.293L338.985 352.175H226.932C205.933 352.175 188.909 331.596 188.909 306.211V211.796C188.909 186.411 205.933 165.832 226.932 165.832H386.314C407.314 165.832 424.338 186.411 424.338 211.796V306.211C424.338 331.596 407.314 352.175 386.314 352.175" fill="#C7E4EF"/>
<path d="M386.501 352.175L400.514 407.293L338.985 352.175H226.932C205.933 352.175 188.909 331.596 188.909 306.211V211.796C188.909 186.411 205.933 165.832 226.932 165.832H386.314C407.314 165.832 424.338 186.411 424.338 211.796V306.211C424.338 331.596 407.314 352.175 386.314 352.175" stroke="#1B2E5B" stroke-width="5.59153" stroke-linecap="round" stroke-linejoin="round"/>
<path d="M108.988 296.376L90.808 364.209L170.63 296.376H315.995C343.238 296.376 365.323 272.936 365.323 244.023V136.485C365.323 107.571 343.238 84.1318 315.995 84.1318H109.23C81.987 84.1318 59.9023 107.571 59.9023 136.485V244.023C59.9023 272.936 81.987 296.376 109.23 296.376" stroke="#1B2E5B" stroke-width="5.59153" stroke-linecap="round" stroke-linejoin="round"/>
<path d="M261.113 242.024C256.031 238.844 252.108 234.11 249.928 228.524C247.747 222.939 247.425 216.799 249.009 211.016C250.593 205.233 253.999 200.115 258.722 196.42C263.444 192.725 269.231 190.651 275.226 190.505C281.22 190.359 287.101 192.148 291.998 195.608C296.895 199.069 300.546 204.015 302.41 209.714C304.275 215.413 304.252 221.56 302.347 227.246C300.441 232.931 296.754 237.85 291.832 241.275L291.476 241.519L291.776 262.141C291.793 263.319 291.578 264.489 291.143 265.584C290.708 266.679 290.062 267.677 289.241 268.523C288.42 269.368 287.44 270.043 286.359 270.51C285.277 270.976 284.114 271.225 282.936 271.242L270.555 271.423C268.175 271.457 265.88 270.545 264.173 268.887C262.466 267.23 261.488 264.962 261.453 262.582L261.153 241.961" fill="#F4F5CD"/>
<path d="M261.113 242.024C256.031 238.844 252.108 234.11 249.928 228.524C247.747 222.939 247.425 216.799 249.009 211.016C250.593 205.233 253.999 200.115 258.722 196.42C263.444 192.725 269.231 190.651 275.226 190.505C281.22 190.359 287.101 192.148 291.998 195.608C296.895 199.069 300.546 204.015 302.41 209.714C304.275 215.413 304.252 221.56 302.347 227.246C300.441 232.931 296.754 237.85 291.832 241.275L291.476 241.519L291.776 262.141C291.793 263.319 291.578 264.489 291.143 265.584C290.708 266.679 290.062 267.677 289.241 268.523C288.42 269.368 287.44 270.043 286.359 270.51C285.277 270.976 284.114 271.225 282.936 271.242L270.555 271.423C268.175 271.457 265.88 270.545 264.173 268.887C262.466 267.23 261.488 264.962 261.453 262.582L261.153 241.961" stroke="#1B2E5B" stroke-width="4.19365" stroke-linecap="round" stroke-linejoin="round"/>
<path d="M269.872 260.942L283.174 260.749" stroke="#1B2E5B" stroke-width="4.19365" stroke-linecap="round" stroke-linejoin="round"/>
<path d="M269.793 253.554L283.095 253.36" stroke="#1B2E5B" stroke-width="4.19365" stroke-linecap="round" stroke-linejoin="round"/>
<path d="M272.445 242.005L272.158 222.307" stroke="#1B2E5B" stroke-width="4.19365" stroke-linecap="round" stroke-linejoin="round"/>
<path d="M280.726 241.908L280.439 222.21" stroke="#1B2E5B" stroke-width="4.19365" stroke-linecap="round" stroke-linejoin="round"/>
</svg>
