<svg width="56" height="57" viewBox="0 0 56 57" fill="none" xmlns="http://www.w3.org/2000/svg">
<path d="M45.5872 26.0139V20.5733L40.1188 20.8223C39.6937 18.158 38.632 15.6357 37.0239 13.4694L42.442 8.95539L38.7558 4.95368L33.1209 9.66488C31.0491 8.23676 28.6857 7.28736 26.2017 6.88546V1H20.7808V6.88546C18.667 7.23284 16.6394 7.9823 14.8079 9.09326L10.2505 4.33016L6.229 8.03614L10.6485 12.6415C8.70771 14.9601 7.42756 17.7588 6.9426 20.7434L1 20.832V26.2727L6.9426 26.184C7.37098 28.7854 8.40401 31.2499 9.95856 33.3792L4.5291 37.8854L8.21535 41.887L13.842 37.2034C15.9137 38.6697 18.2943 39.6408 20.8005 40.0421L20.7709 45.5872H26.2116L26.2412 40.0421C28.7548 39.634 31.1418 38.6563 33.2194 37.1837L35.7385 40.2614L39.7203 36.5752L37.1029 33.3397C38.6358 31.2466 39.6554 28.8224 40.0795 26.2629L45.5872 26.0139ZM23.3026 33.8392C21.268 33.841 19.2786 33.2394 17.586 32.1105C15.8933 30.9817 14.5735 29.3762 13.7932 27.4972C13.013 25.6183 12.8075 23.5501 13.2027 21.5543C13.5979 19.5585 14.576 17.7247 16.0134 16.2848C17.4508 14.8449 19.2828 13.8636 21.2779 13.4649C23.273 13.0663 25.3416 13.2682 27.2219 14.0452C29.1023 14.8221 30.71 16.1392 31.8418 17.8299C32.9736 19.5205 33.5787 21.5089 33.5804 23.5434C33.5817 24.8943 33.3169 26.2323 32.8011 27.4809C32.2853 28.7294 31.5286 29.8642 30.5741 30.8202C29.6197 31.7763 28.4863 32.535 27.2386 33.053C25.991 33.571 24.6535 33.8382 23.3026 33.8392Z" fill="#7FCFE7"/>
<path d="M23.3026 33.8392C21.268 33.841 19.2786 33.2394 17.586 32.1105C15.8933 30.9817 14.5735 29.3762 13.7932 27.4972C13.013 25.6183 12.8075 23.5501 13.2027 21.5543C13.5979 19.5585 14.576 17.7247 16.0134 16.2848C17.4508 14.8449 19.2828 13.8636 21.2779 13.4649C23.273 13.0663 25.3416 13.2682 27.2219 14.0452C29.1023 14.8221 30.71 16.1392 31.8418 17.8299C32.9736 19.5205 33.5787 21.5089 33.5804 23.5434C33.5817 24.8943 33.3169 26.2323 32.8011 27.4809C32.2853 28.7294 31.5286 29.8642 30.5741 30.8202C29.6197 31.7763 28.4863 32.535 27.2386 33.053C25.991 33.571 24.6535 33.8382 23.3026 33.8392Z" fill="white"/>
<path d="M45.5872 26.0139L45.6143 26.6133C45.9348 26.5988 46.1872 26.3347 46.1872 26.0139H45.5872ZM45.5872 20.5733H46.1872C46.1872 20.4094 46.1202 20.2527 46.0017 20.1395C45.8832 20.0263 45.7236 19.9665 45.5599 19.9739L45.5872 20.5733ZM40.1188 20.8223L39.5263 20.9168C39.5744 21.2183 39.8412 21.4355 40.1461 21.4217L40.1188 20.8223ZM37.0239 13.4694L36.6399 13.0084C36.3953 13.2122 36.3524 13.5714 36.5421 13.827L37.0239 13.4694ZM42.442 8.95539L42.8261 9.41637C42.9523 9.31119 43.0299 9.15885 43.0407 8.9949C43.0515 8.83094 42.9947 8.66973 42.8833 8.54888L42.442 8.95539ZM38.7558 4.95368L39.1971 4.54716C38.9802 4.31168 38.6166 4.288 38.3709 4.49336L38.7558 4.95368ZM33.1209 9.66488L32.7803 10.1589C33.0022 10.3119 33.2989 10.2981 33.5057 10.1252L33.1209 9.66488ZM26.2017 6.88546H25.6017C25.6017 7.17984 25.8153 7.43074 26.1059 7.47776L26.2017 6.88546ZM26.2017 1H26.8017C26.8017 0.668629 26.5331 0.4 26.2017 0.4V1ZM20.7808 1V0.4C20.4494 0.4 20.1808 0.668629 20.1808 1L20.7808 1ZM20.7808 6.88546L20.8781 7.47752C21.168 7.42987 21.3808 7.17928 21.3808 6.88546H20.7808ZM14.8079 9.09326L14.3744 9.50806C14.5689 9.71135 14.8785 9.75218 15.1191 9.60626L14.8079 9.09326ZM10.2505 4.33016L10.684 3.91536C10.4579 3.6791 10.0843 3.66736 9.84385 3.88895L10.2505 4.33016ZM6.229 8.03614L5.8224 7.59492C5.70384 7.70419 5.63424 7.85657 5.62929 8.01772C5.62434 8.17888 5.68446 8.33525 5.79609 8.45158L6.229 8.03614ZM10.6485 12.6415L11.1086 13.0266C11.305 12.7919 11.2933 12.4469 11.0814 12.2261L10.6485 12.6415ZM6.9426 20.7434L6.95155 21.3433C7.24236 21.3389 7.48819 21.1267 7.53483 20.8396L6.9426 20.7434ZM1 20.832L0.991048 20.2321C0.663204 20.237 0.4 20.5041 0.4 20.832H1ZM1 26.2727H0.4C0.4 26.4334 0.464449 26.5874 0.578913 26.7001C0.693376 26.8129 0.848288 26.8751 1.00895 26.8727L1 26.2727ZM6.9426 26.184L7.53463 26.0866C7.48635 25.7934 7.23075 25.5797 6.93365 25.5841L6.9426 26.184ZM9.95856 33.3792L10.3418 33.8409C10.5856 33.6385 10.63 33.2814 10.4432 33.0254L9.95856 33.3792ZM4.5291 37.8854L4.14591 37.4237C4.01933 37.5288 3.94143 37.6812 3.93044 37.8453C3.91946 38.0095 3.97635 38.1709 4.08781 38.2919L4.5291 37.8854ZM8.21535 41.887L7.77405 42.2935C7.99063 42.5286 8.35352 42.5527 8.5992 42.3482L8.21535 41.887ZM13.842 37.2034L14.1886 36.7137C13.9668 36.5567 13.6671 36.5684 13.4582 36.7423L13.842 37.2034ZM20.8005 40.0421L21.4005 40.0453C21.4021 39.7493 21.1876 39.4964 20.8953 39.4496L20.8005 40.0421ZM20.7709 45.5872L20.1709 45.584C20.17 45.7437 20.2329 45.8971 20.3455 46.0103C20.4581 46.1235 20.6112 46.1872 20.7709 46.1872V45.5872ZM26.2116 45.5872V46.1872C26.5417 46.1872 26.8098 45.9205 26.8116 45.5904L26.2116 45.5872ZM26.2412 40.0421L26.1451 39.4498C25.8558 39.4968 25.6428 39.7458 25.6412 40.0389L26.2412 40.0421ZM33.2194 37.1837L33.6837 36.8037C33.484 36.5597 33.1296 36.5119 32.8724 36.6942L33.2194 37.1837ZM35.7385 40.2614L35.2742 40.6415C35.379 40.7695 35.532 40.8486 35.6971 40.86C35.8622 40.8714 36.0247 40.8141 36.1461 40.7017L35.7385 40.2614ZM39.7203 36.5752L40.1279 37.0155C40.3597 36.8009 40.3855 36.4434 40.1868 36.1978L39.7203 36.5752ZM37.1029 33.3397L36.6188 32.9852C36.4579 33.2049 36.4651 33.5054 36.6364 33.7171L37.1029 33.3397ZM40.0795 26.2629L40.0524 25.6635C39.7694 25.6763 39.5338 25.8853 39.4875 26.1648L40.0795 26.2629ZM23.3026 33.8392L23.3021 33.2392H23.302L23.3026 33.8392ZM33.5804 23.5434L32.9804 23.5439V23.544L33.5804 23.5434ZM32.8011 27.4809L32.2466 27.2518L32.8011 27.4809ZM46.1872 26.0139V20.5733H44.9872V26.0139H46.1872ZM45.5599 19.9739L40.0915 20.2229L40.1461 21.4217L45.6145 21.1727L45.5599 19.9739ZM40.7113 20.7277C40.271 17.9682 39.1713 15.3556 37.5057 13.1118L36.5421 13.827C38.0927 15.9158 39.1164 18.3479 39.5263 20.9168L40.7113 20.7277ZM37.408 13.9304L42.8261 9.41637L42.058 8.49441L36.6399 13.0084L37.408 13.9304ZM42.8833 8.54888L39.1971 4.54716L38.3145 5.36019L42.0007 9.3619L42.8833 8.54888ZM38.3709 4.49336L32.736 9.20457L33.5057 10.1252L39.1406 5.41399L38.3709 4.49336ZM33.4614 9.17088C31.3164 7.69225 28.8694 6.70927 26.2976 6.29316L26.1059 7.47776C28.502 7.86544 30.7819 8.78127 32.7803 10.1589L33.4614 9.17088ZM26.8017 6.88546V1H25.6017V6.88546H26.8017ZM26.2017 0.4H20.7808V1.6H26.2017V0.4ZM20.1808 1V6.88546H21.3808V1H20.1808ZM20.6835 6.2934C18.494 6.65322 16.3938 7.42952 14.4967 8.58026L15.1191 9.60626C16.885 8.53508 18.84 7.81245 20.8781 7.47752L20.6835 6.2934ZM15.2414 8.67846L10.684 3.91536L9.81693 4.74497L14.3744 9.50806L15.2414 8.67846ZM9.84385 3.88895L5.8224 7.59492L6.63561 8.47736L10.6571 4.77138L9.84385 3.88895ZM5.79609 8.45158L10.2155 13.0569L11.0814 12.2261L6.66192 7.62071L5.79609 8.45158ZM10.1884 12.2564C8.17842 14.6577 6.85262 17.5562 6.35037 20.6471L7.53483 20.8396C8.0025 17.9615 9.23701 15.2626 11.1086 13.0266L10.1884 12.2564ZM6.93365 20.1434L0.991048 20.2321L1.00895 21.432L6.95155 21.3433L6.93365 20.1434ZM0.4 20.832V26.2727H1.6V20.832H0.4ZM1.00895 26.8727L6.95155 26.784L6.93365 25.5841L0.991048 25.6728L1.00895 26.8727ZM6.35057 26.2815C6.79422 28.9756 7.86404 31.5278 9.47397 33.733L10.4432 33.0254C8.94398 30.9719 7.94775 28.5953 7.53463 26.0866L6.35057 26.2815ZM9.57537 32.9175L4.14591 37.4237L4.91229 38.3471L10.3418 33.8409L9.57537 32.9175ZM4.08781 38.2919L7.77405 42.2935L8.65664 41.4805L4.9704 37.4789L4.08781 38.2919ZM8.5992 42.3482L14.2259 37.6646L13.4582 36.7423L7.8315 41.4259L8.5992 42.3482ZM13.4954 37.6932C15.6421 39.2125 18.1088 40.2188 20.7056 40.6345L20.8953 39.4496C18.4799 39.0629 16.1854 38.1269 14.1886 36.7137L13.4954 37.6932ZM20.2005 40.0389L20.1709 45.584L21.3709 45.5904L21.4005 40.0453L20.2005 40.0389ZM20.7709 46.1872H26.2116V44.9872H20.7709V46.1872ZM26.8116 45.5904L26.8412 40.0453L25.6412 40.0389L25.6116 45.584L26.8116 45.5904ZM26.3373 40.6343C28.9413 40.2116 31.4141 39.1987 33.5664 37.6732L32.8724 36.6942C30.8695 38.1138 28.5683 39.0564 26.1451 39.4498L26.3373 40.6343ZM32.7551 37.5637L35.2742 40.6415L36.2028 39.8814L33.6837 36.8037L32.7551 37.5637ZM36.1461 40.7017L40.1279 37.0155L39.3127 36.1349L35.3309 39.8211L36.1461 40.7017ZM40.1868 36.1978L37.5693 32.9624L36.6364 33.7171L39.2539 36.9526L40.1868 36.1978ZM37.5869 33.6942C39.1754 31.5252 40.232 29.0133 40.6714 26.3609L39.4875 26.1648C39.0788 28.6316 38.0962 30.9679 36.6188 32.9852L37.5869 33.6942ZM40.1066 26.8622L45.6143 26.6133L45.5601 25.4145L40.0524 25.6635L40.1066 26.8622ZM23.302 33.2392C21.3862 33.2409 19.5128 32.6744 17.9189 31.6114L17.2531 32.6097C19.0445 33.8044 21.1499 34.4411 23.3031 34.4392L23.302 33.2392ZM17.9189 31.6114C16.325 30.5484 15.0821 29.0366 14.3474 27.2672L13.2391 27.7273C14.0648 29.7159 15.4617 31.415 17.2531 32.6097L17.9189 31.6114ZM14.3474 27.2672C13.6126 25.4978 13.4191 23.5502 13.7912 21.6708L12.6141 21.4378C12.1959 23.55 12.4134 25.7388 13.2391 27.7273L14.3474 27.2672ZM13.7912 21.6708C14.1634 19.7915 15.0845 18.0646 16.438 16.7087L15.5887 15.8609C14.0675 17.3848 13.0323 19.3256 12.6141 21.4378L13.7912 21.6708ZM16.438 16.7087C17.7916 15.3528 19.5168 14.4287 21.3955 14.0533L21.1604 12.8766C19.0489 13.2985 17.11 14.3371 15.5887 15.8609L16.438 16.7087ZM21.3955 14.0533C23.2742 13.6779 25.2221 13.868 26.9928 14.5997L27.451 13.4906C25.461 12.6684 23.2718 12.4547 21.1604 12.8766L21.3955 14.0533ZM26.9928 14.5997C28.7635 15.3313 30.2774 16.5716 31.3432 18.1636L32.3404 17.4961C31.1426 15.7068 29.4411 14.3129 27.451 13.4906L26.9928 14.5997ZM31.3432 18.1636C32.409 19.7557 32.9788 21.6281 32.9804 23.5439L34.1804 23.5429C34.1785 21.3897 33.5382 19.2854 32.3404 17.4961L31.3432 18.1636ZM32.9804 23.544C32.9817 24.8161 32.7323 26.076 32.2466 27.2518L33.3556 27.71C33.9016 26.3886 34.1818 24.9726 34.1804 23.5428L32.9804 23.544ZM32.2466 27.2518C31.7608 28.4275 31.0482 29.496 30.1495 30.3963L30.9988 31.2441C32.0089 30.2323 32.8097 29.0314 33.3556 27.71L32.2466 27.2518ZM30.1495 30.3963C29.2508 31.2967 28.1835 32.0111 27.0086 32.4989L27.4687 33.6072C28.7892 33.0589 29.9887 32.256 30.9988 31.2441L30.1495 30.3963ZM27.0086 32.4989C25.8337 32.9867 24.5742 33.2382 23.3021 33.2392L23.303 34.4392C24.7327 34.4381 26.1483 34.1554 27.4687 33.6072L27.0086 32.4989Z" fill="#1B2E5B"/>
<path d="M26.9513 50.4182L12.3945 55.7437L17.72 41.1869L45.7687 13.1382L55 22.3695L26.9513 50.4182Z" fill="#BFE7F3" stroke="#1B2E5B" stroke-width="1.2" stroke-linecap="round" stroke-linejoin="round"/>
<path d="M53.0035 52.1065H33.701C33.701 52.1065 33.3401 43.3179 39.6216 39.5611C40.7038 40.3248 42.0053 40.7151 43.3291 40.6728C44.653 40.6305 45.9269 40.1579 46.9581 39.3267C53.6166 42.752 53.0035 52.1065 53.0035 52.1065Z" fill="#7FCFE7" stroke="#1B2D59" stroke-width="1.2" stroke-linecap="round" stroke-linejoin="round"/>
<path d="M49.2265 34.5852C49.2266 35.7898 48.8695 36.9674 48.2003 37.969C47.5311 38.9706 46.58 39.7514 45.4671 40.2124C44.3543 40.6735 43.1297 40.7942 41.9482 40.5592C40.7667 40.3243 39.6815 39.7443 38.8296 38.8926C37.9778 38.0409 37.3977 36.9557 37.1626 35.7743C36.9275 34.5929 37.048 33.3682 37.5089 32.2553C37.9698 31.1424 38.7504 30.1911 39.7519 29.5218C40.7535 28.8525 41.931 28.4952 43.1356 28.4951C43.936 28.493 44.7289 28.649 45.4689 28.9543C46.2088 29.2595 46.8811 29.708 47.4471 30.274C48.0131 30.8399 48.4617 31.5121 48.7671 32.252C49.0724 32.9919 49.2286 33.7848 49.2265 34.5852Z" fill="#7FCFE7" stroke="#1B2D59" stroke-width="1.2" stroke-linecap="round" stroke-linejoin="round"/>
</svg>
