<svg width="75" height="61" viewBox="0 0 75 61" fill="none" xmlns="http://www.w3.org/2000/svg">
<path d="M63.6708 1.00006H9.82445C9.46734 1.00006 9.12486 1.14464 8.87234 1.40198C8.61983 1.65933 8.47797 2.00837 8.47797 2.37231V38.8871C8.47797 39.2511 8.61983 39.6001 8.87234 39.8574C9.12486 40.1148 9.46734 40.2594 9.82445 40.2594H63.6837C64.0408 40.2594 64.3833 40.1148 64.6358 39.8574C64.8883 39.6001 65.0301 39.2511 65.0301 38.8871V2.37231C65.0302 2.191 64.9949 2.01148 64.9264 1.84413C64.858 1.67679 64.7576 1.52493 64.6312 1.39733C64.5049 1.26974 64.3549 1.16893 64.1901 1.10074C64.0252 1.03256 63.8487 0.998335 63.6708 1.00006Z" fill="#F1F1F1" stroke="#1B2E5B" stroke-width="1.2" stroke-miterlimit="10"/>
<path d="M35.6373 40.2593H63.6804C64.5367 40.303 65.3523 40.6324 65.9923 41.1928L72.2113 47.2711C72.725 47.7757 72.5581 48.2046 71.8183 48.2046H2.1612C1.42139 48.2046 1.24415 47.7858 1.77074 47.2711L7.98714 41.1928C8.62719 40.6324 9.44271 40.303 10.299 40.2593H35.6373Z" fill="#F1F1F1" stroke="#1B2E5B" stroke-width="1.2" stroke-miterlimit="10"/>
<path d="M72.5535 47.2698H2.35676C1.99669 47.2705 1.6516 47.4202 1.39723 47.6861C1.14286 47.9521 0.999999 48.3124 1 48.6881V49.1258C1 49.5012 1.14294 49.8613 1.39739 50.1268C1.65183 50.3922 1.99693 50.5414 2.35676 50.5414H72.5535C72.9133 50.5414 73.2584 50.3922 73.5129 50.1268C73.7673 49.8613 73.9102 49.5012 73.9102 49.1258V48.6881C73.9102 48.3124 73.7674 47.9521 73.513 47.6861C73.2587 47.4202 72.9136 47.2705 72.5535 47.2698Z" fill="white"/>
<path d="M71.6914 47.1182H2.34041C1.98468 47.1191 1.64375 47.3202 1.39245 47.6771C1.14114 48.0341 0.999999 48.5179 1 49.0223V49.6098C1 50.1139 1.14122 50.5973 1.3926 50.9537C1.64397 51.3101 1.98491 51.5103 2.34041 51.5103H71.6914C72.0469 51.5103 72.3878 51.3101 72.6392 50.9537C72.8906 50.5973 73.0318 50.1139 73.0318 49.6098V49.0223C73.0318 48.5179 72.8907 48.0341 72.6394 47.6771C72.3881 47.3202 72.0471 47.1191 71.6914 47.1182Z" fill="#F1F1F1" stroke="#1B2E5B" stroke-width="1.2" stroke-linejoin="round"/>
<path d="M61.2911 5.98535H12.6843V34.9625H61.2911V5.98535Z" fill="#BFE7F3" stroke="#1B2E5B" stroke-width="1.2" stroke-linejoin="round"/>
<line x1="13.1517" y1="21.2762" x2="61.1353" y2="21.2762" stroke="#012A5D" stroke-width="1.2"/>
<line x1="36.8551" y1="34.9626" x2="36.8551" y2="5.9855" stroke="#012A5D" stroke-width="1.2"/>
<path d="M29.2878 20.9417H20.3199C20.3199 20.9417 20.1522 16.964 23.0706 15.7921C23.5733 16.0304 24.178 16.1521 24.7931 16.1389C25.4081 16.1257 26 15.9783 26.4791 15.719C29.5726 16.7875 29.2878 20.9417 29.2878 20.9417Z" fill="#7FCFE7" stroke="#1B2D59" stroke-width="1.2" stroke-linecap="round" stroke-linejoin="round"/>
<path d="M27.5329 13.4886C27.533 14.0483 27.3671 14.5954 27.0562 15.0607C26.7453 15.5261 26.3034 15.8888 25.7863 16.103C25.2693 16.3172 24.7004 16.3733 24.1515 16.2641C23.6026 16.155 23.0983 15.8855 22.7026 15.4898C22.3068 15.0941 22.0373 14.5899 21.9281 14.0411C21.8188 13.4922 21.8748 12.9232 22.089 12.4062C22.3031 11.8891 22.6658 11.4471 23.1311 11.1362C23.5964 10.8252 24.1435 10.6592 24.7031 10.6592C25.075 10.6582 25.4434 10.7307 25.7871 10.8725C26.1309 11.0143 26.4432 11.2227 26.7062 11.4856C26.9692 11.7486 27.1776 12.0609 27.3195 12.4046C27.4614 12.7484 27.5339 13.1168 27.5329 13.4886Z" fill="#7FCFE7" stroke="#1B2D59" stroke-width="1.2" stroke-linecap="round" stroke-linejoin="round"/>
<path d="M54.5259 20.6302H45.558C45.558 20.6302 45.3903 16.6525 48.3087 15.4806C48.8114 15.7188 49.4161 15.8406 50.0312 15.8274C50.6462 15.8142 51.2381 15.6668 51.7172 15.4075C54.8107 16.4759 54.5259 20.6302 54.5259 20.6302Z" fill="#7FCFE7" stroke="#1B2D59" stroke-width="1.2" stroke-linecap="round" stroke-linejoin="round"/>
<path d="M52.7711 13.1771C52.7711 13.7368 52.6052 14.2839 52.2943 14.7492C51.9834 15.2146 51.5415 15.5773 51.0245 15.7915C50.5075 16.0057 49.9385 16.0618 49.3896 15.9526C48.8407 15.8435 48.3365 15.574 47.9407 15.1783C47.545 14.7826 47.2754 14.2784 47.1662 13.7295C47.057 13.1806 47.113 12.6117 47.3271 12.0946C47.5413 11.5776 47.9039 11.1356 48.3692 10.8247C48.8345 10.5137 49.3816 10.3477 49.9413 10.3477C50.3131 10.3467 50.6815 10.4191 51.0253 10.561C51.3691 10.7028 51.6814 10.9112 51.9444 11.1741C52.2073 11.437 52.4158 11.7494 52.5576 12.0931C52.6995 12.4368 52.7721 12.8052 52.7711 13.1771Z" fill="#7FCFE7" stroke="#1B2D59" stroke-width="1.2" stroke-linecap="round" stroke-linejoin="round"/>
<path d="M54.5259 34.9622H45.558C45.558 34.9622 45.3903 30.9845 48.3087 29.8126C48.8114 30.0509 49.4161 30.1726 50.0312 30.1594C50.6462 30.1462 51.2381 29.9988 51.7172 29.7395C54.8107 30.808 54.5259 34.9622 54.5259 34.9622Z" fill="#7FCFE7" stroke="#1B2D59" stroke-width="1.2" stroke-linecap="round" stroke-linejoin="round"/>
<path d="M52.7711 27.5091C52.7711 28.0688 52.6052 28.6159 52.2943 29.0812C51.9834 29.5466 51.5415 29.9093 51.0245 30.1235C50.5075 30.3377 49.9385 30.3938 49.3896 30.2846C48.8407 30.1755 48.3365 29.906 47.9407 29.5103C47.545 29.1146 47.2754 28.6105 47.1662 28.0616C47.057 27.5127 47.113 26.9437 47.3271 26.4267C47.5413 25.9096 47.9039 25.4676 48.3692 25.1567C48.8345 24.8457 49.3816 24.6797 49.9413 24.6797C50.3131 24.6787 50.6815 24.7512 51.0253 24.893C51.3691 25.0348 51.6814 25.2432 51.9444 25.5061C52.2073 25.7691 52.4158 26.0814 52.5576 26.4251C52.6995 26.7689 52.7721 27.1373 52.7711 27.5091Z" fill="#7FCFE7" stroke="#1B2D59" stroke-width="1.2" stroke-linecap="round" stroke-linejoin="round"/>
<path d="M29.2878 34.9622H20.3199C20.3199 34.9622 20.1522 30.9845 23.0706 29.8126C23.5733 30.0509 24.178 30.1726 24.7931 30.1594C25.4081 30.1462 26 29.9988 26.4791 29.7395C29.5726 30.808 29.2878 34.9622 29.2878 34.9622Z" fill="#7FCFE7" stroke="#1B2D59" stroke-width="1.2" stroke-linecap="round" stroke-linejoin="round"/>
<path d="M27.5329 27.5091C27.533 28.0688 27.3671 28.6159 27.0562 29.0812C26.7453 29.5466 26.3034 29.9093 25.7863 30.1235C25.2693 30.3377 24.7004 30.3938 24.1515 30.2846C23.6026 30.1755 23.0983 29.906 22.7026 29.5103C22.3068 29.1146 22.0373 28.6105 21.9281 28.0616C21.8188 27.5127 21.8748 26.9437 22.089 26.4267C22.3031 25.9096 22.6658 25.4676 23.1311 25.1567C23.5964 24.8457 24.1435 24.6797 24.7031 24.6797C25.075 24.6787 25.4434 24.7512 25.7871 24.893C26.1309 25.0348 26.4432 25.2432 26.7062 25.5061C26.9692 25.7691 27.1776 26.0814 27.3195 26.4251C27.4614 26.7689 27.5339 27.1373 27.5329 27.5091Z" fill="#7FCFE7" stroke="#1B2D59" stroke-width="1.2" stroke-linecap="round" stroke-linejoin="round"/>
<path d="M43.2681 45.7186L47.4528 43.729C47.7228 44.2959 48.2064 44.7326 48.7973 44.9431C49.3883 45.1536 50.0382 45.1207 50.6043 44.8515C51.1703 44.5824 51.6061 44.0991 51.8159 43.5079C52.0256 42.9167 51.9922 42.2659 51.7229 41.6987L55.9076 39.709L57.8465 43.9046C57.2806 44.174 56.8451 44.6576 56.6357 45.2489C56.4263 45.8403 56.4601 46.491 56.7297 47.0581C56.9993 47.6252 57.4827 48.0622 58.0735 48.273C58.6644 48.4839 59.3143 48.4513 59.8805 48.1825L61.8738 52.3749L57.7435 54.3614C57.4738 53.7941 56.9902 53.357 56.3991 53.1463C55.808 52.9355 55.1578 52.9684 54.5915 53.2376C54.0253 53.5068 53.5893 53.9904 53.3797 54.5819C53.17 55.1734 53.2037 55.8244 53.4735 56.3917L49.2888 58.3814L47.2955 54.189C46.7293 54.4578 46.0793 54.4903 45.4885 54.2795C44.8977 54.0686 44.4143 53.6316 44.1447 53.0645C43.8751 52.4975 43.8412 51.8467 44.0506 51.2554C44.2601 50.664 44.6956 50.1805 45.2615 49.911L43.2681 45.7186Z" fill="#90CCE2" stroke="#012A5D" stroke-width="1.2" stroke-linecap="round" stroke-linejoin="round"/>
<path d="M55.5088 39.8983L59.6935 37.9086C59.9635 38.4756 60.4471 38.9123 61.0381 39.1228C61.629 39.3333 62.279 39.3004 62.845 39.0312C63.411 38.7621 63.8468 38.2788 64.0566 37.6876C64.2663 37.0964 64.2329 36.4456 63.9636 35.8784L68.1483 33.8887L70.0872 38.0843C69.5213 38.3537 69.0858 38.8373 68.8764 39.4286C68.667 40.02 68.7008 40.6707 68.9704 41.2378C69.24 41.8049 69.7234 42.2419 70.3142 42.4527C70.9051 42.6636 71.555 42.631 72.1212 42.3622L74.1145 46.5546L69.9843 48.5411C69.7145 47.9738 69.2309 47.5367 68.6398 47.326C68.0487 47.1152 67.3985 47.148 66.8322 47.4173C66.266 47.6865 65.8301 48.1701 65.6204 48.7616C65.4107 49.3531 65.4445 50.0041 65.7142 50.5714L61.5295 52.5611L59.5362 48.3687C58.97 48.6375 58.32 48.67 57.7292 48.4592C57.1384 48.2483 56.655 47.8113 56.3854 47.2442C56.1158 46.6771 56.082 46.0264 56.2914 45.4351C56.5008 44.8437 56.9363 44.3602 57.5022 44.0907L55.5088 39.8983Z" fill="#BFE7F3" stroke="#012A5D" stroke-width="1.2" stroke-linecap="round" stroke-linejoin="round"/>
<line x1="60.1775" y1="56.1271" x2="60.1775" y2="60.1129" stroke="#012A5D" stroke-width="1.2" stroke-linecap="round"/>
<line x1="62.2761" y1="54.7723" x2="64.4314" y2="58.125" stroke="#012A5D" stroke-width="1.2" stroke-linecap="round"/>
<line x1="65.0708" y1="53.4376" x2="68.5226" y2="55.4305" stroke="#012A5D" stroke-width="1.2" stroke-linecap="round"/>
</svg>
