<svg width="57" height="63" viewBox="0 0 57 63" fill="none" xmlns="http://www.w3.org/2000/svg">
<path d="M7.51373 60.4795C7.51373 60.4795 46.9309 68.2738 47.4876 47.2291C47.4876 47.2291 47.7103 44 43.9245 44C40.1387 44 40.9181 46.561 39.0252 48.5653C37.9386 49.7158 32.3867 50.3723 32.3867 50.3723C32.3867 48.1453 29.2689 48.4793 29.2689 48.4793L23.5902 48.2567C16.4639 46.3637 7.7788 51.1517 7.7788 51.1517L7.51373 60.4795Z" fill="white"/>
<path d="M32.3867 50.3723C32.3867 50.3723 37.9386 49.7158 39.0252 48.5653C40.9181 46.561 40.1387 44 43.9245 44C47.7103 44 47.4876 47.2291 47.4876 47.2291C46.9309 68.2738 7.51373 60.4795 7.51373 60.4795L7.7788 51.1517C7.7788 51.1517 16.4639 46.3637 23.5902 48.2567L29.2689 48.4793C29.2689 48.4793 32.3867 48.1453 32.3867 50.3723ZM32.3867 50.3723C32.3867 52.5992 31.7186 53.3787 29.2689 53.3787H19.693" stroke="#012A5D" stroke-width="1.2" stroke-linecap="round" stroke-linejoin="round"/>
<path d="M7.94829 49.3445H1.49011V62.3722H7.94829V49.3445Z" fill="#7FCFE7" stroke="#012A5D" stroke-width="1.2" stroke-linecap="round" stroke-linejoin="round"/>
<path d="M30.485 4.86414H25.3677L20.1461 1H13.1839L7.96221 4.86414H2.84499C1.81806 4.86414 1 5.68362 1 6.71233V24.288C1 25.3167 1.81806 26.2583 2.84499 26.2583H30.485C31.5119 26.2583 32.33 25.3167 32.33 24.288V6.71233C32.33 5.68362 31.5119 4.86414 30.485 4.86414Z" fill="#BFE7F3" stroke="#012A5D" stroke-width="1.2" stroke-linejoin="round"/>
<circle cx="16.665" cy="14.722" r="6.5646" fill="#7FCFE7" stroke="#012A5D" stroke-width="1.2"/>
<circle cx="26.5011" cy="9.50016" r="2.07155" fill="#7FCFE7" stroke="#012A5D" stroke-width="1.2"/>
<path d="M23.6481 32.7815V23.1967H30.1713L38.8216 16.8538V39.1245L30.1713 32.7815H23.6481Z" fill="#BFE7F3" stroke="#012A5D" stroke-width="1.2" stroke-linejoin="round"/>
<path d="M44.3061 33.7865C44.3061 33.7865 47.9108 31.5554 47.9108 28.2602L47.9319 27.7962C47.9319 24.501 44.3272 22.2699 44.3272 22.2699" stroke="#1A305E" stroke-width="1.2" stroke-linecap="round" stroke-linejoin="round"/>
<path d="M42.0141 30.6465C42.0141 30.6465 43.6955 29.6059 43.6955 28.0688L43.7053 27.8524C43.7053 26.3154 42.0239 25.2747 42.0239 25.2747" stroke="#1A305E" stroke-width="1.2" stroke-linecap="round" stroke-linejoin="round"/>
<path d="M45.5722 38.361C45.5722 38.361 52.0459 34.3543 52.0459 28.4364L52.0838 27.6032C52.0838 21.6853 45.6101 17.6786 45.6101 17.6786" stroke="#1A305E" stroke-width="1.2" stroke-linecap="round" stroke-linejoin="round"/>
<rect x="23.6481" y="23.2166" width="6.11832" height="9.54458" fill="#7FCFE7" stroke="#012A5D" stroke-width="1.2" stroke-linejoin="round"/>
</svg>
