<svg width="55" height="65" viewBox="0 0 55 65" fill="none" xmlns="http://www.w3.org/2000/svg">
<path d="M27.551 45.7615H21.3568V58.1807H27.551" fill="white"/>
<path d="M27.551 45.7615H21.3568V58.1807H27.551" stroke="#012A5D" stroke-width="1.57738" stroke-miterlimit="10" stroke-linecap="round" stroke-linejoin="round"/>
<path d="M51.8939 60.2557C51.8939 59.1097 51.1506 58.1806 49.8189 58.1806H50.9338C52.0797 58.1806 53.0708 57.2515 53.0708 56.1056C53.0708 54.9597 52.0797 54.0305 50.9338 54.0305H51.9249C53.0708 54.0305 53.9999 53.1014 53.9999 51.9555C53.9999 50.8096 53.0708 49.8805 51.9249 49.8805H51.0267C52.1726 49.8805 53.1018 48.9514 53.1018 47.8054C53.1018 46.6595 52.1726 45.7304 51.0267 45.7304H46.3811C47.527 45.7304 48.4562 44.8013 48.4562 43.6554C48.4562 42.5094 47.527 41.5803 46.3811 41.5803H35.8821C30.1525 41.5803 25.5378 46.2259 25.5378 51.9245C25.5378 57.6231 30.1834 62.2688 35.8821 62.2688H49.8189C50.9648 62.3307 51.8939 61.4016 51.8939 60.2557Z" fill="white" stroke="#012A5D" stroke-width="1.57738" stroke-miterlimit="10" stroke-linecap="round" stroke-linejoin="round"/>
<path d="M46.8767 45.7615H42.6956H40.3419C39.0411 45.7615 37.8642 46.5667 37.3996 47.7746L36.2847 50.5619C36.2847 50.5619 35.2627 54.1236 30.3383 54.0616" fill="white"/>
<path d="M46.8767 45.7615H42.6956H40.3419C39.0411 45.7615 37.8642 46.5667 37.3996 47.7746L36.2847 50.5619C36.2847 50.5619 35.2627 54.1236 30.3383 54.0616" stroke="#012A5D" stroke-width="1.57738" stroke-miterlimit="10" stroke-linecap="round" stroke-linejoin="round"/>
<path d="M21.3568 43.4695V60.4724" stroke="#012A5D" stroke-width="1.57738" stroke-miterlimit="10" stroke-linecap="round" stroke-linejoin="round"/>
<path d="M21.3459 60.4631L21.3459 43.4602H16.1429L16.1429 60.4631H21.3459Z" fill="#BFE7F3" stroke="#012A5D" stroke-width="1.57738" stroke-miterlimit="10" stroke-linecap="round" stroke-linejoin="round"/>
<path d="M41.8285 45.7614H46.3502C47.4961 45.7614 48.4253 44.8323 48.4253 43.6864C48.4253 42.5404 47.4961 41.6113 46.3502 41.6113H41.8285" fill="white"/>
<path d="M41.8285 45.7614H46.3502C47.4961 45.7614 48.4253 44.8323 48.4253 43.6864C48.4253 42.5404 47.4961 41.6113 46.3502 41.6113H41.8285" stroke="#012A5D" stroke-width="1.57738" stroke-miterlimit="10" stroke-linecap="round" stroke-linejoin="round"/>
<path fill-rule="evenodd" clip-rule="evenodd" d="M49.2323 60.6913V36.3319H40.9107V60.6913C40.9105 60.8495 40.9418 61.0061 41.0026 61.1523C41.0634 61.2984 41.1527 61.4313 41.2652 61.5431C41.3778 61.655 41.5114 61.7438 41.6585 61.8043C41.8056 61.8649 41.9633 61.8961 42.1225 61.8961H48.0205C48.1797 61.8961 48.3374 61.8649 48.4845 61.8043C48.6316 61.7438 48.7652 61.655 48.8778 61.5431C48.9903 61.4313 49.0796 61.2984 49.1404 61.1523C49.2012 61.0061 49.2325 60.8495 49.2323 60.6913Z" fill="#7FCFE7"/>
<path d="M37.7066 32.4957C38.3263 34.0864 39.4511 35.4332 40.9107 36.3319H49.2323H49.2335C50.693 35.4332 51.8179 34.0864 52.4376 32.4957C53.0572 30.905 53.138 29.157 52.6675 27.5166C52.1971 25.8762 51.2011 24.4328 49.8305 23.4052C48.4599 22.3775 46.7894 21.8215 45.0721 21.8215C43.3548 21.8215 41.6843 22.3775 40.3137 23.4052C38.9431 24.4328 37.9471 25.8762 37.4767 27.5166C37.0062 29.157 37.087 30.905 37.7066 32.4957Z" fill="#F1F1F1"/>
<path d="M49.2323 60.6913H48.4436V60.6921L49.2323 60.6913ZM48.0205 61.8961L48.0205 61.1074H48.0205V61.8961ZM42.1225 61.8961V61.1074H42.1225L42.1225 61.8961ZM40.9107 60.6913L41.6994 60.6921V60.6913H40.9107ZM45.0721 21.8215V21.0328V21.8215ZM49.2335 36.3319V37.1206C49.3795 37.1206 49.5227 37.08 49.647 37.0035L49.2335 36.3319ZM48.4436 36.3319V60.6913H50.021V36.3319H48.4436ZM48.4436 60.6921C48.4437 60.7459 48.4331 60.7992 48.4123 60.8492L49.8685 61.4553C49.9694 61.213 50.0213 60.9531 50.021 60.6905L48.4436 60.6921ZM48.4123 60.8492C48.3914 60.8992 48.3608 60.945 48.3217 60.9838L49.4338 62.1025C49.6199 61.9175 49.7677 61.6976 49.8685 61.4553L48.4123 60.8492ZM48.3217 60.9838C48.2827 61.0226 48.236 61.0537 48.1843 61.075L48.7847 62.5336C49.0272 62.4338 49.2478 62.2874 49.4338 62.1025L48.3217 60.9838ZM48.1843 61.075C48.1325 61.0963 48.0768 61.1074 48.0205 61.1074L48.0205 62.6848C48.2826 62.6848 48.5423 62.6335 48.7847 62.5336L48.1843 61.075ZM48.0205 61.1074H42.1225V62.6848H48.0205V61.1074ZM42.1225 61.1074C42.0662 61.1074 42.0105 61.0963 41.9587 61.075L41.3583 62.5336C41.6007 62.6335 41.8604 62.6848 42.1225 62.6848L42.1225 61.1074ZM41.9587 61.075C41.907 61.0537 41.8603 61.0226 41.8213 60.9838L40.7092 62.1025C40.8952 62.2874 41.1158 62.4338 41.3583 62.5336L41.9587 61.075ZM41.8213 60.9838C41.7822 60.945 41.7516 60.8992 41.7307 60.8492L40.2745 61.4553C40.3753 61.6976 40.5231 61.9175 40.7092 62.1025L41.8213 60.9838ZM41.7307 60.8492C41.7099 60.7992 41.6993 60.7459 41.6994 60.6921L40.122 60.6905C40.1217 60.9531 40.1736 61.213 40.2745 61.4553L41.7307 60.8492ZM41.6994 60.6913V36.3319H40.122V60.6913H41.6994ZM41.3242 35.6603C40.0102 34.8512 38.9986 33.6394 38.4415 32.2094L36.9717 32.782C37.654 34.5334 38.892 36.0151 40.4972 37.0035L41.3242 35.6603ZM38.4415 32.2094C37.8845 30.7795 37.812 29.2084 38.2348 27.734L36.7185 27.2992C36.2005 29.1055 36.2894 31.0305 36.9717 32.782L38.4415 32.2094ZM38.2348 27.734C38.6577 26.2596 39.5532 24.9612 40.7868 24.0362L39.8405 22.7742C38.333 23.9045 37.2366 25.4929 36.7185 27.2992L38.2348 27.734ZM40.7868 24.0362C42.0205 23.1111 43.5249 22.6102 45.0721 22.6102V21.0328C43.1846 21.0328 41.348 21.6439 39.8405 22.7742L40.7868 24.0362ZM45.0721 22.6102C46.6192 22.6102 48.1236 23.1111 49.3574 24.0362L50.3036 22.7742C48.7962 21.6439 46.9596 21.0328 45.0721 21.0328V22.6102ZM49.3574 24.0362C50.591 24.9612 51.4865 26.2596 51.9094 27.734L53.4256 27.2992C52.9076 25.4929 51.8112 23.9045 50.3036 22.7742L49.3574 24.0362ZM51.9094 27.734C52.3322 29.2084 52.2597 30.7795 51.7027 32.2094L53.1725 32.782C53.8547 31.0305 53.9437 29.1056 53.4256 27.2992L51.9094 27.734ZM51.7027 32.2094C51.1456 33.6394 50.134 34.8512 48.82 35.6603L49.647 37.0035C51.2521 36.0151 52.4902 34.5334 53.1725 32.782L51.7027 32.2094ZM49.2335 35.5432H49.2323V37.1206H49.2335V35.5432ZM40.9107 37.1206H49.2335V35.5432H40.9107V37.1206ZM49.2323 35.5432H40.9107V37.1206H49.2323V35.5432Z" fill="#1A305E"/>
<path d="M51.5223 45.7615H44.1203C43.2531 45.7615 42.5718 46.4428 42.5718 47.31V48.332C42.5718 49.1992 43.2531 49.8806 44.1203 49.8806H51.5223C52.3895 49.8806 53.0708 49.1992 53.0708 48.332V47.31C53.1018 46.4738 52.3895 45.7615 51.5223 45.7615Z" fill="white" stroke="#012A5D" stroke-width="1.57738" stroke-miterlimit="10" stroke-linecap="round" stroke-linejoin="round"/>
<path d="M51.0268 54.0615H44.6468C43.5009 54.0615 42.5718 54.9906 42.5718 56.1366C42.5718 57.2825 43.5009 58.2116 44.7088 58.2116H50.9958C52.0798 58.2116 53.1018 57.2825 53.1018 56.1366C53.1018 54.9597 52.1727 54.0615 51.0268 54.0615Z" fill="white" stroke="#012A5D" stroke-width="1.57738" stroke-miterlimit="10" stroke-linecap="round" stroke-linejoin="round"/>
<path d="M50.3455 58.1807H44.1513C43.2841 58.1807 42.6028 58.862 42.6028 59.7292V60.7512C42.6028 61.6184 43.2841 62.2998 44.1513 62.2998H50.3455C51.2126 62.2998 51.894 61.6184 51.894 60.7512V59.7292C51.894 58.893 51.1817 58.1807 50.3455 58.1807Z" fill="white" stroke="#012A5D" stroke-width="1.57738" stroke-miterlimit="10" stroke-linecap="round" stroke-linejoin="round"/>
<path d="M51.9249 49.9116H44.2132C43.0673 49.9116 42.1382 50.8407 42.1382 51.9867C42.1382 53.1326 43.0673 54.0617 44.2752 54.0617H51.9869C53.0708 54.0617 54 53.1326 54 51.9867C54 50.8407 53.0708 49.9116 51.9249 49.9116Z" fill="white" stroke="#012A5D" stroke-width="1.57738" stroke-miterlimit="10" stroke-linecap="round" stroke-linejoin="round"/>
<path d="M32.2097 37.93H2.89871C2.89871 37.93 2.35064 23.5074 11.8892 17.8028C13.5324 18.9625 15.5088 19.5551 17.5191 19.4909C19.5293 19.4266 21.4638 18.709 23.0297 17.4468C33.1406 22.6482 32.2097 37.93 32.2097 37.93Z" fill="#BFE7F3" stroke="#1B2D59" stroke-width="1.54417" stroke-linecap="round" stroke-linejoin="round"/>
<path d="M26.4743 10.2479C26.4744 12.0771 25.9321 13.8652 24.916 15.3862C23.8998 16.9072 22.4555 18.0927 20.7656 18.7928C19.0757 19.4929 17.2161 19.6762 15.4221 19.3195C13.628 18.9627 11.98 18.082 10.6865 16.7887C9.393 15.4953 8.51205 13.8475 8.15507 12.0535C7.79809 10.2595 7.98111 8.39988 8.68099 6.70989C9.38087 5.0199 10.5662 3.57539 12.087 2.55905C13.6079 1.5427 15.3959 1.00016 17.2251 1.00003C18.4405 0.996729 19.6446 1.23367 20.7682 1.69723C21.8918 2.16079 22.9127 2.84184 23.7722 3.70122C24.6317 4.56061 25.3129 5.58139 25.7766 6.70489C26.2403 7.8284 26.4774 9.03246 26.4743 10.2479Z" fill="#BFE7F3" stroke="#1B2D59" stroke-width="1.54417" stroke-linecap="round" stroke-linejoin="round"/>
<path d="M25.7466 15.2871C25.7466 15.2871 28.8812 20.7809 20.1876 20.3629" stroke="#012A5D" stroke-width="1.54417" stroke-linecap="round" stroke-linejoin="round"/>
<path d="M19.1144 18.5298H15.7018C15.5582 18.5331 15.4166 18.5717 15.2849 18.6434C15.1533 18.7151 15.0342 18.8185 14.9346 18.9476C14.8349 19.0768 14.7566 19.2292 14.7042 19.3961C14.6517 19.5631 14.6261 19.7413 14.6288 19.9206C14.6261 20.0998 14.6517 20.2779 14.7042 20.4448C14.7567 20.6116 14.835 20.7638 14.9347 20.8928C15.0343 21.0218 15.1534 21.125 15.285 21.1965C15.4167 21.2679 15.5583 21.3063 15.7018 21.3093H19.1144C19.4041 21.3026 19.6799 21.1526 19.8811 20.8922C20.0823 20.6318 20.1925 20.2824 20.1875 19.9206C20.1925 19.5586 20.0823 19.2089 19.8812 18.9482C19.68 18.6875 19.4043 18.537 19.1144 18.5298Z" fill="#7FCFE7" stroke="#012A5D" stroke-width="1.54417" stroke-linecap="round" stroke-linejoin="round"/>
<path d="M12.3291 42.012H1V60.3344H12.3291V42.012Z" fill="#7FCFE7" stroke="#012A5D" stroke-width="0.981505" stroke-linecap="round" stroke-linejoin="round"/>
<path d="M10.6508 43.8301H2.67841V56.1383H10.6508V43.8301Z" fill="#BFE7F3" stroke="#012A5D" stroke-width="0.981505" stroke-linecap="round" stroke-linejoin="round"/>
<path d="M7.94323 60.3342C7.94323 60.3342 9.90083 63.7651 4.47162 63.504" stroke="#012A5D" stroke-width="0.964338" stroke-linecap="round" stroke-linejoin="round"/>
<path d="M3.80141 62.3594H1.67023C1.58055 62.3614 1.49208 62.3855 1.40987 62.4303C1.32766 62.4751 1.25331 62.5397 1.19109 62.6203C1.12886 62.701 1.07996 62.7961 1.0472 62.9004C1.01443 63.0047 0.998434 63.116 1.00012 63.2279C0.998435 63.3399 1.01444 63.4511 1.04722 63.5553C1.08 63.6595 1.12891 63.7545 1.19115 63.8351C1.25339 63.9157 1.32774 63.9801 1.40995 64.0247C1.49215 64.0693 1.5806 64.0933 1.67023 64.0952H3.80141C3.98233 64.091 4.15453 63.9973 4.28017 63.8347C4.40582 63.6721 4.47463 63.4539 4.47151 63.2279C4.47464 63.0019 4.40585 62.7835 4.28024 62.6207C4.15462 62.4579 3.98243 62.3639 3.80141 62.3594Z" fill="#7FCFE7" stroke="#012A5D" stroke-width="0.964338" stroke-linecap="round" stroke-linejoin="round"/>
</svg>
